<svg xmlns="http://www.w3.org/2000/svg" xmlns:xlink="http://www.w3.org/1999/xlink" width="582.19" height="435.469" viewBox="0 0 582.19 435.469">
  <defs>
    <linearGradient id="linear-gradient" x1="0.5" y1="1" x2="0.5" gradientUnits="objectBoundingBox">
      <stop offset="0" stop-color="gray" stop-opacity="0.251"/>
      <stop offset="0.54" stop-color="gray" stop-opacity="0.122"/>
      <stop offset="1" stop-color="gray" stop-opacity="0.102"/>
    </linearGradient>
    <linearGradient id="linear-gradient-2" x1="0.5" y1="1" x2="0.5" y2="-0.001" xlink:href="#linear-gradient"/>
    <linearGradient id="linear-gradient-3" x1="0.499" y1="1" x2="0.499" y2="-0.001" xlink:href="#linear-gradient"/>
    <linearGradient id="linear-gradient-4" x1="0.5" y1="1" x2="0.5" y2="0" xlink:href="#linear-gradient"/>
    <linearGradient id="linear-gradient-5" x1="0.5" y1="1" x2="0.5" y2="0" xlink:href="#linear-gradient"/>
    <linearGradient id="linear-gradient-6" x1="0.5" y1="1" x2="0.5" y2="0" xlink:href="#linear-gradient"/>
    <linearGradient id="linear-gradient-7" x1="0.5" y1="0.995" x2="0.5" y2="0" xlink:href="#linear-gradient"/>
    <linearGradient id="linear-gradient-8" x1="0.5" y1="0.999" x2="0.5" y2="0.001" xlink:href="#linear-gradient"/>
    <linearGradient id="linear-gradient-9" x1="0.5" y1="0.998" x2="0.5" y2="0" xlink:href="#linear-gradient"/>
    <linearGradient id="linear-gradient-10" x1="0.5" y1="1" x2="0.5" y2="0" xlink:href="#linear-gradient"/>
    <linearGradient id="linear-gradient-11" x1="0.5" y1="1" x2="0.5" y2="0" xlink:href="#linear-gradient"/>
    <linearGradient id="linear-gradient-12" x1="0.5" y1="1" x2="0.5" y2="0" xlink:href="#linear-gradient"/>
    <linearGradient id="linear-gradient-13" x1="0.5" y1="0.999" x2="0.5" y2="-0.001" xlink:href="#linear-gradient"/>
    <linearGradient id="linear-gradient-14" x1="0.5" y1="1" x2="0.5" y2="0" xlink:href="#linear-gradient"/>
    <linearGradient id="linear-gradient-15" x1="0.5" y1="1" x2="0.5" y2="-0.002" xlink:href="#linear-gradient"/>
    <linearGradient id="linear-gradient-16" x1="0.5" y1="0.998" x2="0.5" y2="-0.002" xlink:href="#linear-gradient"/>
    <linearGradient id="linear-gradient-17" x1="0.498" y1="1" x2="0.498" y2="0" xlink:href="#linear-gradient"/>
    <linearGradient id="linear-gradient-18" x1="0.499" y1="0.999" x2="0.499" y2="-0.002" xlink:href="#linear-gradient"/>
    <linearGradient id="linear-gradient-19" x1="0.5" y1="1" x2="0.5" y2="0.001" xlink:href="#linear-gradient"/>
    <linearGradient id="linear-gradient-20" x1="0.5" y1="1" x2="0.5" y2="0" xlink:href="#linear-gradient"/>
    <linearGradient id="linear-gradient-21" x1="0.498" y1="1.001" x2="0.498" y2="0" xlink:href="#linear-gradient"/>
    <linearGradient id="linear-gradient-22" x1="0.498" y1="1" x2="0.498" y2="0" xlink:href="#linear-gradient"/>
    <linearGradient id="linear-gradient-23" x1="0.511" y1="1.001" x2="0.511" y2="0" xlink:href="#linear-gradient"/>
    <linearGradient id="linear-gradient-24" x1="0.5" y1="1.001" x2="0.5" y2="0.006" xlink:href="#linear-gradient"/>
    <linearGradient id="linear-gradient-25" x1="0.5" y1="1" x2="0.5" y2="0" xlink:href="#linear-gradient"/>
    <linearGradient id="linear-gradient-26" x1="0.5" y1="0.984" x2="0.5" y2="0" xlink:href="#linear-gradient"/>
    <linearGradient id="linear-gradient-27" x1="0.5" y1="1" x2="0.5" y2="0" xlink:href="#linear-gradient"/>
    <linearGradient id="linear-gradient-28" x1="0.5" y1="1" x2="0.5" y2="0" xlink:href="#linear-gradient"/>
    <linearGradient id="linear-gradient-29" x1="0.497" y1="1" x2="0.497" y2="0" xlink:href="#linear-gradient"/>
    <linearGradient id="linear-gradient-30" x1="0.499" y1="1" x2="0.499" y2="0" xlink:href="#linear-gradient"/>
    <linearGradient id="linear-gradient-31" x1="0.5" y1="0.999" x2="0.5" y2="-0.001" xlink:href="#linear-gradient"/>
    <linearGradient id="linear-gradient-32" x1="0.501" y1="1" x2="0.501" y2="0" xlink:href="#linear-gradient"/>
    <linearGradient id="linear-gradient-33" x1="0.501" y1="1" x2="0.501" y2="0" xlink:href="#linear-gradient"/>
    <linearGradient id="linear-gradient-34" x1="0.5" y1="1.001" x2="0.5" y2="0" xlink:href="#linear-gradient"/>
    <linearGradient id="linear-gradient-35" x1="0.5" y1="1.001" x2="0.5" y2="0.001" xlink:href="#linear-gradient"/>
  </defs>
  <g id="undraw_setup_wizard_r6mr" transform="translate(0 -0.001)">
    <path id="Path_127" data-name="Path 127" d="M409.866,113.89c-35.48-1.228-69.271-12.685-101.538-25.217S244.1,62.238,209.471,55.622c-22.273-4.276-47.748-4.879-65.691,7.066-17.263,11.49-22.855,31.346-25.853,49.733-2.259,13.848-3.585,28.424,2.6,41.389,4.3,9,11.918,16.567,17.192,25.184,18.348,30,5.378,67-14.5,96.286-9.319,13.738-20.146,26.862-27.344,41.471s-10.525,31.385-4.227,46.307c6.239,14.8,21.111,25.9,37.223,33.709,32.722,15.87,71.266,20.41,108.878,22.986,83.233,5.69,166.905,3.229,250.358.757,30.886-.91,61.9-1.836,92.284-6.611,16.874-2.653,34.29-6.863,46.542-17.027,15.547-12.9,19.4-34.74,8.98-50.917-17.477-27.13-65.784-33.868-78.015-62.983-6.721-16.029.181-33.879,9.955-48.741,20.963-31.889,56.1-59.864,57.945-96.308,1.272-25.031-15.618-50.1-41.735-61.947-27.372-12.417-65.335-10.854-85.519,9.692C477.739,106.835,441.185,114.981,409.866,113.89Z" transform="translate(-77.727 -52.82)" fill="#6c63ff" opacity="0.1"/>
    <rect id="Rectangle_38" data-name="Rectangle 38" width="142.264" height="142.264" transform="translate(0 67.692)" fill="#e8e9ed"/>
    <rect id="Rectangle_39" data-name="Rectangle 39" width="142.264" height="142.264" transform="translate(439.926 67.692)" fill="#e8e9ed"/>
    <path id="Path_128" data-name="Path 128" d="M200.185,83.571l-1.42-1.453a.3.3,0,0,0-.225-.1.285.285,0,0,0-.225.1L188.5,91.986l-3.574-3.569a.307.307,0,0,0-.45,0l-1.431,1.431a.318.318,0,0,0,0,.46l4.506,4.5a1.409,1.409,0,0,0,.937.46,1.491,1.491,0,0,0,.937-.444h0l10.761-10.794a.345.345,0,0,0,0-.46Z" transform="translate(-120.482 -66.012)" fill="#3acc6c" opacity="0.5"/>
    <path id="Path_129" data-name="Path 129" d="M184.957,65.843a14.467,14.467,0,1,1-10.24,4.238,14.467,14.467,0,0,1,10.24-4.238m0-2.253a16.726,16.726,0,1,0,11.837,4.9A16.737,16.737,0,0,0,184.957,63.59Z" transform="translate(-113.827 -57.685)" fill="#6c63ff" opacity="0.5"/>
    <path id="Path_130" data-name="Path 130" d="M396.939,168.571l-1.787-1.831a.373.373,0,0,0-.28-.121.362.362,0,0,0-.285.121l-12.351,12.444-4.5-4.5a.383.383,0,0,0-.28-.121.4.4,0,0,0-.285.121l-1.8,1.8a.395.395,0,0,0,0,.576l5.668,5.657a1.776,1.776,0,0,0,1.184.576,1.88,1.88,0,0,0,1.173-.548h0l13.541-13.617a.433.433,0,0,0,0-.548Z" transform="translate(-207.36 -104.234)" fill="#3acc6c" opacity="0.8"/>
    <path id="Path_131" data-name="Path 131" d="M377.757,146.244a18.228,18.228,0,1,1-12.894,5.339,18.227,18.227,0,0,1,12.894-5.339m0-2.834a21.067,21.067,0,1,0,21.067,21.067A21.067,21.067,0,0,0,377.757,143.41Z" transform="translate(-198.978 -93.748)" fill="#6c63ff" opacity="0.8"/>
    <path id="Path_132" data-name="Path 132" d="M987.447,65.843a14.467,14.467,0,1,1-10.24,4.238,14.467,14.467,0,0,1,10.24-4.238m0-2.253a16.725,16.725,0,1,0,11.837,4.9,16.737,16.737,0,0,0-11.837-4.9Z" transform="translate(-476.391 -57.685)" fill="#6c63ff" opacity="0.5"/>
    <path id="Path_133" data-name="Path 133" d="M786.13,146.244a18.229,18.229,0,1,0,.027,0m0-2.834a21.109,21.109,0,1,1-.027,0Z" transform="translate(-383.492 -93.748)" fill="#6c63ff" opacity="0.8"/>
    <path id="Path_134" data-name="Path 134" d="M575.374,206.47a24.088,24.088,0,1,1-17.049,7.055,24.088,24.088,0,0,1,17.049-7.055m0-3.75a27.857,27.857,0,1,1-.005,0Z" transform="translate(-285.195 -120.544)" fill="#6c63ff"/>
    <rect id="Rectangle_40" data-name="Rectangle 40" width="158.54" height="158.54" transform="translate(99.51 104.981)" fill="#f3f5f7"/>
    <rect id="Rectangle_41" data-name="Rectangle 41" width="158.54" height="158.54" transform="translate(323.368 104.981)" fill="#f3f5f7"/>
    <rect id="Rectangle_42" data-name="Rectangle 42" width="52.88" height="5.877" transform="translate(14.215 92.948)" opacity="0.1"/>
    <rect id="Rectangle_43" data-name="Rectangle 43" width="52.88" height="5.877" transform="translate(465.527 92.948)" opacity="0.1"/>
    <path id="Path_135" data-name="Path 135" d="M770.19,622.784s13.738-24.335,34.427-31.346a42.337,42.337,0,0,0,21.446-16.04,71.62,71.62,0,0,0,6.326-11.4" transform="translate(-385.797 -283.77)" fill="none" stroke="#535461" stroke-miterlimit="10" stroke-width="2"/>
    <path id="Path_136" data-name="Path 136" d="M896.388,547.408c-2.357,2.286-13.338,4.654-13.338,4.654s2.7-10.9,5.054-13.2a5.949,5.949,0,0,1,8.283,8.541Z" transform="translate(-436.787 -271.656)" fill="#6c63ff"/>
    <path id="Path_137" data-name="Path 137" d="M884.755,582.122c-3.223.641-13.705-3.339-13.705-3.339s8.185-7.675,11.408-8.327a5.948,5.948,0,0,1,2.313,11.666Z" transform="translate(-431.365 -286.646)" fill="#6c63ff"/>
    <path id="Path_138" data-name="Path 138" d="M846.428,621.273c-3.1-1.1-10.158-9.813-10.158-9.813s10.964-2.505,14.05-1.431a5.949,5.949,0,0,1-3.892,11.244Z" transform="translate(-415.651 -304.445)" fill="#6c63ff"/>
    <path id="Path_139" data-name="Path 139" d="M807.377,643.48c-3.245-.548-11.677-7.954-11.677-7.954s10.372-4.314,13.612-3.783a5.948,5.948,0,1,1-1.935,11.737Z" transform="translate(-397.322 -314.355)" fill="#6c63ff"/>
    <path id="Path_140" data-name="Path 140" d="M854.311,565.283c0,3.289,5.943,12.811,5.943,12.811s5.943-9.522,5.943-12.806a5.948,5.948,0,0,0-11.9,0Z" transform="translate(-423.797 -281.665)" fill="#6c63ff"/>
    <path id="Path_141" data-name="Path 141" d="M810.165,590.633c.981,3.136,9.506,10.449,9.506,10.449s2.829-10.865,1.847-14a5.948,5.948,0,0,0-11.353,3.552Z" transform="translate(-403.734 -292.312)" fill="#6c63ff"/>
    <path id="Path_142" data-name="Path 142" d="M771.226,623.334c.439,3.256,7.6,11.9,7.6,11.9s4.627-10.229,4.194-13.486a5.949,5.949,0,0,0-11.792,1.584Z" transform="translate(-386.24 -307.531)" fill="#6c63ff"/>
    <path id="Path_143" data-name="Path 143" d="M896.388,547.408c-2.357,2.286-13.338,4.654-13.338,4.654s2.7-10.9,5.054-13.2a5.949,5.949,0,0,1,8.283,8.541Z" transform="translate(-436.787 -271.656)" opacity="0.25"/>
    <path id="Path_144" data-name="Path 144" d="M884.755,582.122c-3.223.641-13.705-3.339-13.705-3.339s8.185-7.675,11.408-8.327a5.948,5.948,0,0,1,2.313,11.666Z" transform="translate(-431.365 -286.646)" opacity="0.25"/>
    <path id="Path_145" data-name="Path 145" d="M846.428,621.273c-3.1-1.1-10.158-9.813-10.158-9.813s10.964-2.505,14.05-1.431a5.949,5.949,0,0,1-3.892,11.244Z" transform="translate(-415.651 -304.445)" opacity="0.25"/>
    <path id="Path_146" data-name="Path 146" d="M807.377,643.48c-3.245-.548-11.677-7.954-11.677-7.954s10.372-4.314,13.612-3.783a5.948,5.948,0,1,1-1.935,11.737Z" transform="translate(-397.322 -314.355)" opacity="0.25"/>
    <path id="Path_147" data-name="Path 147" d="M854.311,565.283c0,3.289,5.943,12.811,5.943,12.811s5.943-9.522,5.943-12.806a5.948,5.948,0,0,0-11.9,0Z" transform="translate(-423.797 -281.665)" opacity="0.25"/>
    <path id="Path_148" data-name="Path 148" d="M810.165,590.633c.981,3.136,9.506,10.449,9.506,10.449s2.829-10.865,1.847-14a5.948,5.948,0,0,0-11.353,3.552Z" transform="translate(-403.734 -292.312)" opacity="0.25"/>
    <path id="Path_149" data-name="Path 149" d="M771.226,623.334c.439,3.256,7.6,11.9,7.6,11.9s4.627-10.229,4.194-13.486a5.949,5.949,0,0,0-11.792,1.584Z" transform="translate(-386.24 -307.531)" opacity="0.25"/>
    <path id="Path_150" data-name="Path 150" d="M771.63,605.286s2.7-27.81,18.77-42.606a42.386,42.386,0,0,0,13.107-23.37,71.416,71.416,0,0,0,1.168-12.97" transform="translate(-386.447 -266.755)" fill="none" stroke="#535461" stroke-miterlimit="10" stroke-width="2"/>
    <path id="Path_151" data-name="Path 151" d="M840.862,502.514c-1.228,3.048-10.306,9.659-10.306,9.659s-1.957-11.057-.729-14.105a5.949,5.949,0,0,1,11.035,4.446Z" transform="translate(-412.557 -252.298)" fill="#6c63ff"/>
    <path id="Path_152" data-name="Path 152" d="M843.057,537.916c-2.686,1.891-13.9,2.511-13.9,2.511s4.386-10.35,7.055-12.236a5.948,5.948,0,0,1,6.842,9.725Z" transform="translate(-412.439 -267.147)" fill="#6c63ff"/>
    <path id="Path_153" data-name="Path 153" d="M821.651,589.274c-3.289.274-13.261-4.852-13.261-4.852s8.991-6.726,12.263-7a5.948,5.948,0,1,1,1,11.853Z" transform="translate(-403.055 -289.824)" fill="#6c63ff"/>
    <path id="Path_154" data-name="Path 154" d="M795.627,625.259c-3.185.822-13.9-2.544-13.9-2.544s7.73-8.146,10.909-8.974a5.947,5.947,0,1,1,2.988,11.513Z" transform="translate(-391.01 -306.156)" fill="#6c63ff"/>
    <path id="Path_155" data-name="Path 155" d="M807.169,537c1.332,3,10.624,9.319,10.624,9.319s1.584-11.118.258-14.122a5.95,5.95,0,0,0-10.882,4.819Z" transform="translate(-402.273 -267.802)" fill="#6c63ff"/>
    <path id="Path_156" data-name="Path 156" d="M777.071,578.042c2.193,2.467,12.927,5.7,12.927,5.7s-1.82-11.085-3.985-13.552a5.949,5.949,0,0,0-8.941,7.85Z" transform="translate(-388.237 -285.653)" fill="#6c63ff"/>
    <path id="Path_157" data-name="Path 157" d="M754.725,623.731c1.716,2.8,11.77,7.806,11.77,7.806s.088-11.233-1.645-14.034a5.948,5.948,0,1,0-10.136,6.228Z" transform="translate(-378.406 -306.662)" fill="#6c63ff"/>
    <rect id="Rectangle_44" data-name="Rectangle 44" width="52.88" height="5.877" transform="translate(119.974 138.821)" opacity="0.1"/>
    <rect id="Rectangle_45" data-name="Rectangle 45" width="31.571" height="5.877" transform="translate(217.417 190.479)" opacity="0.1"/>
    <rect id="Rectangle_46" data-name="Rectangle 46" width="46.751" height="5.877" transform="translate(217.417 229.916)" opacity="0.1"/>
    <rect id="Rectangle_47" data-name="Rectangle 47" width="52.88" height="5.877" transform="translate(119.974 159.533)" opacity="0.1"/>
    <rect id="Rectangle_48" data-name="Rectangle 48" width="52.88" height="5.877" transform="translate(357.932 138.821)" opacity="0.1"/>
    <rect id="Rectangle_49" data-name="Rectangle 49" width="52.88" height="5.877" transform="translate(357.932 159.533)" opacity="0.1"/>
    <path id="Path_158" data-name="Path 158" d="M584.66,254.193l1.48-1.941a7.675,7.675,0,0,0,5.328,2.193c2.5,0,4.353-1.222,4.353-3.2,0-2.149-1.776-3.563-6.7-3.563v-2.231c4.386,0,6.03-1.442,6.03-3.344,0-1.721-1.475-2.8-3.662-2.8a7.05,7.05,0,0,0-4.583,1.875l-1.573-1.875a9.588,9.588,0,0,1,6.277-2.44c3.788,0,6.578,1.82,6.578,5.011,0,2.248-1.645,3.717-4.013,4.528v.121c2.538.548,4.665,2.231,4.665,4.857,0,3.465-3.289,5.542-7.17,5.542A9.509,9.509,0,0,1,584.66,254.193Z" transform="translate(-301.974 -135.973)" fill="#6c63ff"/>
    <g id="Group_60" data-name="Group 60" transform="translate(395.105 61.498)" opacity="0.8">
      <path id="Path_159" data-name="Path 159" d="M799.011,171.206c0-1.053.093-2.4.148-3.448h-.137c-.6.932-1.288,1.858-1.9,2.785l-4.386,5.625h11.644v2.264H789.73v-1.919L798.474,165h3.218v18.3h-2.681Z" transform="translate(-789.73 -165)" fill="#6c63ff"/>
    </g>
    <g id="Group_61" data-name="Group 61" transform="translate(505.36 16.748)" opacity="0.5">
      <path id="Path_160" data-name="Path 160" d="M990.85,95.063l.992-1.354a5.159,5.159,0,0,0,3.591,1.475,2.851,2.851,0,0,0,3.152-2.779c0-1.727-1.222-2.659-3.037-2.659a4.643,4.643,0,0,0-2.588.762l-1.031-.663.417-6.474h7.675v1.782h-5.866l-.323,3.547a5.394,5.394,0,0,1,2.275-.482c2.516,0,4.567,1.294,4.567,4.155s-2.4,4.534-4.994,4.534a6.737,6.737,0,0,1-4.83-1.842Z" transform="translate(-990.85 -83.37)" fill="#6c63ff"/>
    </g>
    <rect id="Rectangle_50" data-name="Rectangle 50" width="195.977" height="195.977" transform="translate(190.314 155.317)" fill="#6c63ff" opacity="0.1"/>
    <rect id="Rectangle_51" data-name="Rectangle 51" width="195.977" height="195.977" transform="translate(196.892 145.997)" fill="#fff"/>
    <rect id="Rectangle_52" data-name="Rectangle 52" width="154.922" height="5.877" transform="translate(217.417 167.706)" fill="#6c63ff" opacity="0.5"/>
    <rect id="Rectangle_53" data-name="Rectangle 53" width="98.649" height="5.877" transform="translate(217.417 210.197)" opacity="0.1"/>
    <rect id="Rectangle_54" data-name="Rectangle 54" width="95.716" height="5.877" transform="translate(217.417 249.64)" opacity="0.1"/>
    <rect id="Rectangle_55" data-name="Rectangle 55" width="130.477" height="5.877" transform="translate(217.417 269.359)" opacity="0.1"/>
    <path id="Path_161" data-name="Path 161" d="M689.75,436.59l-.674-.7a.164.164,0,0,0-.11-.044.148.148,0,0,0-.1.044l-4.676,4.715-1.7-1.7a.175.175,0,0,0-.11-.044.159.159,0,0,0-.1.044l-.685.685a.153.153,0,0,0,0,.219l2.149,2.143a.569.569,0,0,0,.894.005h0l5.126-5.148A.176.176,0,0,0,689.75,436.59Z" transform="translate(-345.743 -225.872)" fill="#3acc6c" opacity="0.5"/>
    <path id="Path_162" data-name="Path 162" d="M682.492,428.119a6.907,6.907,0,1,1-4.879,2.023,6.907,6.907,0,0,1,4.879-2.023m0-1.069a7.967,7.967,0,1,1,0,.011Z" transform="translate(-342.569 -221.896)" fill="#3acc6c" opacity="0.5"/>
    <path id="Path_163" data-name="Path 163" d="M689.75,508.534l-.674-.691a.142.142,0,0,0-.11-.044.131.131,0,0,0-.1.044l-4.676,4.709-1.7-1.7a.154.154,0,0,0-.11-.049.143.143,0,0,0-.1.049l-.685.68a.153.153,0,0,0,0,.219l2.149,2.149a.685.685,0,0,0,.45.219.718.718,0,0,0,.444-.214h0l5.126-5.153A.176.176,0,0,0,689.75,508.534Z" transform="translate(-345.743 -258.379)" fill="#3acc6c" opacity="0.5"/>
    <path id="Path_164" data-name="Path 164" d="M682.492,500.1a6.907,6.907,0,1,1-4.879,2.023,6.907,6.907,0,0,1,4.879-2.023m0-1.1a7.976,7.976,0,1,0,7.971,7.974A7.976,7.976,0,0,0,682.492,499Z" transform="translate(-342.569 -254.403)" fill="#3acc6c" opacity="0.5"/>
    <ellipse id="Ellipse_31" data-name="Ellipse 31" cx="39.147" cy="6.567" rx="39.147" ry="6.567" transform="translate(241.812 422.335)" fill="#6c63ff" opacity="0.1"/>
    <path id="Path_165" data-name="Path 165" d="M195.279,746.19s2.039,2.67-.943,6.7-5.449,7.434-4.451,9.95c0,0,4.5-7.488,8.168-7.593S199.308,750.7,195.279,746.19Z" transform="translate(-123.514 -366.083)" fill="#6c63ff"/>
    <path id="Path_166" data-name="Path 166" d="M195.374,746.19a3.338,3.338,0,0,1,.417.839c3.574,4.2,5.482,8.124,2.045,8.223-3.2.093-7.044,5.816-7.965,7.264a2.573,2.573,0,0,0,.11.329s4.5-7.488,8.168-7.593S199.4,750.7,195.374,746.19Z" transform="translate(-123.609 -366.083)" opacity="0.1"/>
    <path id="Path_167" data-name="Path 167" d="M206.441,751.9c0,.943-.1,1.7-.236,1.7s-.236-.762-.236-1.7.132-.5.263-.5S206.441,750.965,206.441,751.9Z" transform="translate(-130.883 -368.392)" fill="#ffd037"/>
    <path id="Path_168" data-name="Path 168" d="M207.883,753.908c-.828.45-1.546.724-1.606.609s.548-.548,1.381-1.025.5-.121.548,0S208.705,753.458,207.883,753.908Z" transform="translate(-131.02 -369.273)" fill="#ffd037"/>
    <path id="Path_169" data-name="Path 169" d="M176.455,746.19s-2.045,2.67.943,6.7,5.444,7.434,4.451,9.95c0,0-4.506-7.488-8.168-7.593S172.42,750.7,176.455,746.19Z" transform="translate(-115.478 -366.083)" fill="#6c63ff"/>
    <path id="Path_170" data-name="Path 170" d="M176.455,746.19a3.338,3.338,0,0,0-.417.839c-3.58,4.2-5.482,8.124-2.045,8.223,3.2.093,7.044,5.816,7.965,7.264-.033.11-.066.219-.11.329,0,0-4.506-7.488-8.168-7.593S172.42,750.7,176.455,746.19Z" transform="translate(-115.478 -366.083)" opacity="0.1"/>
    <path id="Path_171" data-name="Path 171" d="M173.3,751.9c0,.943.1,1.7.236,1.7s.236-.762.236-1.7-.132-.5-.263-.5S173.3,750.965,173.3,751.9Z" transform="translate(-116.123 -368.392)" fill="#ffd037"/>
    <path id="Path_172" data-name="Path 172" d="M170.524,753.908c.822.45,1.54.724,1.606.609s-.548-.548-1.381-1.025-.5-.121-.548,0S169.7,753.458,170.524,753.908Z" transform="translate(-114.646 -369.273)" fill="#ffd037"/>
    <ellipse id="Ellipse_32" data-name="Ellipse 32" cx="21.352" cy="3.278" rx="21.352" ry="3.278" transform="translate(45.018 410.636)" fill="#6c63ff" opacity="0.1"/>
    <path id="Path_173" data-name="Path 173" d="M191.99,768.974l-.1.839-.143,1.173-.06.493-.143,1.179-.06.493-.148,1.173-1.645,13.4c-.143,1.2-2.1,2.127-4.457,2.127H176.75c-2.357,0-4.309-.932-4.451-2.127l-1.645-13.4-.143-1.173-.06-.493-.143-1.179-.06-.493-.143-1.173-.11-.839c-.082-.674.976-1.244,2.308-1.244h17.367C191.014,767.73,192.072,768.3,191.99,768.974Z" transform="translate(-114.628 -375.815)" fill="#65617d"/>
    <path id="Path_174" data-name="Path 174" d="M122.98,718.7l-.143,1.179h-21.49L101.2,718.7Z" transform="translate(-45.722 -324.707)" fill="#9d9cb5"/>
    <path id="Path_175" data-name="Path 175" d="M122.949,721.75l-.143,1.179H101.723l-.143-1.179Z" transform="translate(-45.894 -326.085)" fill="#9d9cb5"/>
    <path id="Path_176" data-name="Path 176" d="M122.913,724.79l-.148,1.179H102.093l-.143-1.179Z" transform="translate(-46.061 -327.459)" fill="#9d9cb5"/>
    <path id="Path_177" data-name="Path 177" d="M601.382,479.823c-.367-.751-3.289-10.416-3.289-10.416l-5.63-14.292S589.048,436.307,583.95,441s2.741,15.953,2.741,15.953,3.218,8.223,3.054,9.868,1.793,7.675,1.793,7.675l-.636,3.465c-.828-.055-1.365-.055-1.365-.055s-.5.724-.987.773a.455.455,0,0,1-.241-.033,13.418,13.418,0,0,0-3.289-.2,7.369,7.369,0,0,1-2.461-.789c-.318-.636-2.116-1.014-3.711-1.228-1.212-3.015-2.916-5.948-3.152-9.095a3.931,3.931,0,0,1,.482-2.478,3.1,3.1,0,0,1,.362-.45c.444-.45.987-.844,1.48-1.261.247-.208.471-.422.685-.641,4.183-4.057,3.519-10.339-.274-14.686-4.386-5.027-24.165-15.843-30.151-6.578-.833,1.294-.861,2.79-1.1,4.227a17.619,17.619,0,0,1-4.725,9.319c-1.984,2.111-4.589,4.057-5.729,6.447l-.038-.088a6.383,6.383,0,0,0-.592,1.645c-.576,2.911,1.387,5.712,2.418,8.546a15.347,15.347,0,0,1,.756,2.971l.066-.625a19.3,19.3,0,0,1,.258,4.386c-7.181,1.469-7.187,13.848-7.187,13.848a42.979,42.979,0,0,0-.735,6.694c.148,1.76.148,5.608.148,6.546s-.888,6.694-.987,7.384c-.126.762-1.475,4.413,1.782,5.235.225.06.466.11.713.154.137,2.955.395,9.155.17,10.525,0,0,1.184,8.322,2.165,10.416a24.7,24.7,0,0,0,2.193,3.536,3.837,3.837,0,0,1-.5,1.431c-.5.729-.241,1.327.6,1.584q-.038.378-.1.855c-.356,3.212-.894,9.588,0,12.822a32.583,32.583,0,0,1,1.327,5.9,4.385,4.385,0,0,0,.515,2.067c.548.74,1.48,7.6,1.48,8.711s2.511,11.074,1.771,13.436a14.479,14.479,0,0,0-.148,5.685s-.444,5.833-.959,7.088-.74,21.484.071,26.725,1.332,9.6,1.332,9.6-.548,4.8-.077,5.482,1.255,4.654.663,4.874-.883,1.847-.883,1.847a16.233,16.233,0,0,0,1.009,1.376,5.58,5.58,0,0,1-.669-.285c.236.334.587.795,1.014,1.3l-.4,5.307a.888.888,0,0,0,.658.932,7.368,7.368,0,0,0,7.335-2.078c3.689-3.766,4.934-3.245,5.614-5.537.066-.247.132-.482.181-.713a2.4,2.4,0,0,0-3.393-2.686,17.415,17.415,0,0,0,.241-4.484,67.3,67.3,0,0,1-.3-7.752l-.515-26.862s.959-5.312,2.067-7.379.959-9.319.959-9.319l1.255-23.776,1.25-11.512s1.179-3.985,2.653.444c0,0-.811,8.93-.439,11.074s.883,12.548.515,14.84-2,14.84-.959,18.014,2.138,7.011,1.919,8.267-.959,28.506-.959,28.506,1.99,5.241.515,6.94-.071,8.492-.071,8.492.175.126.482.307l-.044.548-.461,6.107a.894.894,0,0,0,.658.932,7.379,7.379,0,0,0,7.335-2.078c3.689-3.766,4.934-3.251,5.614-5.537.066-.247.132-.488.186-.718a2.4,2.4,0,0,0-3.87-2.385.512.512,0,0,1-.082.071c-.093.082-.192.154-.291.225l-.143.093c.367-1.688.9-4.567.652-5.926-.367-2,.367-8.048.367-8.048s2.143-7.236,2.193-10.114.592-23.024.592-23.024-.071-9.374.225-11.66,2.653-22.076,5.016-27.958c1.815-4.528,2.626-16.068,2.143-21.928-.027-.3-.055-.548-.082-.833a8.778,8.778,0,0,0,3.2-5.745s-2.659-5.12-5.219-7.286a9.956,9.956,0,0,1-3.053-7.483,3.887,3.887,0,0,0-.883-2.653s-1.184-3.837-1.974-4.232a.548.548,0,0,1-.17-.132c-.548-.581-.126-2.231-.126-2.231v-.049a13.617,13.617,0,0,0,.477-3.5,25.209,25.209,0,0,1,.1-3.936s1.875-5.608,1.579-10.038a3.452,3.452,0,0,1,3.837-4.04l12.768-.132h1.453a10.7,10.7,0,0,0,1.645-1.76,3.519,3.519,0,0,0,2.823-.691C602.084,485.316,601.75,480.585,601.382,479.823ZM542.007,518.2l.093-2.248.5.428a3.6,3.6,0,0,1,0,1.8,1.918,1.918,0,0,1-1.1,1.25,1.224,1.224,0,0,0-.181.11l-.126-1.283c.521-.033.811-.06.811-.06Z" transform="translate(-277.483 -226.669)" opacity="0.1"/>
    <path id="Path_178" data-name="Path 178" d="M632.8,484.866s7.269,4.676,10.021,2.193,2.412-7.275,2.039-8.031-3.333-10.487-3.333-10.487l-5.718-14.407s-3.476-18.962-8.662-14.253,2.8,16.079,2.8,16.079,3.289,8.294,3.1,9.955,1.82,7.746,1.82,7.746Z" transform="translate(-320.378 -227.353)" fill="url(#linear-gradient)"/>
    <path id="Path_179" data-name="Path 179" d="M602.615,828.3c-.055.236-.115.477-.192.724-.674,2.308-1.952,1.787-5.7,5.581a7.527,7.527,0,0,1-7.456,2.094.9.9,0,0,1-.669-.937l.471-6.156.225-2.966s5.97,1.677,9.012-.444c.1-.071.2-.143.291-.225l.088-.071a2.439,2.439,0,0,1,3.931,2.4Z" transform="translate(-303.752 -401.844)" fill="url(#linear-gradient-2)"/>
    <path id="Path_180" data-name="Path 180" d="M568.449,824.053c-.049.236-.115.477-.186.724-.674,2.308-1.952,1.787-5.7,5.581a7.549,7.549,0,0,1-7.456,2.1.893.893,0,0,1-.669-.943l.466-6.156.23-2.966s5.97,1.677,9.007-.444c.1-.071.2-.143.3-.225l.088-.071a2.434,2.434,0,0,1,3.925,2.4Z" transform="translate(-288.318 -399.926)" fill="url(#linear-gradient-3)"/>
    <g id="Group_62" data-name="Group 62" transform="translate(265.478 424.928)" opacity="0.1">
      <path id="Path_181" data-name="Path 181" d="M561.74,828.076l.247,3.2c-3.432,3.4-7.51-1.645-8.716-3.322C556.411,829.562,561.74,828.076,561.74,828.076Z" transform="translate(-553.27 -827.95)" fill="url(#linear-gradient-4)"/>
    </g>
    <g id="Group_63" data-name="Group 63" transform="translate(285.317 424.347)" opacity="0.1">
      <path id="Path_182" data-name="Path 182" d="M598.237,828.9l.455-.3c-3.136,4.726-7.784,2.544-9.232,1.7l.225-2.966s5.97,1.677,9.012-.444C598.456,828.047,598.237,828.9,598.237,828.9Z" transform="translate(-589.46 -826.89)" fill="url(#linear-gradient-5)"/>
    </g>
    <path id="Path_183" data-name="Path 183" d="M586.429,646.3c-2.4,5.953-4.8,25.9-5.1,28.21s-.225,11.759-.225,11.759l-.625,23.222c-.071,2.905-2.248,10.2-2.248,10.2s-.751,6.107-.378,8.113-.976,7.3-.976,7.3l.455-.3c-3.755,5.652-9.681,1.409-9.681,1.409s-1.425-6.847.071-8.557-.521-7-.521-7,.746-27.465.976-28.731-.855-5.137-1.952-8.338.6-15.854.976-18.162-.154-12.8-.548-14.96.449-11.167.449-11.167c-1.5-4.462-2.7-.444-2.7-.444l-1.2,11.688-1.233,23.995s.154,7.291-.976,9.374-2.1,7.445-2.1,7.445l.548,27.092a66.28,66.28,0,0,0,.3,7.817c.378,2.16-.828,7.741-.828,7.741-4.2,9.824-10.964-.817-10.964-.817s.3-1.645.9-1.864-.225-4.243-.674-4.934.071-5.482.071-5.482-.521-4.386-1.349-9.681-.6-25.678-.077-26.944.976-7.127.976-7.127a14.545,14.545,0,0,1,.154-5.734c.751-2.385-1.8-12.428-1.8-13.546s-.976-8.037-1.5-8.771a4.386,4.386,0,0,1-.548-2.083,32.924,32.924,0,0,0-1.354-5.953c-.932-3.289-.384-9.692,0-12.927.132-1.2.241-1.963.241-1.963s43.072-6.924,44.8-5.356c.406.362.674,1.645.828,3.432C589.093,630.105,588.265,641.743,586.429,646.3Z" transform="translate(-282.802 -309.341)" fill="url(#linear-gradient-6)"/>
    <g id="Group_64" data-name="Group 64" transform="translate(287.34 370.311)" opacity="0.1">
      <path id="Path_184" data-name="Path 184" d="M593.15,728.441a40.155,40.155,0,0,0,6.7.049C601.625,728.139,593.15,728.441,593.15,728.441Z" transform="translate(-593.15 -728.32)" fill="url(#linear-gradient-7)"/>
    </g>
    <g id="Group_65" data-name="Group 65" transform="translate(287.691 373.21)" opacity="0.1">
      <path id="Path_185" data-name="Path 185" d="M593.79,733.609s6.578,1.14,6.907.548S593.79,733.609,593.79,733.609Z" transform="translate(-593.79 -733.609)" fill="url(#linear-gradient-8)"/>
    </g>
    <g id="Group_66" data-name="Group 66" transform="translate(267.632 372.021)" opacity="0.1">
      <path id="Path_186" data-name="Path 186" d="M557.2,731.44a18.206,18.206,0,0,1,5.252.992C564.3,733.276,557.2,731.44,557.2,731.44Z" transform="translate(-557.2 -731.44)" fill="url(#linear-gradient-9)"/>
    </g>
    <path id="Path_187" data-name="Path 187" d="M534.66,579.1s.548,10.372.252,12.2c0,0,1.2,8.388,2.193,10.52a30.218,30.218,0,0,0,3.152,4.813l2.949-20.59-.685-7.05Z" transform="translate(-279.384 -290.547)" fill="url(#linear-gradient-10)"/>
    <ellipse id="Ellipse_33" data-name="Ellipse 33" cx="11.556" cy="11.463" rx="11.556" ry="11.463" transform="translate(274.737 218.387)" fill="url(#linear-gradient-11)"/>
    <path id="Path_188" data-name="Path 188" d="M574.063,481.56s-3.6,7-7.2,10.273,21.61,7,22.208,7-4.5-14.884-3.6-16.671S574.063,481.56,574.063,481.56Z" transform="translate(-293.773 -246.349)" fill="url(#linear-gradient-12)"/>
    <g id="Group_67" data-name="Group 67" transform="translate(259.935 311.214)" opacity="0.1">
      <path id="Path_189" data-name="Path 189" d="M589.028,624.17a7.493,7.493,0,0,1-1.853,1.031c-4.6,1.787-9.6,4.27-13.009,3.289s-10.6,0-10.6,0-14.511-1.2-17.411-.5a5.624,5.624,0,0,1-2.993.077c.132-1.2.241-1.963.241-1.963s43.072-6.924,44.8-5.356C588.606,621.1,588.875,622.367,589.028,624.17Z" transform="translate(-543.16 -620.519)" fill="url(#linear-gradient-13)"/>
    </g>
    <path id="Path_190" data-name="Path 190" d="M587.658,561.645s-.4,4.934-5.005,6.748-9.6,4.27-13.009,3.289-10.6,0-10.6,0-14.511-1.2-17.411-.5-4.386-.2-3.5-1.491.806-5.553.806-7.34-1-9.034-.1-10.323,1.7-6.25,3.5-7.044a1.946,1.946,0,0,0,1.124-1.261,3.548,3.548,0,0,0,0-1.815s-.3-.247-.724-.62c-1.058-.937-2.856-2.681-2.281-3.251.8-.795,0-5.959,0-5.959s-1.9-3.969-1.2-5.455-6.1-9.319-6.1-9.319,0-13.5,8.223-14.094c0,0,5.8.2,6.5-2.379s5.3-4.073,5.3-4.073l10.5,2.286s9.319,1.984,11.008.795,3,1.584,3,1.584,5.8.3,6.4,1.491-1.9,12.8-1.9,12.8a3.5,3.5,0,0,0-3.9,4.073c.3,4.468-1.6,10.12-1.6,10.12a23.575,23.575,0,0,0-.1,3.969,12.7,12.7,0,0,1-.488,3.525v.049s-.417,1.645.126,2.253a.817.817,0,0,0,.175.132c.8.395,2,4.265,2,4.265a3.909,3.909,0,0,1,.9,2.681,10.009,10.009,0,0,0,3.1,7.543C585,556.514,587.658,561.645,587.658,561.645Z" transform="translate(-278.702 -253.391)" fill="url(#linear-gradient-14)"/>
    <path id="Path_191" data-name="Path 191" d="M541.358,554.971v.422l-.186,4.643s-6.151.493-9.506-.351-1.935-4.512-1.8-5.279h0c.1-.7,1-6.5,1-7.445s0-4.813-.148-6.578a43.3,43.3,0,0,1,.751-6.748l.647-.795,7.055,2.681Z" transform="translate(-277.032 -269.692)" fill="url(#linear-gradient-15)"/>
    <g id="Group_68" data-name="Group 68" transform="translate(252.41 284.725)" opacity="0.1">
      <path id="Path_192" data-name="Path 192" d="M541.338,573.187l-.186,4.643s-6.151.493-9.506-.351-1.935-4.512-1.8-5.279Z" transform="translate(-529.432 -572.2)" fill="url(#linear-gradient-16)"/>
    </g>
    <g id="Group_69" data-name="Group 69" transform="translate(264.058 283.991)" opacity="0.1">
      <path id="Path_193" data-name="Path 193" d="M551.4,577.192a3.546,3.546,0,0,0,0-1.815s-.3-.247-.724-.62c5.3-.729,26.281-3.591,33.353-3.9v.049s-.417,1.645.126,2.253Z" transform="translate(-550.68 -570.86)" fill="url(#linear-gradient-17)"/>
    </g>
    <g id="Group_70" data-name="Group 70" transform="translate(294.598 293.935)" opacity="0.1">
      <path id="Path_194" data-name="Path 194" d="M609.942,589s1.3,7.3-3.552,9.868A22.172,22.172,0,0,0,609.942,589Z" transform="translate(-606.39 -589)" fill="url(#linear-gradient-18)"/>
    </g>
    <g id="Group_71" data-name="Group 71" transform="translate(266.382 302.957)" opacity="0.1">
      <path id="Path_195" data-name="Path 195" d="M554.92,606.49s11.7-1.984,14.007-.45S554.92,606.49,554.92,606.49Z" transform="translate(-554.92 -605.458)" fill="url(#linear-gradient-19)"/>
    </g>
    <g id="Group_72" data-name="Group 72" transform="translate(293.143 258.784)" opacity="0.1">
      <path id="Path_196" data-name="Path 196" d="M604.686,524.88s-1.8,7.34-.449,9.029S604.686,524.88,604.686,524.88Z" transform="translate(-603.735 -524.88)" fill="url(#linear-gradient-20)"/>
    </g>
    <g id="Group_73" data-name="Group 73" transform="translate(260.12 252.776)" opacity="0.1">
      <path id="Path_197" data-name="Path 197" d="M543.554,513.92a7.236,7.236,0,0,1,.652,5.559C543.214,522.3,543.554,513.92,543.554,513.92Z" transform="translate(-543.497 -513.92)" fill="url(#linear-gradient-21)"/>
    </g>
    <path id="Path_198" data-name="Path 198" d="M537.4,557.55s2.1,1.244,1.4,3.18S537.4,557.55,537.4,557.55Z" transform="translate(-280.622 -280.856)" fill="url(#linear-gradient-22)"/>
    <g id="Group_74" data-name="Group 74" transform="translate(256.558 271.037)" opacity="0.1">
      <path id="Path_199" data-name="Path 199" d="M537,547.23s1.952,1.047,2.193,2.582S537,547.23,537,547.23Z" transform="translate(-537 -547.23)" fill="url(#linear-gradient-23)"/>
    </g>
    <g id="Group_75" data-name="Group 75" transform="translate(285.492 328.74)" opacity="0.1">
      <path id="Path_200" data-name="Path 200" d="M589.78,654.135s12.258,1.244,14.708-1.645C604.488,652.5,593.431,654.683,589.78,654.135Z" transform="translate(-589.78 -652.49)" fill="url(#linear-gradient-24)"/>
    </g>
    <g id="Group_76" data-name="Group 76" transform="translate(264.332 329.694)" opacity="0.1">
      <path id="Path_201" data-name="Path 201" d="M551.18,654.23s13.157,3.075,15.755.641C566.935,654.871,555.631,655.716,551.18,654.23Z" transform="translate(-551.18 -654.23)" fill="url(#linear-gradient-25)"/>
    </g>
    <g id="Group_77" data-name="Group 77" transform="translate(286.441 334.409)" opacity="0.1">
      <path id="Path_202" data-name="Path 202" d="M591.51,662.83s5.482,0,8.053.148S591.51,662.83,591.51,662.83Z" transform="translate(-591.51 -662.83)" fill="url(#linear-gradient-26)"/>
    </g>
    <g id="Group_78" data-name="Group 78" transform="translate(265.231 336.739)" opacity="0.1">
      <path id="Path_203" data-name="Path 203" d="M552.82,667.08s2.7,3.026,5.751,2.483S552.82,667.08,552.82,667.08Z" transform="translate(-552.82 -667.08)" fill="url(#linear-gradient-27)"/>
    </g>
    <path id="Path_204" data-name="Path 204" d="M552.347,437.978a10.1,10.1,0,0,0-1.1,4.26,17.718,17.718,0,0,1-4.8,9.424c-2.4,2.533-5.7,4.824-6.315,7.916-.587,2.938,1.409,5.762,2.456,8.618,2.741,7.538-1.1,15.437-2.22,23.216-.307,2.149.066,4.9,2.741,5.608a15.807,15.807,0,0,1,2.533.548,3.018,3.018,0,0,1,1.5,2.363,36,36,0,0,1,.685,9.72c-.121,1.831-.252,3.931,1.486,5.186a8.842,8.842,0,0,0,2.884,1.14c2.741.735,6.288,1.321,8.135-.395.778-.718,1.1-1.738,2.034-2.308,1.447-.85,3.5-.274,5.328-.186a9.676,9.676,0,0,0,8.667-4.616c1.475-2.637,1.349-5.641.8-8.481s-1.491-5.646-1.562-8.519a4.934,4.934,0,0,1,.647-2.889c1.1-1.71,3.711-2.489,5.482-3.837,3.322-2.522,3.289-6.655,2.105-10.114s-3.377-6.765-3.646-10.339a3.925,3.925,0,0,1,.493-2.5,9.747,9.747,0,0,1,2.017-1.875c4.852-4.062,4.281-10.739.269-15.306C578.518,439.529,558.4,428.62,552.347,437.978Z" transform="translate(-281.809 -225.177)" fill="url(#linear-gradient-28)"/>
    <g id="Group_79" data-name="Group 79" transform="translate(258.068 224.505)" opacity="0.1">
      <path id="Path_205" data-name="Path 205" d="M543.079,490.876a18.677,18.677,0,0,0-.762-8.947c-.548-1.442-1.3-2.878-1.853-4.32a6.132,6.132,0,0,0-.6,1.645c-.592,2.933,1.409,5.756,2.456,8.618A15.585,15.585,0,0,1,543.079,490.876Z" transform="translate(-539.754 -469.244)" fill="url(#linear-gradient-29)"/>
      <path id="Path_206" data-name="Path 206" d="M547.779,549.119a35.8,35.8,0,0,0-.691-9.72,3.026,3.026,0,0,0-1.5-2.363,14.883,14.883,0,0,0-2.538-.548,3.459,3.459,0,0,1-2.335-1.919c-.148.757-.285,1.513-.395,2.264-.312,2.149.06,4.9,2.741,5.608a16.007,16.007,0,0,1,2.538.548,3.026,3.026,0,0,1,1.5,2.363,35.7,35.7,0,0,1,.647,4.49C547.735,549.607,547.779,549.36,547.779,549.119Z" transform="translate(-539.969 -494.979)" fill="url(#linear-gradient-30)"/>
      <path id="Path_207" data-name="Path 207" d="M582.436,557.193a9.67,9.67,0,0,1-8.662,4.616c-1.826-.088-3.881-.663-5.329.186-.965.548-1.261,1.59-2.034,2.308-1.847,1.716-5.394,1.129-8.135.395a8.771,8.771,0,0,1-2.884-1.14,3.542,3.542,0,0,1-1.42-2.292c0,1.02,0,2.045-.066,3.064-.121,1.826-.252,3.925,1.486,5.181a8.772,8.772,0,0,0,2.884,1.14c2.741.74,6.288,1.321,8.135-.395.773-.718,1.1-1.732,2.034-2.3,1.447-.855,3.5-.28,5.329-.186a9.659,9.659,0,0,0,8.662-4.621c1.42-2.533,1.359-5.405.866-8.146a8.871,8.871,0,0,1-.866,2.193Z" transform="translate(-546.12 -504.209)" fill="url(#linear-gradient-31)"/>
      <path id="Path_208" data-name="Path 208" d="M615.49,466.763a9.779,9.779,0,0,0-2.023,1.875,3.93,3.93,0,0,0-.488,2.5,12.922,12.922,0,0,0,.685,3.185,13.7,13.7,0,0,1,1.826-1.606,9.577,9.577,0,0,0,3.015-10.366A9.523,9.523,0,0,1,615.49,466.763Z" transform="translate(-572.821 -462.35)" fill="url(#linear-gradient-32)"/>
      <path id="Path_209" data-name="Path 209" d="M610.754,513.015c-1.776,1.343-4.386,2.122-5.482,3.837a4.9,4.9,0,0,0-.647,2.889,19.9,19.9,0,0,0,.428,3.454,3.91,3.91,0,0,1,.219-.389c1.1-1.7,3.706-2.489,5.482-3.837,3.031-2.3,3.289-5.948,2.39-9.2A6.946,6.946,0,0,1,610.754,513.015Z" transform="translate(-569.054 -483.774)" fill="url(#linear-gradient-33)"/>
    </g>
    <path id="Path_210" data-name="Path 210" d="M640.462,513.365c-2.05,5.159-4.7,7.192-4.7,7.192h-1.475l-12.981.132-1.5-4.068,2.105-8.771,1.294.082a7.509,7.509,0,0,0,2.5.795,13.856,13.856,0,0,1,3.35.2.433.433,0,0,0,.247.033c.488-.049,1.009-.778,1.009-.778S642.512,508.2,640.462,513.365Z" transform="translate(-317.851 -258.401)" fill="url(#linear-gradient-34)"/>
    <g id="Group_80" data-name="Group 80" transform="translate(311.45 249.734)" opacity="0.1">
      <path id="Path_211" data-name="Path 211" d="M648.291,513.6c-2.05,5.159-4.7,7.192-4.7,7.192h-1.475a68.032,68.032,0,0,1,3.026-7.209c.636-.965-4.83-3.2-8.009-4.435.488-.049,1.009-.778,1.009-.778S650.342,508.436,648.291,513.6Z" transform="translate(-637.13 -508.37)" fill="url(#linear-gradient-35)"/>
    </g>
    <path id="Path_212" data-name="Path 212" d="M632.2,487.8s7.127,4.638,9.868,2.16,2.374-7.214,2.006-7.965-3.289-10.416-3.289-10.416l-5.63-14.292s-3.415-18.809-8.514-14.116,2.741,15.953,2.741,15.953,3.218,8.223,3.053,9.868,1.793,7.675,1.793,7.675Z" transform="translate(-320.162 -228.84)" fill="#efb7b9"/>
    <path id="Path_213" data-name="Path 213" d="M602.5,828.441c-.055.23-.121.471-.186.718-.669,2.286-1.924,1.771-5.614,5.537a7.379,7.379,0,0,1-7.335,2.078.894.894,0,0,1-.658-.932l.46-6.107.225-2.938s5.877,1.645,8.864-.444c.1-.071.2-.143.291-.225a.511.511,0,0,0,.082-.071,2.4,2.4,0,0,1,3.87,2.385Z" transform="translate(-303.802 -401.918)" fill="#6c63ff"/>
    <path id="Path_214" data-name="Path 214" d="M568.855,824.24c-.049.23-.115.466-.181.713-.669,2.291-1.924,1.771-5.614,5.537a7.368,7.368,0,0,1-7.335,2.078.888.888,0,0,1-.658-.932l.46-6.107.225-2.938s5.877,1.645,8.864-.444a3.393,3.393,0,0,0,.291-.219l.082-.077a2.4,2.4,0,0,1,3.865,2.39Z" transform="translate(-288.603 -400.02)" fill="#6c63ff"/>
    <path id="Path_215" data-name="Path 215" d="M562.283,828.235l.241,3.174c-3.371,3.366-7.39-1.645-8.574-3.289C557.053,829.7,562.283,828.235,562.283,828.235Z" transform="translate(-288.1 -403.099)" opacity="0.1"/>
    <path id="Path_216" data-name="Path 216" d="M598.19,829.04l.444-.291c-3.081,4.682-7.675,2.522-9.084,1.683l.225-2.938s5.877,1.645,8.864-.444C598.4,828.2,598.19,829.04,598.19,829.04Z" transform="translate(-304.184 -402.615)" opacity="0.1"/>
    <path id="Path_217" data-name="Path 217" d="M586.591,647.889c-2.363,5.9-4.726,25.689-5.016,27.958s-.225,11.66-.225,11.66l-.592,23.025c-.071,2.878-2.193,10.114-2.193,10.114s-.735,6.03-.367,8.048-.959,7.236-.959,7.236l.444-.3c-3.689,5.608-9.522,1.4-9.522,1.4s-1.4-6.792.071-8.492-.515-6.94-.515-6.94.74-27.24.959-28.506-.888-5.093-1.919-8.267.592-15.728.959-18.014-.148-12.7-.515-14.84.439-11.074.439-11.074c-1.475-4.43-2.653-.444-2.653-.444L563.8,652.05l-1.277,23.8s.148,7.231-.959,9.319-2.061,7.357-2.061,7.357l.515,26.862a67.3,67.3,0,0,0,.3,7.752c.367,2.138-.811,7.675-.811,7.675-4.133,9.742-10.778-.811-10.778-.811s.3-1.645.883-1.847-.219-4.21-.663-4.873.077-5.482.077-5.482-.548-4.358-1.332-9.6-.587-25.469-.071-26.725.959-7.088.959-7.088a14.479,14.479,0,0,1,.148-5.685c.74-2.363-1.771-12.329-1.771-13.436s-.959-7.971-1.48-8.711a4.386,4.386,0,0,1-.515-2.067,32.578,32.578,0,0,0-1.327-5.9c-.916-3.234-.378-9.61,0-12.822.132-1.19.241-1.946.241-1.946s42.376-6.863,44.075-5.312c.395.362.663,1.645.811,3.4C589.217,631.794,588.406,643.333,586.591,647.889Z" transform="translate(-283.211 -310.098)" fill="#444053"/>
    <path id="Path_218" data-name="Path 218" d="M593.19,729.4a39.33,39.33,0,0,0,6.578.049C601.473,729.107,593.19,729.4,593.19,729.4Z" transform="translate(-305.828 -358.445)" opacity="0.1"/>
    <path id="Path_219" data-name="Path 219" d="M593.82,734.53s6.447,1.135,6.792.548S593.82,734.53,593.82,734.53Z" transform="translate(-306.113 -360.815)" opacity="0.1"/>
    <path id="Path_220" data-name="Path 220" d="M557.82,732.38a17.86,17.86,0,0,1,5.164.981C564.8,734.195,557.82,732.38,557.82,732.38Z" transform="translate(-289.848 -359.844)" opacity="0.1"/>
    <path id="Path_221" data-name="Path 221" d="M535.64,581.289s.548,10.284.247,12.1c0,0,1.184,8.322,2.165,10.416a30.19,30.19,0,0,0,3.1,4.775l2.905-20.4-.685-6.99Z" transform="translate(-279.827 -291.536)" fill="#efb7b9"/>
    <circle id="Ellipse_34" data-name="Ellipse 34" cx="11.37" cy="11.37" r="11.37" transform="translate(274.961 220.158)" fill="#efb7b9"/>
    <path id="Path_222" data-name="Path 222" d="M574.4,484.54s-3.541,6.935-7.088,10.186,21.265,6.94,21.857,6.94-4.43-14.769-3.547-16.539S574.4,484.54,574.4,484.54Z" transform="translate(-293.981 -247.695)" fill="#efb7b9"/>
    <path id="Path_223" data-name="Path 223" d="M589.128,625.993a7.428,7.428,0,0,1-1.82,1.025c-4.528,1.771-9.451,4.232-12.8,3.245s-10.416,0-10.416,0-14.253-1.179-17.126-.493a5.521,5.521,0,0,1-2.966.06c.132-1.19.241-1.946.241-1.946s42.376-6.863,44.075-5.312C588.711,622.934,588.98,624.189,589.128,625.993Z" transform="translate(-283.604 -310.129)" opacity="0.1"/>
    <path id="Path_224" data-name="Path 224" d="M587.783,563.945s-.395,4.934-4.934,6.694-9.451,4.232-12.8,3.251-10.416,0-10.416,0-14.253-1.184-17.126-.493-4.331-.2-3.448-1.48.789-5.482.789-7.28-.987-8.958-.1-10.24,1.645-6.2,3.448-6.99a1.918,1.918,0,0,0,1.1-1.25,3.6,3.6,0,0,0,0-1.8s-.3-.247-.713-.614c-1.042-.932-2.807-2.659-2.237-3.223.784-.789,0-5.91,0-5.91s-1.875-3.936-1.184-5.411-6.03-9.254-6.03-9.254,0-13.387,8.075-13.979c0,0,5.707.2,6.4-2.363s5.219-4.035,5.219-4.035l10.334,2.264s9.155,1.968,10.827.789,2.933,1.568,2.933,1.568,5.707.3,6.3,1.475-1.869,12.7-1.869,12.7a3.452,3.452,0,0,0-3.837,4.04c.3,4.43-1.579,10.038-1.579,10.038a23.735,23.735,0,0,0-.1,3.936,12.874,12.874,0,0,1-.477,3.5v.049s-.406,1.645.126,2.231a.547.547,0,0,0,.17.132c.789.389,1.974,4.232,1.974,4.232a3.886,3.886,0,0,1,.883,2.653,9.956,9.956,0,0,0,3.054,7.483C585.118,558.82,587.783,563.945,587.783,563.945Z" transform="translate(-279.145 -254.66)" fill="#6c63ff"/>
    <path id="Path_225" data-name="Path 225" d="M542.267,557.332v.417l-.181,4.6s-6.03.493-9.319-.345-1.908-4.473-1.782-5.235c.1-.691.987-6.452.987-7.384s0-4.775-.148-6.546a42.809,42.809,0,0,1,.735-6.694l.641-.789,6.94,2.659Z" transform="translate(-277.546 -270.83)" fill="#6c63ff"/>
    <path id="Path_226" data-name="Path 226" d="M542.237,575.4l-.181,4.6s-6.03.493-9.319-.345-1.908-4.473-1.782-5.235Z" transform="translate(-277.532 -288.478)" opacity="0.1"/>
    <path id="Path_227" data-name="Path 227" d="M552.073,579.409a3.6,3.6,0,0,0,0-1.8s-.3-.247-.713-.614c5.219-.724,25.859-3.558,32.815-3.837v.049s-.406,1.645.126,2.231Z" transform="translate(-286.929 -287.908)" opacity="0.1"/>
    <path id="Path_228" data-name="Path 228" d="M609.7,591.06s1.283,7.236-3.492,9.8A21.972,21.972,0,0,0,609.7,591.06Z" transform="translate(-311.711 -295.996)" opacity="0.1"/>
    <path id="Path_229" data-name="Path 229" d="M555.57,608.447s11.512-1.968,13.782-.444S555.57,608.447,555.57,608.447Z" transform="translate(-288.832 -303.389)" opacity="0.1"/>
    <path id="Path_230" data-name="Path 230" d="M604.538,527.5s-1.771,7.286-.444,8.958S604.538,527.5,604.538,527.5Z" transform="translate(-310.532 -267.279)" opacity="0.1"/>
    <path id="Path_231" data-name="Path 231" d="M544.388,516.64a7.069,7.069,0,0,1,.641,5.509C544.026,524.956,544.388,516.64,544.388,516.64Z" transform="translate(-283.751 -262.373)" opacity="0.1"/>
    <path id="Path_232" data-name="Path 232" d="M538.34,559.91s2.067,1.233,1.376,3.152S538.34,559.91,538.34,559.91Z" transform="translate(-281.047 -281.922)" fill="#6c63ff"/>
    <path id="Path_233" data-name="Path 233" d="M538,549.68s1.919,1.031,2.165,2.555S538,549.68,538,549.68Z" transform="translate(-280.893 -277.3)" opacity="0.1"/>
    <path id="Path_234" data-name="Path 234" d="M589.87,655.695s12.06,1.234,14.467-1.645C604.337,654.072,593.461,656.215,589.87,655.695Z" transform="translate(-304.328 -324.454)" opacity="0.1"/>
    <path id="Path_235" data-name="Path 235" d="M551.89,655.79s12.943,3.054,15.5.641C567.393,656.453,556.27,657.27,551.89,655.79Z" transform="translate(-287.169 -325.24)" opacity="0.1"/>
    <path id="Path_236" data-name="Path 236" d="M591.57,664.32s5.416,0,7.927.148S591.57,664.32,591.57,664.32Z" transform="translate(-305.096 -329.094)" opacity="0.1"/>
    <path id="Path_237" data-name="Path 237" d="M553.51,668.54s2.659,3,5.657,2.461S553.51,668.54,553.51,668.54Z" transform="translate(-287.901 -331.001)" opacity="0.1"/>
    <path id="Path_238" data-name="Path 238" d="M553,441.277c-.833,1.294-.861,2.79-1.1,4.227a17.619,17.619,0,0,1-4.725,9.319c-2.357,2.511-5.6,4.786-6.211,7.85-.576,2.911,1.387,5.712,2.418,8.546,2.741,7.472-1.1,15.311-2.193,23.024-.307,2.133.06,4.857,2.686,5.564a14.439,14.439,0,0,1,2.5.548,2.993,2.993,0,0,1,1.469,2.341,35.891,35.891,0,0,1,.68,9.643c-.121,1.815-.252,3.9,1.458,5.148a8.826,8.826,0,0,0,2.84,1.129c2.7.729,6.184,1.3,8-.395.762-.713,1.047-1.721,2-2.286,1.425-.844,3.448-.274,5.241-.186a9.5,9.5,0,0,0,8.524-4.577c1.453-2.62,1.327-5.592.789-8.409s-1.469-5.6-1.535-8.453a4.884,4.884,0,0,1,.636-2.862c1.1-1.7,3.646-2.472,5.394-3.8,3.289-2.5,3.256-6.578,2.072-10.032s-3.328-6.71-3.591-10.257a3.931,3.931,0,0,1,.482-2.478,9.967,9.967,0,0,1,2.034-1.815c4.775-4.029,4.21-10.652.263-15.18C578.763,442.839,558.973,432.023,553,441.277Z" transform="translate(-282.186 -226.688)" fill="#e3787d"/>
    <g id="Group_81" data-name="Group 81" transform="translate(258.56 226.227)" opacity="0.1">
      <path id="Path_239" data-name="Path 239" d="M543.929,493.777a18.732,18.732,0,0,0-.757-8.875c-.515-1.431-1.272-2.851-1.826-4.281a6.389,6.389,0,0,0-.592,1.645c-.576,2.911,1.387,5.712,2.418,8.546a15.354,15.354,0,0,1,.757,2.966Z" transform="translate(-540.651 -472.326)"/>
      <path id="Path_240" data-name="Path 240" d="M548.53,551.544a35.894,35.894,0,0,0-.68-9.643,2.993,2.993,0,0,0-1.469-2.341,14.44,14.44,0,0,0-2.5-.548,3.431,3.431,0,0,1-2.3-1.9c-.148.746-.28,1.5-.389,2.242-.307,2.132.06,4.857,2.686,5.564a14.44,14.44,0,0,1,2.5.548,3,3,0,0,1,1.469,2.346,36.111,36.111,0,0,1,.636,4.451C548.5,552.021,548.513,551.78,548.53,551.544Z" transform="translate(-540.856 -497.848)"/>
      <path id="Path_241" data-name="Path 241" d="M582.665,559.516a9.495,9.495,0,0,1-8.524,4.577c-1.793-.088-3.837-.658-5.241.186-.948.548-1.239,1.573-2,2.286-1.82,1.7-5.307,1.124-8,.395a8.633,8.633,0,0,1-2.834-1.135,3.574,3.574,0,0,1-1.4-2.27c0,1.009,0,2.023-.06,3.032-.121,1.815-.252,3.9,1.464,5.148a8.772,8.772,0,0,0,2.834,1.129c2.7.729,6.184,1.3,8-.389.762-.718,1.052-1.727,2-2.292,1.425-.844,3.448-.274,5.241-.186a9.495,9.495,0,0,0,8.524-4.577c1.4-2.516,1.338-5.362.85-8.081A8.922,8.922,0,0,1,582.665,559.516Z" transform="translate(-546.923 -506.988)"/>
      <path id="Path_242" data-name="Path 242" d="M615.163,469.865a9.66,9.66,0,0,0-1.99,1.858,3.93,3.93,0,0,0-.482,2.478,13.254,13.254,0,0,0,.68,3.163,12.954,12.954,0,0,1,1.793-1.6,9.565,9.565,0,0,0,2.966-10.279,9.418,9.418,0,0,1-2.966,4.375Z" transform="translate(-573.182 -465.49)"/>
      <path id="Path_243" data-name="Path 243" d="M610.506,515.738c-1.749,1.332-4.3,2.105-5.394,3.8a4.934,4.934,0,0,0-.636,2.867,20.117,20.117,0,0,0,.422,3.426,2.641,2.641,0,0,1,.214-.384c1.1-1.7,3.646-2.472,5.394-3.8,2.982-2.286,3.234-5.9,2.352-9.122A6.928,6.928,0,0,1,610.506,515.738Z" transform="translate(-569.479 -486.738)"/>
    </g>
    <path id="Path_244" data-name="Path 244" d="M639.737,516.068c-2.017,5.12-4.632,7.127-4.632,7.127h-1.453l-12.768.132-1.475-4.035,2.067-8.711,1.277.049a7.369,7.369,0,0,0,2.461.789,13.383,13.383,0,0,1,3.289.2.455.455,0,0,0,.241.033c.482-.049.987-.773.987-.773S641.749,510.947,639.737,516.068Z" transform="translate(-317.674 -259.635)" fill="#6c63ff"/>
    <path id="Path_245" data-name="Path 245" d="M647.44,516.339c-2.017,5.12-4.632,7.127-4.632,7.127h-1.453a66.835,66.835,0,0,1,2.982-7.127c.625-.937-4.753-3.174-7.878-4.386.482-.049.987-.773.987-.773S649.452,511.218,647.44,516.339Z" transform="translate(-325.378 -259.906)" opacity="0.1"/>
  </g>
</svg>
