<?xml version="1.0" encoding="UTF-8" standalone="no"?>
<!DOCTYPE svg PUBLIC "-//W3C//DTD SVG 1.1//EN" "http://www.w3.org/Graphics/SVG/1.1/DTD/svg11.dtd">
<svg version="1.1" xmlns="http://www.w3.org/2000/svg" xmlns:xlink="http://www.w3.org/1999/xlink" preserveAspectRatio="xMidYMid meet" viewBox="0 0 640 640" width="640" height="640"><defs><path d="M720 -11.34C720 -11.34 720 -11.34 720 -11.34C720 382.96 720 602.01 720 645.82C720 645.82 720 645.82 720 645.82C240 645.82 -26.67 645.82 -80 645.82C-80 645.82 -80 645.82 -80 645.82C-80 251.52 -80 32.47 -80 -11.34C-80 -11.34 -80 -11.34 -80 -11.34C400 -11.34 666.67 -11.34 720 -11.34Z" id="a1aglvhoLW"></path><path d="M557.51 -662.79C447.61 -710.99 413.51 -850.29 230.51 -817.29C47.51 -784.29 13.01 -925.29 13.01 -925.29C59.51 -925.29 292.01 -925.29 710.51 -925.29L710.51 -683.79C666.18 -644.53 615.18 -637.53 557.51 -662.79Z" id="auxHmYZLj"></path><path d="M-35.75 -447.53C4.75 -370.63 38.05 -294.53 117.85 -304.63C225.25 -318.13 231.05 -523.13 312.25 -534.13C393.25 -545.13 411.25 -402.13 496.75 -402.13C582.25 -402.13 578.45 -550.63 663.55 -550.63C663.55 -556.53 663.55 -586.03 663.55 -639.13L-40.45 -639.13L-40.45 -455.93C-38.38 -452.26 -36.82 -449.46 -35.75 -447.53Z" id="a16Oy1kpL2"></path><path d="M789.6 96.1C789.6 96.3 789.6 96.4 789.6 96.6C789.8 97.5 790.5 98.3 791.5 98.5C791.7 98.5 791.8 98.5 792 98.5C792.2 98.5 792.3 98.5 792.5 98.5C793.4 98.3 794.2 97.6 794.4 96.6C794.4 96.4 794.4 96.3 794.4 96.1C794.4 94.8 793.3 93.7 792 93.7C790.7 93.7 789.6 94.8 789.6 96.1Z" id="i5D5snIFG"></path><path d="M792 69.7C790.67 69.7 789.6 70.77 789.6 72.1C789.6 73.43 790.67 74.5 792 74.5C793.33 74.5 794.4 73.43 794.4 72.1C794.4 70.77 793.33 69.7 792 69.7Z" id="boYdwCJ63"></path><path d="M789.6 144.1C789.6 144.3 789.6 144.4 789.6 144.6C789.8 145.5 790.5 146.3 791.5 146.5C791.7 146.5 791.8 146.5 792 146.5C792.2 146.5 792.3 146.5 792.5 146.5C793.4 146.3 794.2 145.6 794.4 144.6C794.4 144.4 794.4 144.3 794.4 144.1C794.4 142.8 793.3 141.7 792 141.7C790.7 141.7 789.6 142.8 789.6 144.1Z" id="a4g9yDuA3e"></path><path d="M792 117.7C790.67 117.7 789.6 118.77 789.6 120.1C789.6 121.43 790.67 122.5 792 122.5C793.33 122.5 794.4 121.43 794.4 120.1C794.4 118.77 793.33 117.7 792 117.7Z" id="gSNGEFlJj"></path><path d="M792 189.7C790.67 189.7 789.6 190.77 789.6 192.1C789.6 193.43 790.67 194.5 792 194.5C793.33 194.5 794.4 193.43 794.4 192.1C794.4 190.77 793.33 189.7 792 189.7Z" id="caniFgvxe"></path><path d="M794.4 0.1C793.92 0.1 790.08 0.1 789.6 0.1C789.6 1.4 790.7 2.5 792 2.5C793.3 2.5 794.4 1.4 794.4 0.1Z" id="c2QOtfr9Z"></path><path d="M792 165.7C790.67 165.7 789.6 166.77 789.6 168.1C789.6 169.43 790.67 170.5 792 170.5C793.33 170.5 794.4 169.43 794.4 168.1C794.4 166.77 793.33 165.7 792 165.7Z" id="j3oiQhHQ9d"></path><path d="M790 238.8C789.7 239.2 789.6 239.6 789.6 240.1C789.6 241.4 790.7 242.5 792 242.5C793.3 242.5 794.4 241.4 794.4 240.1C794.4 239.6 794.2 239.1 794 238.8C793.6 238.1 792.8 237.7 792 237.7C791.2 237.7 790.4 238.1 790 238.8Z" id="b3ZdSaftPL"></path><path d="M792 45.7C790.67 45.7 789.6 46.77 789.6 48.1C789.6 49.43 790.67 50.5 792 50.5C793.33 50.5 794.4 49.43 794.4 48.1C794.4 46.77 793.33 45.7 792 45.7Z" id="bWcQ4qLQN"></path><path d="M792 21.7C790.67 21.7 789.6 22.77 789.6 24.1C789.6 25.43 790.67 26.5 792 26.5C793.33 26.5 794.4 25.43 794.4 24.1C794.4 22.77 793.33 21.7 792 21.7Z" id="abF5ScINs"></path><path d="M792 213.7C790.67 213.7 789.6 214.77 789.6 216.1C789.6 217.43 790.67 218.5 792 218.5C793.33 218.5 794.4 217.43 794.4 216.1C794.4 214.77 793.33 213.7 792 213.7Z" id="d1l8UkGNEx"></path><path d="M792 261.7C790.67 261.7 789.6 262.77 789.6 264.1C789.6 265.43 790.67 266.5 792 266.5C793.33 266.5 794.4 265.43 794.4 264.1C794.4 262.77 793.33 261.7 792 261.7Z" id="b2tAeej6Z6"></path><path d="M217.6 -50.29C216.27 -50.29 215.2 -49.22 215.2 -47.89C215.2 -46.56 216.27 -45.49 217.6 -45.49C218.93 -45.49 220 -46.56 220 -47.89C220 -49.22 218.93 -50.29 217.6 -50.29Z" id="f7828SQFlD"></path><path d="M307.55 -680.63C306.22 -680.63 305.15 -679.55 305.15 -678.23C305.15 -676.9 306.22 -675.83 307.55 -675.83C308.88 -675.83 309.95 -676.9 309.95 -678.23C309.95 -679.55 308.88 -680.63 307.55 -680.63Z" id="boWvCPGqe"></path><path d="M307.55 -704.63C306.22 -704.63 305.15 -703.55 305.15 -702.23C305.15 -700.9 306.22 -699.83 307.55 -699.83C308.88 -699.83 309.95 -700.9 309.95 -702.23C309.95 -703.55 308.88 -704.63 307.55 -704.63Z" id="b1JVBaBmBD"></path><path d="M295.55 -668.63C294.22 -668.63 293.15 -667.55 293.15 -666.23C293.15 -664.9 294.22 -663.83 295.55 -663.83C296.88 -663.83 297.95 -664.9 297.95 -666.23C297.95 -667.55 296.88 -668.63 295.55 -668.63Z" id="gMYW2TpDj"></path><path d="M295.55 -692.63C294.22 -692.63 293.15 -691.55 293.15 -690.23C293.15 -688.9 294.22 -687.83 295.55 -687.83C296.88 -687.83 297.95 -688.9 297.95 -690.23C297.95 -691.55 296.88 -692.63 295.55 -692.63Z" id="bxvQTR5aF"></path><path d="M307.55 -632.63C306.22 -632.63 305.15 -631.55 305.15 -630.23C305.15 -628.9 306.22 -627.83 307.55 -627.83C308.88 -627.83 309.95 -628.9 309.95 -630.23C309.95 -631.55 308.88 -632.63 307.55 -632.63Z" id="a63W3ZbSK"></path><path d="M307.55 -656.63C306.22 -656.63 305.15 -655.55 305.15 -654.23C305.15 -652.9 306.22 -651.83 307.55 -651.83C308.88 -651.83 309.95 -652.9 309.95 -654.23C309.95 -655.55 308.88 -656.63 307.55 -656.63Z" id="d2hAxLJkLT"></path><path d="M295.55 -644.63C294.22 -644.63 293.15 -643.55 293.15 -642.23C293.15 -640.9 294.22 -639.83 295.55 -639.83C296.88 -639.83 297.95 -640.9 297.95 -642.23C297.95 -643.55 296.88 -644.63 295.55 -644.63Z" id="f5Iz9Y7kRV"></path><path d="M271.55 -668.63C270.22 -668.63 269.15 -667.55 269.15 -666.23C269.15 -664.9 270.22 -663.83 271.55 -663.83C272.88 -663.83 273.95 -664.9 273.95 -666.23C273.95 -667.55 272.88 -668.63 271.55 -668.63Z" id="a2hbKE700M"></path><path d="M271.55 -692.63C270.22 -692.63 269.15 -691.55 269.15 -690.23C269.15 -688.9 270.22 -687.83 271.55 -687.83C272.88 -687.83 273.95 -688.9 273.95 -690.23C273.95 -691.55 272.88 -692.63 271.55 -692.63Z" id="aNcDDObkX"></path><path d="M283.55 -680.63C282.22 -680.63 281.15 -679.55 281.15 -678.23C281.15 -676.9 282.22 -675.83 283.55 -675.83C284.88 -675.83 285.95 -676.9 285.95 -678.23C285.95 -679.55 284.88 -680.63 283.55 -680.63Z" id="i2UmJ1gPqO"></path><path d="M259.55 -680.63C258.22 -680.63 257.15 -679.55 257.15 -678.23C257.15 -676.9 258.22 -675.83 259.55 -675.83C260.88 -675.83 261.95 -676.9 261.95 -678.23C261.95 -679.55 260.88 -680.63 259.55 -680.63Z" id="aN5KL57oF"></path><path d="M283.55 -704.63C282.22 -704.63 281.15 -703.55 281.15 -702.23C281.15 -700.9 282.22 -699.83 283.55 -699.83C284.88 -699.83 285.95 -700.9 285.95 -702.23C285.95 -703.55 284.88 -704.63 283.55 -704.63Z" id="a5OMCjMnas"></path><path d="M259.55 -704.63C258.22 -704.63 257.15 -703.55 257.15 -702.23C257.15 -700.9 258.22 -699.83 259.55 -699.83C260.88 -699.83 261.95 -700.9 261.95 -702.23C261.95 -703.55 260.88 -704.63 259.55 -704.63Z" id="haIWP8EC2"></path><path d="M273.95 -714.23C273.47 -714.23 269.63 -714.23 269.15 -714.23C269.15 -712.93 270.25 -711.83 271.55 -711.83C272.85 -711.83 273.95 -712.93 273.95 -714.23Z" id="c46Zje8vf"></path><path d="M295.55 -711.83C296.85 -711.83 297.95 -712.93 297.95 -714.23C297.79 -714.23 296.99 -714.23 295.55 -714.23L293.15 -714.23C293.88 -712.63 294.68 -711.83 295.55 -711.83Z" id="a1Ex0TCYkg"></path><path d="M271.55 -644.63C270.22 -644.63 269.15 -643.55 269.15 -642.23C269.15 -640.9 270.22 -639.83 271.55 -639.83C272.88 -639.83 273.95 -640.9 273.95 -642.23C273.95 -643.55 272.88 -644.63 271.55 -644.63Z" id="aaoaqcCgM"></path><path d="M283.55 -632.63C282.22 -632.63 281.15 -631.55 281.15 -630.23C281.15 -628.9 282.22 -627.83 283.55 -627.83C284.88 -627.83 285.95 -628.9 285.95 -630.23C285.95 -631.55 284.88 -632.63 283.55 -632.63Z" id="alp5Mm42"></path><path d="M259.55 -632.63C258.22 -632.63 257.15 -631.55 257.15 -630.23C257.15 -628.9 258.22 -627.83 259.55 -627.83C260.88 -627.83 261.95 -628.9 261.95 -630.23C261.95 -631.55 260.88 -632.63 259.55 -632.63Z" id="ajw8UrZem"></path><path d="M283.55 -656.63C282.22 -656.63 281.15 -655.55 281.15 -654.23C281.15 -652.9 282.22 -651.83 283.55 -651.83C284.88 -651.83 285.95 -652.9 285.95 -654.23C285.95 -655.55 284.88 -656.63 283.55 -656.63Z" id="d8QWvXOF8O"></path><path d="M259.55 -656.63C258.22 -656.63 257.15 -655.55 257.15 -654.23C257.15 -652.9 258.22 -651.83 259.55 -651.83C260.88 -651.83 261.95 -652.9 261.95 -654.23C261.95 -655.55 260.88 -656.63 259.55 -656.63Z" id="h16tRh8yu4"></path><path d="M567.1 -63.54C565.99 -63.54 560.42 -63.54 550.4 -63.54L550.4 -59.94L564.9 -59.94C565.9 -61.54 566.64 -62.74 567.1 -63.54Z" id="e2nq3h7RCF"></path><path d="M112.55 -451.73C205.55 -468.23 256.55 -639.23 439.55 -606.23C622.55 -573.23 657.05 -714.23 657.05 -714.23C610.55 -714.23 378.05 -714.23 -40.45 -714.23L-40.45 -472.73C-0.45 -447.73 50.55 -440.73 112.55 -451.73Z" id="h17zA2C1X7"></path><path d="M194.4 0.1C194.28 0.1 193.32 0.1 193.2 0.1C193.2 0.1 193.6 0.2 194.4 0.5C194.4 0.4 194.4 0.2 194.4 0.1Z" id="d52tYDNCX"></path><path d="M-20.04 179.61C-17.5 179.83 -14.85 180.04 -12.09 180.04C52.04 180.04 82.24 144.94 125.17 31.64C133.65 9.09 143.72 -9.53 153.37 -24.42C141.81 -24.42 84 -24.42 -20.04 -24.42C-20.04 98 -20.04 166.01 -20.04 179.61Z" id="j1qOIgndfz"></path><path d="M384.02 -87.17C384.72 -88.37 385.32 -89.57 386.02 -90.77C385.38 -90.77 382.18 -90.77 376.42 -90.77L376.42 -87.17C380.98 -87.17 383.51 -87.17 384.02 -87.17Z" id="a2VGWhZJx"></path><path d="M67.55 -628.63C137.65 -611.93 180.25 -535.63 288.05 -546.13C419.55 -558.93 468.05 -714.23 468.05 -714.23C434.15 -714.23 264.65 -714.23 -40.45 -714.23L-40.45 -606.13C-6.32 -630.13 29.68 -637.63 67.55 -628.63Z" id="dcbQCdM3F"></path><path d="M144.3 16.3C144.3 16.3 144.3 16.3 144.3 16.3C144.3 18.46 144.3 19.66 144.3 19.9C144.3 19.9 144.3 19.9 144.3 19.9C144.12 19.9 144.02 19.9 144 19.9C144 19.9 144 19.9 144 19.9C144 17.74 144 16.54 144 16.3C144 16.3 144 16.3 144 16.3C144.18 16.3 144.28 16.3 144.3 16.3Z" id="baI2bvroh"></path><path d="M144.3 4.3C144.3 4.3 144.3 4.3 144.3 4.3C144.3 6.46 144.3 7.66 144.3 7.9C144.3 7.9 144.3 7.9 144.3 7.9C144.12 7.9 144.02 7.9 144 7.9C144 7.9 144 7.9 144 7.9C144 5.74 144 4.54 144 4.3C144 4.3 144 4.3 144 4.3C144.18 4.3 144.28 4.3 144.3 4.3Z" id="iKabBt5qv"></path><path d="M274.8 -97.23C271.44 -97.23 254.64 -97.23 224.4 -97.23L224.4 -93.63L273.2 -93.63C273.87 -95.23 274.4 -96.43 274.8 -97.23Z" id="gdxdSzGis"></path><path d="M0.3 184.3C0.3 184.3 0.3 184.3 0.3 184.3C0.3 186.46 0.3 187.66 0.3 187.9C0.3 187.9 0.3 187.9 0.3 187.9C0.12 187.9 0.02 187.9 0 187.9C0 187.9 0 187.9 0 187.9C0 185.74 0 184.54 0 184.3C0 184.3 0 184.3 0 184.3C0.18 184.3 0.28 184.3 0.3 184.3Z" id="f8s5fhezqN"></path><path d="M0.3 160.3C0.3 160.3 0.3 160.3 0.3 160.3C0.3 162.46 0.3 163.66 0.3 163.9C0.3 163.9 0.3 163.9 0.3 163.9C0.12 163.9 0.02 163.9 0 163.9C0 163.9 0 163.9 0 163.9C0 161.74 0 160.54 0 160.3C0 160.3 0 160.3 0 160.3C0.18 160.3 0.28 160.3 0.3 160.3Z" id="f4uQwuelGJ"></path><path d="M0.3 172.3C0.3 172.3 0.3 172.3 0.3 172.3C0.3 174.46 0.3 175.66 0.3 175.9C0.3 175.9 0.3 175.9 0.3 175.9C0.12 175.9 0.02 175.9 0 175.9C0 175.9 0 175.9 0 175.9C0 173.74 0 172.54 0 172.3C0 172.3 0 172.3 0 172.3C0.18 172.3 0.28 172.3 0.3 172.3Z" id="b35SRoJWRs"></path><path d="M704.87 -24.52C704.87 369.78 704.87 588.83 704.87 632.64C704.87 632.64 704.87 632.64 704.87 632.64C224.87 632.64 -41.79 632.64 -95.13 632.64C-95.13 632.64 -95.13 632.64 -95.13 632.64C-95.13 238.34 -95.13 19.29 -95.13 -24.52C-95.13 -24.52 -95.13 -24.52 -95.13 -24.52C384.87 -24.52 651.54 -24.52 704.87 -24.52C704.87 -24.52 704.87 -24.52 704.87 -24.52Z" id="a1iIGVjjNr"></path><path d="M266.37 500.36C152.43 541.3 121.71 353.92 -23.45 442.98C-23.38 461.58 -23.02 554.62 -22.38 722.08C38.3 721.85 523.74 719.98 584.42 719.74C533.41 701.01 494.94 665.15 469 612.19C430.1 532.74 375.52 461.15 266.37 500.36Z" id="a7F2AGAZC7"></path><path d="M218.25 -830.37C35.25 -797.37 0.75 -938.37 0.75 -938.37C47.25 -938.37 279.75 -938.37 698.25 -938.37C698.25 -914.22 698.25 -721.02 698.25 -696.87C653.92 -657.61 602.92 -650.61 545.25 -675.87C435.35 -724.07 401.25 -863.37 218.25 -830.37Z" id="dTVJBHp0T"></path><path d="M218.25 -830.37C35.25 -797.37 0.75 -938.37 0.75 -938.37C47.25 -938.37 279.75 -938.37 698.25 -938.37C698.25 -914.22 698.25 -721.02 698.25 -696.87C653.92 -657.61 602.92 -650.61 545.25 -675.87C435.35 -724.07 401.25 -863.37 218.25 -830.37Z" id="c1euGOAIAo"></path><path d="M105.59 -317.71C212.99 -331.21 218.79 -536.21 299.99 -547.21C380.99 -558.21 398.99 -415.21 484.49 -415.21C569.99 -415.21 566.19 -563.71 651.29 -563.71C651.29 -569.61 651.29 -599.11 651.29 -652.21C604.36 -652.21 369.69 -652.21 -52.71 -652.21C-52.71 -542.29 -52.71 -481.22 -52.71 -469.01C-50.64 -465.34 -49.08 -462.54 -48.01 -460.61C-7.51 -383.71 25.79 -307.61 105.59 -317.71Z" id="e2GRGdAiiw"></path><path d="M105.59 -317.71C212.99 -331.21 218.79 -536.21 299.99 -547.21C380.99 -558.21 398.99 -415.21 484.49 -415.21C569.99 -415.21 566.19 -563.71 651.29 -563.71C651.29 -569.61 651.29 -599.11 651.29 -652.21C604.36 -652.21 369.69 -652.21 -52.71 -652.21C-52.71 -542.29 -52.71 -481.22 -52.71 -469.01C-50.64 -465.34 -49.08 -462.54 -48.01 -460.61C-7.51 -383.71 25.79 -307.61 105.59 -317.71Z" id="a36b35ERKa"></path><path d="M777.34 83.52C777.54 84.42 778.24 85.22 779.24 85.42C779.44 85.42 779.54 85.42 779.74 85.42C779.94 85.42 780.04 85.42 780.24 85.42C781.14 85.22 781.94 84.52 782.14 83.52C782.14 83.32 782.14 83.22 782.14 83.02C782.14 81.72 781.04 80.62 779.74 80.62C778.44 80.62 777.34 81.72 777.34 83.02C777.34 83.22 777.34 83.32 777.34 83.52Z" id="a2ByIQmyDr"></path><path d="M777.34 83.52C777.54 84.42 778.24 85.22 779.24 85.42C779.44 85.42 779.54 85.42 779.74 85.42C779.94 85.42 780.04 85.42 780.24 85.42C781.14 85.22 781.94 84.52 782.14 83.52C782.14 83.32 782.14 83.22 782.14 83.02C782.14 81.72 781.04 80.62 779.74 80.62C778.44 80.62 777.34 81.72 777.34 83.02C777.34 83.22 777.34 83.32 777.34 83.52Z" id="d3wHEShhqW"></path><path d="M777.34 59.02C777.34 60.35 778.41 61.42 779.74 61.42C781.07 61.42 782.14 60.35 782.14 59.02C782.14 57.69 781.07 56.62 779.74 56.62C778.41 56.62 777.34 57.69 777.34 59.02Z" id="a2Ooylzrw1"></path><path d="M777.34 59.02C777.34 60.35 778.41 61.42 779.74 61.42C781.07 61.42 782.14 60.35 782.14 59.02C782.14 57.69 781.07 56.62 779.74 56.62C778.41 56.62 777.34 57.69 777.34 59.02Z" id="a3RRALnknt"></path><path d="M777.34 131.52C777.54 132.42 778.24 133.22 779.24 133.42C779.44 133.42 779.54 133.42 779.74 133.42C779.94 133.42 780.04 133.42 780.24 133.42C781.14 133.22 781.94 132.52 782.14 131.52C782.14 131.32 782.14 131.22 782.14 131.02C782.14 129.72 781.04 128.62 779.74 128.62C778.44 128.62 777.34 129.72 777.34 131.02C777.34 131.22 777.34 131.32 777.34 131.52Z" id="a4ThPevzmk"></path><path d="M777.34 131.52C777.54 132.42 778.24 133.22 779.24 133.42C779.44 133.42 779.54 133.42 779.74 133.42C779.94 133.42 780.04 133.42 780.24 133.42C781.14 133.22 781.94 132.52 782.14 131.52C782.14 131.32 782.14 131.22 782.14 131.02C782.14 129.72 781.04 128.62 779.74 128.62C778.44 128.62 777.34 129.72 777.34 131.02C777.34 131.22 777.34 131.32 777.34 131.52Z" id="a4VA7jkQ"></path><path d="M777.34 107.02C777.34 108.35 778.41 109.42 779.74 109.42C781.07 109.42 782.14 108.35 782.14 107.02C782.14 105.69 781.07 104.62 779.74 104.62C778.41 104.62 777.34 105.69 777.34 107.02Z" id="e1Wy77Ps9H"></path><path d="M777.34 107.02C777.34 108.35 778.41 109.42 779.74 109.42C781.07 109.42 782.14 108.35 782.14 107.02C782.14 105.69 781.07 104.62 779.74 104.62C778.41 104.62 777.34 105.69 777.34 107.02Z" id="e4rfsmOXrN"></path><path d="M777.34 179.02C777.34 180.35 778.41 181.42 779.74 181.42C781.07 181.42 782.14 180.35 782.14 179.02C782.14 177.69 781.07 176.62 779.74 176.62C778.41 176.62 777.34 177.69 777.34 179.02Z" id="bBKdBKFeo"></path><path d="M777.34 179.02C777.34 180.35 778.41 181.42 779.74 181.42C781.07 181.42 782.14 180.35 782.14 179.02C782.14 177.69 781.07 176.62 779.74 176.62C778.41 176.62 777.34 177.69 777.34 179.02Z" id="bMUcpFbMg"></path><path d="M777.34 -12.98C777.34 -11.68 778.44 -10.58 779.74 -10.58C781.04 -10.58 782.14 -11.68 782.14 -12.98C781.66 -12.98 777.82 -12.98 777.34 -12.98Z" id="bk0yEnBw5"></path><path d="M777.34 -12.98C777.34 -11.68 778.44 -10.58 779.74 -10.58C781.04 -10.58 782.14 -11.68 782.14 -12.98C781.66 -12.98 777.82 -12.98 777.34 -12.98Z" id="aLyjhA5ky"></path><path d="M777.34 155.02C777.34 156.35 778.41 157.42 779.74 157.42C781.07 157.42 782.14 156.35 782.14 155.02C782.14 153.69 781.07 152.62 779.74 152.62C778.41 152.62 777.34 153.69 777.34 155.02Z" id="a1iDo07HTc"></path><path d="M777.34 155.02C777.34 156.35 778.41 157.42 779.74 157.42C781.07 157.42 782.14 156.35 782.14 155.02C782.14 153.69 781.07 152.62 779.74 152.62C778.41 152.62 777.34 153.69 777.34 155.02Z" id="a50ARtiNj5"></path><path d="M777.34 227.02C777.34 228.32 778.44 229.42 779.74 229.42C781.04 229.42 782.14 228.32 782.14 227.02C782.14 226.52 781.94 226.02 781.74 225.72C781.34 225.02 780.54 224.62 779.74 224.62C778.94 224.62 778.14 225.02 777.74 225.72C777.44 226.12 777.34 226.52 777.34 227.02Z" id="b538vu3Fv"></path><path d="M777.34 227.02C777.34 228.32 778.44 229.42 779.74 229.42C781.04 229.42 782.14 228.32 782.14 227.02C782.14 226.52 781.94 226.02 781.74 225.72C781.34 225.02 780.54 224.62 779.74 224.62C778.94 224.62 778.14 225.02 777.74 225.72C777.44 226.12 777.34 226.52 777.34 227.02Z" id="hcJYZjxvL"></path><path d="M777.34 35.02C777.34 36.35 778.41 37.42 779.74 37.42C781.07 37.42 782.14 36.35 782.14 35.02C782.14 33.69 781.07 32.62 779.74 32.62C778.41 32.62 777.34 33.69 777.34 35.02Z" id="aqvsr4fDf"></path><path d="M777.34 35.02C777.34 36.35 778.41 37.42 779.74 37.42C781.07 37.42 782.14 36.35 782.14 35.02C782.14 33.69 781.07 32.62 779.74 32.62C778.41 32.62 777.34 33.69 777.34 35.02Z" id="f34SW0sxlc"></path><path d="M777.34 11.02C777.34 12.35 778.41 13.42 779.74 13.42C781.07 13.42 782.14 12.35 782.14 11.02C782.14 9.69 781.07 8.62 779.74 8.62C778.41 8.62 777.34 9.69 777.34 11.02Z" id="aWcgtYTpJ"></path><path d="M777.34 11.02C777.34 12.35 778.41 13.42 779.74 13.42C781.07 13.42 782.14 12.35 782.14 11.02C782.14 9.69 781.07 8.62 779.74 8.62C778.41 8.62 777.34 9.69 777.34 11.02Z" id="a9ua811h5"></path><path d="M777.34 203.02C777.34 204.35 778.41 205.42 779.74 205.42C781.07 205.42 782.14 204.35 782.14 203.02C782.14 201.69 781.07 200.62 779.74 200.62C778.41 200.62 777.34 201.69 777.34 203.02Z" id="a7W8HyG6fj"></path><path d="M777.34 203.02C777.34 204.35 778.41 205.42 779.74 205.42C781.07 205.42 782.14 204.35 782.14 203.02C782.14 201.69 781.07 200.62 779.74 200.62C778.41 200.62 777.34 201.69 777.34 203.02Z" id="caigZ0l5a6"></path><path d="M777.34 251.02C777.34 252.35 778.41 253.42 779.74 253.42C781.07 253.42 782.14 252.35 782.14 251.02C782.14 249.69 781.07 248.62 779.74 248.62C778.41 248.62 777.34 249.69 777.34 251.02Z" id="a4LPtrYSBy"></path><path d="M777.34 251.02C777.34 252.35 778.41 253.42 779.74 253.42C781.07 253.42 782.14 252.35 782.14 251.02C782.14 249.69 781.07 248.62 779.74 248.62C778.41 248.62 777.34 249.69 777.34 251.02Z" id="a3PmJxJNqj"></path><path d="M202.94 -60.97C202.94 -59.64 204.01 -58.57 205.34 -58.57C206.67 -58.57 207.74 -59.64 207.74 -60.97C207.74 -62.3 206.67 -63.37 205.34 -63.37C204.01 -63.37 202.94 -62.3 202.94 -60.97Z" id="aAgJ1wBav"></path><path d="M202.94 -60.97C202.94 -59.64 204.01 -58.57 205.34 -58.57C206.67 -58.57 207.74 -59.64 207.74 -60.97C207.74 -62.3 206.67 -63.37 205.34 -63.37C204.01 -63.37 202.94 -62.3 202.94 -60.97Z" id="aeYBTxc2x"></path><path d="M292.89 -691.31C292.89 -689.98 293.96 -688.91 295.29 -688.91C296.62 -688.91 297.69 -689.98 297.69 -691.31C297.69 -692.63 296.62 -693.71 295.29 -693.71C293.96 -693.71 292.89 -692.63 292.89 -691.31Z" id="a16jKVQvyx"></path><path d="M292.89 -691.31C292.89 -689.98 293.96 -688.91 295.29 -688.91C296.62 -688.91 297.69 -689.98 297.69 -691.31C297.69 -692.63 296.62 -693.71 295.29 -693.71C293.96 -693.71 292.89 -692.63 292.89 -691.31Z" id="b5JlDGjyt"></path><path d="M292.89 -715.31C292.89 -713.98 293.96 -712.91 295.29 -712.91C296.62 -712.91 297.69 -713.98 297.69 -715.31C297.69 -716.63 296.62 -717.71 295.29 -717.71C293.96 -717.71 292.89 -716.63 292.89 -715.31Z" id="a5qFPujU8"></path><path d="M292.89 -715.31C292.89 -713.98 293.96 -712.91 295.29 -712.91C296.62 -712.91 297.69 -713.98 297.69 -715.31C297.69 -716.63 296.62 -717.71 295.29 -717.71C293.96 -717.71 292.89 -716.63 292.89 -715.31Z" id="baBBnDSYY"></path><path d="M280.89 -679.31C280.89 -677.98 281.96 -676.91 283.29 -676.91C284.62 -676.91 285.69 -677.98 285.69 -679.31C285.69 -680.63 284.62 -681.71 283.29 -681.71C281.96 -681.71 280.89 -680.63 280.89 -679.31Z" id="c5X497DVsL"></path><path d="M280.89 -679.31C280.89 -677.98 281.96 -676.91 283.29 -676.91C284.62 -676.91 285.69 -677.98 285.69 -679.31C285.69 -680.63 284.62 -681.71 283.29 -681.71C281.96 -681.71 280.89 -680.63 280.89 -679.31Z" id="b17yM2LI7n"></path><path d="M280.89 -703.31C280.89 -701.98 281.96 -700.91 283.29 -700.91C284.62 -700.91 285.69 -701.98 285.69 -703.31C285.69 -704.63 284.62 -705.71 283.29 -705.71C281.96 -705.71 280.89 -704.63 280.89 -703.31Z" id="b28ssNUL6G"></path><path d="M280.89 -703.31C280.89 -701.98 281.96 -700.91 283.29 -700.91C284.62 -700.91 285.69 -701.98 285.69 -703.31C285.69 -704.63 284.62 -705.71 283.29 -705.71C281.96 -705.71 280.89 -704.63 280.89 -703.31Z" id="a34jP1dgdM"></path><path d="M292.89 -643.31C292.89 -641.98 293.96 -640.91 295.29 -640.91C296.62 -640.91 297.69 -641.98 297.69 -643.31C297.69 -644.63 296.62 -645.71 295.29 -645.71C293.96 -645.71 292.89 -644.63 292.89 -643.31Z" id="bzO15mYfH"></path><path d="M292.89 -643.31C292.89 -641.98 293.96 -640.91 295.29 -640.91C296.62 -640.91 297.69 -641.98 297.69 -643.31C297.69 -644.63 296.62 -645.71 295.29 -645.71C293.96 -645.71 292.89 -644.63 292.89 -643.31Z" id="b1agiOB1w"></path><path d="M292.89 -667.31C292.89 -665.98 293.96 -664.91 295.29 -664.91C296.62 -664.91 297.69 -665.98 297.69 -667.31C297.69 -668.63 296.62 -669.71 295.29 -669.71C293.96 -669.71 292.89 -668.63 292.89 -667.31Z" id="a1sRpuwkUg"></path><path d="M292.89 -667.31C292.89 -665.98 293.96 -664.91 295.29 -664.91C296.62 -664.91 297.69 -665.98 297.69 -667.31C297.69 -668.63 296.62 -669.71 295.29 -669.71C293.96 -669.71 292.89 -668.63 292.89 -667.31Z" id="a2cIuMnZcC"></path><path d="M280.89 -655.31C280.89 -653.98 281.96 -652.91 283.29 -652.91C284.62 -652.91 285.69 -653.98 285.69 -655.31C285.69 -656.63 284.62 -657.71 283.29 -657.71C281.96 -657.71 280.89 -656.63 280.89 -655.31Z" id="a8mq93iZUl"></path><path d="M280.89 -655.31C280.89 -653.98 281.96 -652.91 283.29 -652.91C284.62 -652.91 285.69 -653.98 285.69 -655.31C285.69 -656.63 284.62 -657.71 283.29 -657.71C281.96 -657.71 280.89 -656.63 280.89 -655.31Z" id="cDPVwYofH"></path><path d="M256.89 -679.31C256.89 -677.98 257.96 -676.91 259.29 -676.91C260.62 -676.91 261.69 -677.98 261.69 -679.31C261.69 -680.63 260.62 -681.71 259.29 -681.71C257.96 -681.71 256.89 -680.63 256.89 -679.31Z" id="eun8s31HF"></path><path d="M256.89 -679.31C256.89 -677.98 257.96 -676.91 259.29 -676.91C260.62 -676.91 261.69 -677.98 261.69 -679.31C261.69 -680.63 260.62 -681.71 259.29 -681.71C257.96 -681.71 256.89 -680.63 256.89 -679.31Z" id="ccOtk0bED"></path><path d="M256.89 -703.31C256.89 -701.98 257.96 -700.91 259.29 -700.91C260.62 -700.91 261.69 -701.98 261.69 -703.31C261.69 -704.63 260.62 -705.71 259.29 -705.71C257.96 -705.71 256.89 -704.63 256.89 -703.31Z" id="d8DGeRAjR"></path><path d="M256.89 -703.31C256.89 -701.98 257.96 -700.91 259.29 -700.91C260.62 -700.91 261.69 -701.98 261.69 -703.31C261.69 -704.63 260.62 -705.71 259.29 -705.71C257.96 -705.71 256.89 -704.63 256.89 -703.31Z" id="aXtFRVbQe"></path><path d="M268.89 -691.31C268.89 -689.98 269.96 -688.91 271.29 -688.91C272.62 -688.91 273.69 -689.98 273.69 -691.31C273.69 -692.63 272.62 -693.71 271.29 -693.71C269.96 -693.71 268.89 -692.63 268.89 -691.31Z" id="ii51NeE7j"></path><path d="M268.89 -691.31C268.89 -689.98 269.96 -688.91 271.29 -688.91C272.62 -688.91 273.69 -689.98 273.69 -691.31C273.69 -692.63 272.62 -693.71 271.29 -693.71C269.96 -693.71 268.89 -692.63 268.89 -691.31Z" id="b336wxd3Id"></path><path d="M244.89 -691.31C244.89 -689.98 245.96 -688.91 247.29 -688.91C248.62 -688.91 249.69 -689.98 249.69 -691.31C249.69 -692.63 248.62 -693.71 247.29 -693.71C245.96 -693.71 244.89 -692.63 244.89 -691.31Z" id="aqzUkdudd"></path><path d="M244.89 -691.31C244.89 -689.98 245.96 -688.91 247.29 -688.91C248.62 -688.91 249.69 -689.98 249.69 -691.31C249.69 -692.63 248.62 -693.71 247.29 -693.71C245.96 -693.71 244.89 -692.63 244.89 -691.31Z" id="c1EgcGbLG1"></path><path d="M268.89 -715.31C268.89 -713.98 269.96 -712.91 271.29 -712.91C272.62 -712.91 273.69 -713.98 273.69 -715.31C273.69 -716.63 272.62 -717.71 271.29 -717.71C269.96 -717.71 268.89 -716.63 268.89 -715.31Z" id="h1eoJFQDa1"></path><path d="M268.89 -715.31C268.89 -713.98 269.96 -712.91 271.29 -712.91C272.62 -712.91 273.69 -713.98 273.69 -715.31C273.69 -716.63 272.62 -717.71 271.29 -717.71C269.96 -717.71 268.89 -716.63 268.89 -715.31Z" id="d5BpZ9qE7K"></path><path d="M244.89 -715.31C244.89 -713.98 245.96 -712.91 247.29 -712.91C248.62 -712.91 249.69 -713.98 249.69 -715.31C249.69 -716.63 248.62 -717.71 247.29 -717.71C245.96 -717.71 244.89 -716.63 244.89 -715.31Z" id="a36jRWLLuo"></path><path d="M244.89 -715.31C244.89 -713.98 245.96 -712.91 247.29 -712.91C248.62 -712.91 249.69 -713.98 249.69 -715.31C249.69 -716.63 248.62 -717.71 247.29 -717.71C245.96 -717.71 244.89 -716.63 244.89 -715.31Z" id="bvKLDS2iD"></path><path d="M256.89 -727.31C256.89 -726.01 257.99 -724.91 259.29 -724.91C260.59 -724.91 261.69 -726.01 261.69 -727.31C261.21 -727.31 257.37 -727.31 256.89 -727.31Z" id="cbcaM9OKJ"></path><path d="M256.89 -727.31C256.89 -726.01 257.99 -724.91 259.29 -724.91C260.59 -724.91 261.69 -726.01 261.69 -727.31C261.21 -727.31 257.37 -727.31 256.89 -727.31Z" id="eKOmMVd2P"></path><path d="M285.69 -727.31C285.53 -727.31 284.73 -727.31 283.29 -727.31C283.05 -727.31 281.13 -727.31 280.89 -727.31C281.62 -725.71 282.42 -724.91 283.29 -724.91C284.59 -724.91 285.69 -726.01 285.69 -727.31Z" id="a35Qw5rmLr"></path><path d="M285.69 -727.31C285.53 -727.31 284.73 -727.31 283.29 -727.31C283.05 -727.31 281.13 -727.31 280.89 -727.31C281.62 -725.71 282.42 -724.91 283.29 -724.91C284.59 -724.91 285.69 -726.01 285.69 -727.31Z" id="c3WMKwdTD"></path><path d="M256.89 -655.31C256.89 -653.98 257.96 -652.91 259.29 -652.91C260.62 -652.91 261.69 -653.98 261.69 -655.31C261.69 -656.63 260.62 -657.71 259.29 -657.71C257.96 -657.71 256.89 -656.63 256.89 -655.31Z" id="anq4yUDVD"></path><path d="M256.89 -655.31C256.89 -653.98 257.96 -652.91 259.29 -652.91C260.62 -652.91 261.69 -653.98 261.69 -655.31C261.69 -656.63 260.62 -657.71 259.29 -657.71C257.96 -657.71 256.89 -656.63 256.89 -655.31Z" id="a1V41hq0gq"></path><path d="M268.89 -643.31C268.89 -641.98 269.96 -640.91 271.29 -640.91C272.62 -640.91 273.69 -641.98 273.69 -643.31C273.69 -644.63 272.62 -645.71 271.29 -645.71C269.96 -645.71 268.89 -644.63 268.89 -643.31Z" id="a9Goz2JF4"></path><path d="M268.89 -643.31C268.89 -641.98 269.96 -640.91 271.29 -640.91C272.62 -640.91 273.69 -641.98 273.69 -643.31C273.69 -644.63 272.62 -645.71 271.29 -645.71C269.96 -645.71 268.89 -644.63 268.89 -643.31Z" id="bdx5ncJX"></path><path d="M244.89 -643.31C244.89 -641.98 245.96 -640.91 247.29 -640.91C248.62 -640.91 249.69 -641.98 249.69 -643.31C249.69 -644.63 248.62 -645.71 247.29 -645.71C245.96 -645.71 244.89 -644.63 244.89 -643.31Z" id="aPckTv17m"></path><path d="M244.89 -643.31C244.89 -641.98 245.96 -640.91 247.29 -640.91C248.62 -640.91 249.69 -641.98 249.69 -643.31C249.69 -644.63 248.62 -645.71 247.29 -645.71C245.96 -645.71 244.89 -644.63 244.89 -643.31Z" id="b1h0ogOwLg"></path><path d="M268.89 -667.31C268.89 -665.98 269.96 -664.91 271.29 -664.91C272.62 -664.91 273.69 -665.98 273.69 -667.31C273.69 -668.63 272.62 -669.71 271.29 -669.71C269.96 -669.71 268.89 -668.63 268.89 -667.31Z" id="ayYQ0dlW2"></path><path d="M268.89 -667.31C268.89 -665.98 269.96 -664.91 271.29 -664.91C272.62 -664.91 273.69 -665.98 273.69 -667.31C273.69 -668.63 272.62 -669.71 271.29 -669.71C269.96 -669.71 268.89 -668.63 268.89 -667.31Z" id="a9N37deDFh"></path><path d="M244.89 -667.31C244.89 -665.98 245.96 -664.91 247.29 -664.91C248.62 -664.91 249.69 -665.98 249.69 -667.31C249.69 -668.63 248.62 -669.71 247.29 -669.71C245.96 -669.71 244.89 -668.63 244.89 -667.31Z" id="bWZJW99z2"></path><path d="M244.89 -667.31C244.89 -665.98 245.96 -664.91 247.29 -664.91C248.62 -664.91 249.69 -665.98 249.69 -667.31C249.69 -668.63 248.62 -669.71 247.29 -669.71C245.96 -669.71 244.89 -668.63 244.89 -667.31Z" id="avdYa5KMt"></path><path d="M538.14 -76.62C538.14 -76.38 538.14 -75.18 538.14 -73.02C546.84 -73.02 551.67 -73.02 552.64 -73.02C553.64 -74.62 554.38 -75.82 554.84 -76.62C553.73 -76.62 548.16 -76.62 538.14 -76.62Z" id="fxiv8QIEC"></path><path d="M538.14 -76.62C538.14 -76.38 538.14 -75.18 538.14 -73.02C546.84 -73.02 551.67 -73.02 552.64 -73.02C553.64 -74.62 554.38 -75.82 554.84 -76.62C553.73 -76.62 548.16 -76.62 538.14 -76.62Z" id="b8qf7QlpL"></path><path d="M427.29 -619.31C610.29 -586.31 644.79 -727.31 644.79 -727.31C598.29 -727.31 365.79 -727.31 -52.71 -727.31C-52.71 -703.16 -52.71 -509.96 -52.71 -485.81C-12.71 -460.81 38.29 -453.81 100.29 -464.81C193.29 -481.31 244.29 -652.31 427.29 -619.31Z" id="a4m0YXYs1"></path><path d="M427.29 -619.31C610.29 -586.31 644.79 -727.31 644.79 -727.31C598.29 -727.31 365.79 -727.31 -52.71 -727.31C-52.71 -703.16 -52.71 -509.96 -52.71 -485.81C-12.71 -460.81 38.29 -453.81 100.29 -464.81C193.29 -481.31 244.29 -652.31 427.29 -619.31Z" id="c6K2PYr8e"></path><path d="M180.94 -12.98C180.94 -12.98 181.34 -12.88 182.14 -12.58C182.14 -12.68 182.14 -12.88 182.14 -12.98C182.02 -12.98 181.06 -12.98 180.94 -12.98Z" id="a7XRBZn96"></path><path d="M180.94 -12.98C180.94 -12.98 181.34 -12.88 182.14 -12.58C182.14 -12.68 182.14 -12.88 182.14 -12.98C182.02 -12.98 181.06 -12.98 180.94 -12.98Z" id="b1JKewXM4f"></path><path d="M504.96 -22.27C494.52 40.99 524.24 76.51 629.04 137.31C649.91 149.35 666.63 162.31 679.76 174.25C681.65 162.84 691.05 105.81 707.99 3.16C587.2 -16.76 520.1 -27.83 506.67 -30.05C506.05 -27.58 505.41 -25 504.96 -22.27Z" id="l9DqWvjyN8"></path><path d="M373.76 -103.85C373.12 -103.85 369.92 -103.85 364.16 -103.85C364.16 -103.49 364.16 -100.61 364.16 -100.25C368.72 -100.25 371.25 -100.25 371.76 -100.25C372.46 -101.45 373.06 -102.65 373.76 -103.85Z" id="boJ8ikfhg"></path><path d="M373.76 -103.85C373.12 -103.85 369.92 -103.85 364.16 -103.85C364.16 -103.49 364.16 -100.61 364.16 -100.25C368.72 -100.25 371.25 -100.25 371.76 -100.25C372.46 -101.45 373.06 -102.65 373.76 -103.85Z" id="b13n3j2JEF"></path><path d="M275.79 -559.21C407.29 -572.01 455.79 -727.31 455.79 -727.31C421.89 -727.31 252.39 -727.31 -52.71 -727.31C-52.71 -716.5 -52.71 -630.02 -52.71 -619.21C-18.58 -643.21 17.42 -650.71 55.29 -641.71C125.39 -625.01 167.99 -548.71 275.79 -559.21Z" id="a5wGi4VoLw"></path><path d="M275.79 -559.21C407.29 -572.01 455.79 -727.31 455.79 -727.31C421.89 -727.31 252.39 -727.31 -52.71 -727.31C-52.71 -716.5 -52.71 -630.02 -52.71 -619.21C-18.58 -643.21 17.42 -650.71 55.29 -641.71C125.39 -625.01 167.99 -548.71 275.79 -559.21Z" id="cka7s9iE2"></path><path d="M132.04 3.22C132.04 5.38 132.04 6.58 132.04 6.82C132.04 6.82 132.04 6.82 132.04 6.82C131.86 6.82 131.76 6.82 131.74 6.82C131.74 6.82 131.74 6.82 131.74 6.82C131.74 4.66 131.74 3.46 131.74 3.22C131.74 3.22 131.74 3.22 131.74 3.22C131.92 3.22 132.02 3.22 132.04 3.22C132.04 3.22 132.04 3.22 132.04 3.22Z" id="d1qiM7V91Z"></path><path d="M132.04 3.22C132.04 5.38 132.04 6.58 132.04 6.82C132.04 6.82 132.04 6.82 132.04 6.82C131.86 6.82 131.76 6.82 131.74 6.82C131.74 6.82 131.74 6.82 131.74 6.82C131.74 4.66 131.74 3.46 131.74 3.22C131.74 3.22 131.74 3.22 131.74 3.22C131.92 3.22 132.02 3.22 132.04 3.22C132.04 3.22 132.04 3.22 132.04 3.22Z" id="bQQ6kiBw"></path><path d="M132.04 -8.78C132.04 -6.62 132.04 -5.42 132.04 -5.18C132.04 -5.18 132.04 -5.18 132.04 -5.18C131.86 -5.18 131.76 -5.18 131.74 -5.18C131.74 -5.18 131.74 -5.18 131.74 -5.18C131.74 -7.34 131.74 -8.54 131.74 -8.78C131.74 -8.78 131.74 -8.78 131.74 -8.78C131.92 -8.78 132.02 -8.78 132.04 -8.78C132.04 -8.78 132.04 -8.78 132.04 -8.78Z" id="efNj3Pq4w"></path><path d="M132.04 -8.78C132.04 -6.62 132.04 -5.42 132.04 -5.18C132.04 -5.18 132.04 -5.18 132.04 -5.18C131.86 -5.18 131.76 -5.18 131.74 -5.18C131.74 -5.18 131.74 -5.18 131.74 -5.18C131.74 -7.34 131.74 -8.54 131.74 -8.78C131.74 -8.78 131.74 -8.78 131.74 -8.78C131.92 -8.78 132.02 -8.78 132.04 -8.78C132.04 -8.78 132.04 -8.78 132.04 -8.78Z" id="a3KR3LfyTF"></path><path d="M212.14 -110.31C212.14 -110.07 212.14 -108.87 212.14 -106.71C241.42 -106.71 257.69 -106.71 260.94 -106.71C261.61 -108.31 262.14 -109.51 262.54 -110.31C259.18 -110.31 242.38 -110.31 212.14 -110.31Z" id="b3KHvNT9Z"></path><path d="M212.14 -110.31C212.14 -110.07 212.14 -108.87 212.14 -106.71C241.42 -106.71 257.69 -106.71 260.94 -106.71C261.61 -108.31 262.14 -109.51 262.54 -110.31C259.18 -110.31 242.38 -110.31 212.14 -110.31Z" id="ca2JiTlRt"></path><path d="M-11.96 171.22C-11.96 173.38 -11.96 174.58 -11.96 174.82C-11.96 174.82 -11.96 174.82 -11.96 174.82C-12.14 174.82 -12.24 174.82 -12.26 174.82C-12.26 174.82 -12.26 174.82 -12.26 174.82C-12.26 172.66 -12.26 171.46 -12.26 171.22C-12.26 171.22 -12.26 171.22 -12.26 171.22C-12.08 171.22 -11.98 171.22 -11.96 171.22C-11.96 171.22 -11.96 171.22 -11.96 171.22Z" id="e1ttbGCqxv"></path><path d="M-11.96 171.22C-11.96 173.38 -11.96 174.58 -11.96 174.82C-11.96 174.82 -11.96 174.82 -11.96 174.82C-12.14 174.82 -12.24 174.82 -12.26 174.82C-12.26 174.82 -12.26 174.82 -12.26 174.82C-12.26 172.66 -12.26 171.46 -12.26 171.22C-12.26 171.22 -12.26 171.22 -12.26 171.22C-12.08 171.22 -11.98 171.22 -11.96 171.22C-11.96 171.22 -11.96 171.22 -11.96 171.22Z" id="a1ZJ9wivOT"></path><path d="M-11.96 147.22C-11.96 149.38 -11.96 150.58 -11.96 150.82C-11.96 150.82 -11.96 150.82 -11.96 150.82C-12.14 150.82 -12.24 150.82 -12.26 150.82C-12.26 150.82 -12.26 150.82 -12.26 150.82C-12.26 148.66 -12.26 147.46 -12.26 147.22C-12.26 147.22 -12.26 147.22 -12.26 147.22C-12.08 147.22 -11.98 147.22 -11.96 147.22C-11.96 147.22 -11.96 147.22 -11.96 147.22Z" id="d2CTfLSvcH"></path><path d="M-11.96 147.22C-11.96 149.38 -11.96 150.58 -11.96 150.82C-11.96 150.82 -11.96 150.82 -11.96 150.82C-12.14 150.82 -12.24 150.82 -12.26 150.82C-12.26 150.82 -12.26 150.82 -12.26 150.82C-12.26 148.66 -12.26 147.46 -12.26 147.22C-12.26 147.22 -12.26 147.22 -12.26 147.22C-12.08 147.22 -11.98 147.22 -11.96 147.22C-11.96 147.22 -11.96 147.22 -11.96 147.22Z" id="gCVGCQP33"></path><path d="M-11.96 159.22C-11.96 161.38 -11.96 162.58 -11.96 162.82C-11.96 162.82 -11.96 162.82 -11.96 162.82C-12.14 162.82 -12.24 162.82 -12.26 162.82C-12.26 162.82 -12.26 162.82 -12.26 162.82C-12.26 160.66 -12.26 159.46 -12.26 159.22C-12.26 159.22 -12.26 159.22 -12.26 159.22C-12.08 159.22 -11.98 159.22 -11.96 159.22C-11.96 159.22 -11.96 159.22 -11.96 159.22Z" id="b1gmhWIFoC"></path><path d="M-11.96 159.22C-11.96 161.38 -11.96 162.58 -11.96 162.82C-11.96 162.82 -11.96 162.82 -11.96 162.82C-12.14 162.82 -12.24 162.82 -12.26 162.82C-12.26 162.82 -12.26 162.82 -12.26 162.82C-12.26 160.66 -12.26 159.46 -12.26 159.22C-12.26 159.22 -12.26 159.22 -12.26 159.22C-12.08 159.22 -11.98 159.22 -11.96 159.22C-11.96 159.22 -11.96 159.22 -11.96 159.22Z" id="ai9ntLppL"></path></defs><g><g><g><use xlink:href="#a1aglvhoLW" opacity="1" fill="#2c2360" fill-opacity="1"></use><g><use xlink:href="#a1aglvhoLW" opacity="1" fill-opacity="0" stroke="#000000" stroke-width="1" stroke-opacity="0"></use></g></g><g><use xlink:href="#auxHmYZLj" opacity="1" fill="#ffde17" fill-opacity="1"></use><g><use xlink:href="#auxHmYZLj" opacity="1" fill-opacity="0" stroke="#000000" stroke-width="1" stroke-opacity="0"></use></g></g><g><use xlink:href="#a16Oy1kpL2" opacity="1" fill="#ffffff" fill-opacity="1"></use><g><use xlink:href="#a16Oy1kpL2" opacity="1" fill-opacity="0" stroke="#000000" stroke-width="1" stroke-opacity="0"></use></g></g><g><use xlink:href="#i5D5snIFG" opacity="1" fill="#ffffff" fill-opacity="1"></use><g><use xlink:href="#i5D5snIFG" opacity="1" fill-opacity="0" stroke="#000000" stroke-width="1" stroke-opacity="0"></use></g></g><g><use xlink:href="#boYdwCJ63" opacity="1" fill="#ffffff" fill-opacity="1"></use><g><use xlink:href="#boYdwCJ63" opacity="1" fill-opacity="0" stroke="#000000" stroke-width="1" stroke-opacity="0"></use></g></g><g><use xlink:href="#a4g9yDuA3e" opacity="1" fill="#ffffff" fill-opacity="1"></use><g><use xlink:href="#a4g9yDuA3e" opacity="1" fill-opacity="0" stroke="#000000" stroke-width="1" stroke-opacity="0"></use></g></g><g><use xlink:href="#gSNGEFlJj" opacity="1" fill="#ffffff" fill-opacity="1"></use><g><use xlink:href="#gSNGEFlJj" opacity="1" fill-opacity="0" stroke="#000000" stroke-width="1" stroke-opacity="0"></use></g></g><g><use xlink:href="#caniFgvxe" opacity="1" fill="#ffffff" fill-opacity="1"></use><g><use xlink:href="#caniFgvxe" opacity="1" fill-opacity="0" stroke="#000000" stroke-width="1" stroke-opacity="0"></use></g></g><g><use xlink:href="#c2QOtfr9Z" opacity="1" fill="#ffffff" fill-opacity="1"></use><g><use xlink:href="#c2QOtfr9Z" opacity="1" fill-opacity="0" stroke="#000000" stroke-width="1" stroke-opacity="0"></use></g></g><g><use xlink:href="#j3oiQhHQ9d" opacity="1" fill="#ffffff" fill-opacity="1"></use><g><use xlink:href="#j3oiQhHQ9d" opacity="1" fill-opacity="0" stroke="#000000" stroke-width="1" stroke-opacity="0"></use></g></g><g><use xlink:href="#b3ZdSaftPL" opacity="1" fill="#ffffff" fill-opacity="1"></use><g><use xlink:href="#b3ZdSaftPL" opacity="1" fill-opacity="0" stroke="#000000" stroke-width="1" stroke-opacity="0"></use></g></g><g><use xlink:href="#bWcQ4qLQN" opacity="1" fill="#ffffff" fill-opacity="1"></use><g><use xlink:href="#bWcQ4qLQN" opacity="1" fill-opacity="0" stroke="#000000" stroke-width="1" stroke-opacity="0"></use></g></g><g><use xlink:href="#abF5ScINs" opacity="1" fill="#ffffff" fill-opacity="1"></use><g><use xlink:href="#abF5ScINs" opacity="1" fill-opacity="0" stroke="#000000" stroke-width="1" stroke-opacity="0"></use></g></g><g><use xlink:href="#d1l8UkGNEx" opacity="1" fill="#ffffff" fill-opacity="1"></use><g><use xlink:href="#d1l8UkGNEx" opacity="1" fill-opacity="0" stroke="#000000" stroke-width="1" stroke-opacity="0"></use></g></g><g><use xlink:href="#b2tAeej6Z6" opacity="1" fill="#ffffff" fill-opacity="1"></use><g><use xlink:href="#b2tAeej6Z6" opacity="1" fill-opacity="0" stroke="#000000" stroke-width="1" stroke-opacity="0"></use></g></g><g><use xlink:href="#f7828SQFlD" opacity="1" fill="#ffffff" fill-opacity="1"></use><g><use xlink:href="#f7828SQFlD" opacity="1" fill-opacity="0" stroke="#000000" stroke-width="1" stroke-opacity="0"></use></g></g><g><use xlink:href="#boWvCPGqe" opacity="1" fill="#ffffff" fill-opacity="1"></use><g><use xlink:href="#boWvCPGqe" opacity="1" fill-opacity="0" stroke="#000000" stroke-width="1" stroke-opacity="0"></use></g></g><g><use xlink:href="#b1JVBaBmBD" opacity="1" fill="#ffffff" fill-opacity="1"></use><g><use xlink:href="#b1JVBaBmBD" opacity="1" fill-opacity="0" stroke="#000000" stroke-width="1" stroke-opacity="0"></use></g></g><g><use xlink:href="#gMYW2TpDj" opacity="1" fill="#ffffff" fill-opacity="1"></use><g><use xlink:href="#gMYW2TpDj" opacity="1" fill-opacity="0" stroke="#000000" stroke-width="1" stroke-opacity="0"></use></g></g><g><use xlink:href="#bxvQTR5aF" opacity="1" fill="#ffffff" fill-opacity="1"></use><g><use xlink:href="#bxvQTR5aF" opacity="1" fill-opacity="0" stroke="#000000" stroke-width="1" stroke-opacity="0"></use></g></g><g><use xlink:href="#a63W3ZbSK" opacity="1" fill="#ffffff" fill-opacity="1"></use><g><use xlink:href="#a63W3ZbSK" opacity="1" fill-opacity="0" stroke="#000000" stroke-width="1" stroke-opacity="0"></use></g></g><g><use xlink:href="#d2hAxLJkLT" opacity="1" fill="#ffffff" fill-opacity="1"></use><g><use xlink:href="#d2hAxLJkLT" opacity="1" fill-opacity="0" stroke="#000000" stroke-width="1" stroke-opacity="0"></use></g></g><g><use xlink:href="#f5Iz9Y7kRV" opacity="1" fill="#ffffff" fill-opacity="1"></use><g><use xlink:href="#f5Iz9Y7kRV" opacity="1" fill-opacity="0" stroke="#000000" stroke-width="1" stroke-opacity="0"></use></g></g><g><use xlink:href="#a2hbKE700M" opacity="1" fill="#ffffff" fill-opacity="1"></use><g><use xlink:href="#a2hbKE700M" opacity="1" fill-opacity="0" stroke="#000000" stroke-width="1" stroke-opacity="0"></use></g></g><g><use xlink:href="#aNcDDObkX" opacity="1" fill="#ffffff" fill-opacity="1"></use><g><use xlink:href="#aNcDDObkX" opacity="1" fill-opacity="0" stroke="#000000" stroke-width="1" stroke-opacity="0"></use></g></g><g><use xlink:href="#i2UmJ1gPqO" opacity="1" fill="#ffffff" fill-opacity="1"></use><g><use xlink:href="#i2UmJ1gPqO" opacity="1" fill-opacity="0" stroke="#000000" stroke-width="1" stroke-opacity="0"></use></g></g><g><use xlink:href="#aN5KL57oF" opacity="1" fill="#ffffff" fill-opacity="1"></use><g><use xlink:href="#aN5KL57oF" opacity="1" fill-opacity="0" stroke="#000000" stroke-width="1" stroke-opacity="0"></use></g></g><g><use xlink:href="#a5OMCjMnas" opacity="1" fill="#ffffff" fill-opacity="1"></use><g><use xlink:href="#a5OMCjMnas" opacity="1" fill-opacity="0" stroke="#000000" stroke-width="1" stroke-opacity="0"></use></g></g><g><use xlink:href="#haIWP8EC2" opacity="1" fill="#ffffff" fill-opacity="1"></use><g><use xlink:href="#haIWP8EC2" opacity="1" fill-opacity="0" stroke="#000000" stroke-width="1" stroke-opacity="0"></use></g></g><g><use xlink:href="#c46Zje8vf" opacity="1" fill="#ffffff" fill-opacity="1"></use><g><use xlink:href="#c46Zje8vf" opacity="1" fill-opacity="0" stroke="#000000" stroke-width="1" stroke-opacity="0"></use></g></g><g><use xlink:href="#a1Ex0TCYkg" opacity="1" fill="#ffffff" fill-opacity="1"></use><g><use xlink:href="#a1Ex0TCYkg" opacity="1" fill-opacity="0" stroke="#000000" stroke-width="1" stroke-opacity="0"></use></g></g><g><use xlink:href="#aaoaqcCgM" opacity="1" fill="#ffffff" fill-opacity="1"></use><g><use xlink:href="#aaoaqcCgM" opacity="1" fill-opacity="0" stroke="#000000" stroke-width="1" stroke-opacity="0"></use></g></g><g><use xlink:href="#alp5Mm42" opacity="1" fill="#ffffff" fill-opacity="1"></use><g><use xlink:href="#alp5Mm42" opacity="1" fill-opacity="0" stroke="#000000" stroke-width="1" stroke-opacity="0"></use></g></g><g><use xlink:href="#ajw8UrZem" opacity="1" fill="#ffffff" fill-opacity="1"></use><g><use xlink:href="#ajw8UrZem" opacity="1" fill-opacity="0" stroke="#000000" stroke-width="1" stroke-opacity="0"></use></g></g><g><use xlink:href="#d8QWvXOF8O" opacity="1" fill="#ffffff" fill-opacity="1"></use><g><use xlink:href="#d8QWvXOF8O" opacity="1" fill-opacity="0" stroke="#000000" stroke-width="1" stroke-opacity="0"></use></g></g><g><use xlink:href="#h16tRh8yu4" opacity="1" fill="#ffffff" fill-opacity="1"></use><g><use xlink:href="#h16tRh8yu4" opacity="1" fill-opacity="0" stroke="#000000" stroke-width="1" stroke-opacity="0"></use></g></g><g><use xlink:href="#e2nq3h7RCF" opacity="1" fill="#ffffff" fill-opacity="1"></use><g><use xlink:href="#e2nq3h7RCF" opacity="1" fill-opacity="0" stroke="#000000" stroke-width="1" stroke-opacity="0"></use></g></g><g><use xlink:href="#h17zA2C1X7" opacity="1" fill="#2bb673" fill-opacity="1"></use><g><use xlink:href="#h17zA2C1X7" opacity="1" fill-opacity="0" stroke="#000000" stroke-width="1" stroke-opacity="0"></use></g></g><g><use xlink:href="#d52tYDNCX" opacity="1" fill="#ffffff" fill-opacity="1"></use><g><use xlink:href="#d52tYDNCX" opacity="1" fill-opacity="0" stroke="#000000" stroke-width="1" stroke-opacity="0"></use></g></g><g><use xlink:href="#j1qOIgndfz" opacity="1" fill="#6c54ec" fill-opacity="1"></use><g><use xlink:href="#j1qOIgndfz" opacity="1" fill-opacity="0" stroke="#000000" stroke-width="1" stroke-opacity="0"></use></g></g><g><use xlink:href="#a2VGWhZJx" opacity="1" fill="#ffffff" fill-opacity="1"></use><g><use xlink:href="#a2VGWhZJx" opacity="1" fill-opacity="0" stroke="#000000" stroke-width="1" stroke-opacity="0"></use></g></g><g><use xlink:href="#dcbQCdM3F" opacity="1" fill="#ffde17" fill-opacity="1"></use><g><use xlink:href="#dcbQCdM3F" opacity="1" fill-opacity="0" stroke="#000000" stroke-width="1" stroke-opacity="0"></use></g></g><g><use xlink:href="#baI2bvroh" opacity="1" fill="#ffffff" fill-opacity="1"></use><g><use xlink:href="#baI2bvroh" opacity="1" fill-opacity="0" stroke="#000000" stroke-width="1" stroke-opacity="0"></use></g></g><g><use xlink:href="#iKabBt5qv" opacity="1" fill="#ffffff" fill-opacity="1"></use><g><use xlink:href="#iKabBt5qv" opacity="1" fill-opacity="0" stroke="#000000" stroke-width="1" stroke-opacity="0"></use></g></g><g><use xlink:href="#gdxdSzGis" opacity="1" fill="#ffffff" fill-opacity="1"></use><g><use xlink:href="#gdxdSzGis" opacity="1" fill-opacity="0" stroke="#000000" stroke-width="1" stroke-opacity="0"></use></g></g><g><use xlink:href="#f8s5fhezqN" opacity="1" fill="#ffffff" fill-opacity="1"></use><g><use xlink:href="#f8s5fhezqN" opacity="1" fill-opacity="0" stroke="#000000" stroke-width="1" stroke-opacity="0"></use></g></g><g><use xlink:href="#f4uQwuelGJ" opacity="1" fill="#ffffff" fill-opacity="1"></use><g><use xlink:href="#f4uQwuelGJ" opacity="1" fill-opacity="0" stroke="#000000" stroke-width="1" stroke-opacity="0"></use></g></g><g><use xlink:href="#b35SRoJWRs" opacity="1" fill="#ffffff" fill-opacity="1"></use><g><use xlink:href="#b35SRoJWRs" opacity="1" fill-opacity="0" stroke="#000000" stroke-width="1" stroke-opacity="0"></use></g></g><g><use xlink:href="#a1iIGVjjNr" opacity="1" fill="#2c2360" fill-opacity="1"></use><g><use xlink:href="#a1iIGVjjNr" opacity="1" fill-opacity="0" stroke="#000000" stroke-width="1" stroke-opacity="0"></use></g></g><g><use xlink:href="#a7F2AGAZC7" opacity="1" fill="#ee2a7b" fill-opacity="1"></use><g><use xlink:href="#a7F2AGAZC7" opacity="1" fill-opacity="0" stroke="#000000" stroke-width="1" stroke-opacity="0"></use></g></g><g><use xlink:href="#dTVJBHp0T" opacity="1" fill="#ffde17" fill-opacity="1"></use><g><use xlink:href="#dTVJBHp0T" opacity="1" fill-opacity="0" stroke="#000000" stroke-width="1" stroke-opacity="0"></use></g></g><g><use xlink:href="#c1euGOAIAo" opacity="1" fill="#000000" fill-opacity="0"></use><g><use xlink:href="#c1euGOAIAo" opacity="1" fill-opacity="0" stroke="#000000" stroke-width="1" stroke-opacity="0"></use></g></g><g><use xlink:href="#e2GRGdAiiw" opacity="1" fill="#ffffff" fill-opacity="1"></use><g><use xlink:href="#e2GRGdAiiw" opacity="1" fill-opacity="0" stroke="#000000" stroke-width="1" stroke-opacity="0"></use></g></g><g><use xlink:href="#a36b35ERKa" opacity="1" fill="#000000" fill-opacity="0"></use><g><use xlink:href="#a36b35ERKa" opacity="1" fill-opacity="0" stroke="#000000" stroke-width="1" stroke-opacity="0"></use></g></g><g><use xlink:href="#a2ByIQmyDr" opacity="1" fill="#ffffff" fill-opacity="1"></use><g><use xlink:href="#a2ByIQmyDr" opacity="1" fill-opacity="0" stroke="#000000" stroke-width="1" stroke-opacity="0"></use></g></g><g><use xlink:href="#d3wHEShhqW" opacity="1" fill="#000000" fill-opacity="0"></use><g><use xlink:href="#d3wHEShhqW" opacity="1" fill-opacity="0" stroke="#000000" stroke-width="1" stroke-opacity="0"></use></g></g><g><use xlink:href="#a2Ooylzrw1" opacity="1" fill="#ffffff" fill-opacity="1"></use><g><use xlink:href="#a2Ooylzrw1" opacity="1" fill-opacity="0" stroke="#000000" stroke-width="1" stroke-opacity="0"></use></g></g><g><use xlink:href="#a3RRALnknt" opacity="1" fill="#000000" fill-opacity="0"></use><g><use xlink:href="#a3RRALnknt" opacity="1" fill-opacity="0" stroke="#000000" stroke-width="1" stroke-opacity="0"></use></g></g><g><use xlink:href="#a4ThPevzmk" opacity="1" fill="#ffffff" fill-opacity="1"></use><g><use xlink:href="#a4ThPevzmk" opacity="1" fill-opacity="0" stroke="#000000" stroke-width="1" stroke-opacity="0"></use></g></g><g><use xlink:href="#a4VA7jkQ" opacity="1" fill="#000000" fill-opacity="0"></use><g><use xlink:href="#a4VA7jkQ" opacity="1" fill-opacity="0" stroke="#000000" stroke-width="1" stroke-opacity="0"></use></g></g><g><use xlink:href="#e1Wy77Ps9H" opacity="1" fill="#ffffff" fill-opacity="1"></use><g><use xlink:href="#e1Wy77Ps9H" opacity="1" fill-opacity="0" stroke="#000000" stroke-width="1" stroke-opacity="0"></use></g></g><g><use xlink:href="#e4rfsmOXrN" opacity="1" fill="#000000" fill-opacity="0"></use><g><use xlink:href="#e4rfsmOXrN" opacity="1" fill-opacity="0" stroke="#000000" stroke-width="1" stroke-opacity="0"></use></g></g><g><use xlink:href="#bBKdBKFeo" opacity="1" fill="#ffffff" fill-opacity="1"></use><g><use xlink:href="#bBKdBKFeo" opacity="1" fill-opacity="0" stroke="#000000" stroke-width="1" stroke-opacity="0"></use></g></g><g><use xlink:href="#bMUcpFbMg" opacity="1" fill="#000000" fill-opacity="0"></use><g><use xlink:href="#bMUcpFbMg" opacity="1" fill-opacity="0" stroke="#000000" stroke-width="1" stroke-opacity="0"></use></g></g><g><use xlink:href="#bk0yEnBw5" opacity="1" fill="#ffffff" fill-opacity="1"></use><g><use xlink:href="#bk0yEnBw5" opacity="1" fill-opacity="0" stroke="#000000" stroke-width="1" stroke-opacity="0"></use></g></g><g><use xlink:href="#aLyjhA5ky" opacity="1" fill="#000000" fill-opacity="0"></use><g><use xlink:href="#aLyjhA5ky" opacity="1" fill-opacity="0" stroke="#000000" stroke-width="1" stroke-opacity="0"></use></g></g><g><use xlink:href="#a1iDo07HTc" opacity="1" fill="#ffffff" fill-opacity="1"></use><g><use xlink:href="#a1iDo07HTc" opacity="1" fill-opacity="0" stroke="#000000" stroke-width="1" stroke-opacity="0"></use></g></g><g><use xlink:href="#a50ARtiNj5" opacity="1" fill="#000000" fill-opacity="0"></use><g><use xlink:href="#a50ARtiNj5" opacity="1" fill-opacity="0" stroke="#000000" stroke-width="1" stroke-opacity="0"></use></g></g><g><use xlink:href="#b538vu3Fv" opacity="1" fill="#ffffff" fill-opacity="1"></use><g><use xlink:href="#b538vu3Fv" opacity="1" fill-opacity="0" stroke="#000000" stroke-width="1" stroke-opacity="0"></use></g></g><g><use xlink:href="#hcJYZjxvL" opacity="1" fill="#000000" fill-opacity="0"></use><g><use xlink:href="#hcJYZjxvL" opacity="1" fill-opacity="0" stroke="#000000" stroke-width="1" stroke-opacity="0"></use></g></g><g><use xlink:href="#aqvsr4fDf" opacity="1" fill="#ffffff" fill-opacity="1"></use><g><use xlink:href="#aqvsr4fDf" opacity="1" fill-opacity="0" stroke="#000000" stroke-width="1" stroke-opacity="0"></use></g></g><g><use xlink:href="#f34SW0sxlc" opacity="1" fill="#000000" fill-opacity="0"></use><g><use xlink:href="#f34SW0sxlc" opacity="1" fill-opacity="0" stroke="#000000" stroke-width="1" stroke-opacity="0"></use></g></g><g><use xlink:href="#aWcgtYTpJ" opacity="1" fill="#ffffff" fill-opacity="1"></use><g><use xlink:href="#aWcgtYTpJ" opacity="1" fill-opacity="0" stroke="#000000" stroke-width="1" stroke-opacity="0"></use></g></g><g><use xlink:href="#a9ua811h5" opacity="1" fill="#000000" fill-opacity="0"></use><g><use xlink:href="#a9ua811h5" opacity="1" fill-opacity="0" stroke="#000000" stroke-width="1" stroke-opacity="0"></use></g></g><g><use xlink:href="#a7W8HyG6fj" opacity="1" fill="#ffffff" fill-opacity="1"></use><g><use xlink:href="#a7W8HyG6fj" opacity="1" fill-opacity="0" stroke="#000000" stroke-width="1" stroke-opacity="0"></use></g></g><g><use xlink:href="#caigZ0l5a6" opacity="1" fill="#000000" fill-opacity="0"></use><g><use xlink:href="#caigZ0l5a6" opacity="1" fill-opacity="0" stroke="#000000" stroke-width="1" stroke-opacity="0"></use></g></g><g><use xlink:href="#a4LPtrYSBy" opacity="1" fill="#ffffff" fill-opacity="1"></use><g><use xlink:href="#a4LPtrYSBy" opacity="1" fill-opacity="0" stroke="#000000" stroke-width="1" stroke-opacity="0"></use></g></g><g><use xlink:href="#a3PmJxJNqj" opacity="1" fill="#000000" fill-opacity="0"></use><g><use xlink:href="#a3PmJxJNqj" opacity="1" fill-opacity="0" stroke="#000000" stroke-width="1" stroke-opacity="0"></use></g></g><g><use xlink:href="#aAgJ1wBav" opacity="1" fill="#ffffff" fill-opacity="1"></use><g><use xlink:href="#aAgJ1wBav" opacity="1" fill-opacity="0" stroke="#000000" stroke-width="1" stroke-opacity="0"></use></g></g><g><use xlink:href="#aeYBTxc2x" opacity="1" fill="#000000" fill-opacity="0"></use><g><use xlink:href="#aeYBTxc2x" opacity="1" fill-opacity="0" stroke="#000000" stroke-width="1" stroke-opacity="0"></use></g></g><g><use xlink:href="#a16jKVQvyx" opacity="1" fill="#ffffff" fill-opacity="1"></use><g><use xlink:href="#a16jKVQvyx" opacity="1" fill-opacity="0" stroke="#000000" stroke-width="1" stroke-opacity="0"></use></g></g><g><use xlink:href="#b5JlDGjyt" opacity="1" fill="#000000" fill-opacity="0"></use><g><use xlink:href="#b5JlDGjyt" opacity="1" fill-opacity="0" stroke="#000000" stroke-width="1" stroke-opacity="0"></use></g></g><g><use xlink:href="#a5qFPujU8" opacity="1" fill="#ffffff" fill-opacity="1"></use><g><use xlink:href="#a5qFPujU8" opacity="1" fill-opacity="0" stroke="#000000" stroke-width="1" stroke-opacity="0"></use></g></g><g><use xlink:href="#baBBnDSYY" opacity="1" fill="#000000" fill-opacity="0"></use><g><use xlink:href="#baBBnDSYY" opacity="1" fill-opacity="0" stroke="#000000" stroke-width="1" stroke-opacity="0"></use></g></g><g><use xlink:href="#c5X497DVsL" opacity="1" fill="#ffffff" fill-opacity="1"></use><g><use xlink:href="#c5X497DVsL" opacity="1" fill-opacity="0" stroke="#000000" stroke-width="1" stroke-opacity="0"></use></g></g><g><use xlink:href="#b17yM2LI7n" opacity="1" fill="#000000" fill-opacity="0"></use><g><use xlink:href="#b17yM2LI7n" opacity="1" fill-opacity="0" stroke="#000000" stroke-width="1" stroke-opacity="0"></use></g></g><g><use xlink:href="#b28ssNUL6G" opacity="1" fill="#ffffff" fill-opacity="1"></use><g><use xlink:href="#b28ssNUL6G" opacity="1" fill-opacity="0" stroke="#000000" stroke-width="1" stroke-opacity="0"></use></g></g><g><use xlink:href="#a34jP1dgdM" opacity="1" fill="#000000" fill-opacity="0"></use><g><use xlink:href="#a34jP1dgdM" opacity="1" fill-opacity="0" stroke="#000000" stroke-width="1" stroke-opacity="0"></use></g></g><g><use xlink:href="#bzO15mYfH" opacity="1" fill="#ffffff" fill-opacity="1"></use><g><use xlink:href="#bzO15mYfH" opacity="1" fill-opacity="0" stroke="#000000" stroke-width="1" stroke-opacity="0"></use></g></g><g><use xlink:href="#b1agiOB1w" opacity="1" fill="#000000" fill-opacity="0"></use><g><use xlink:href="#b1agiOB1w" opacity="1" fill-opacity="0" stroke="#000000" stroke-width="1" stroke-opacity="0"></use></g></g><g><use xlink:href="#a1sRpuwkUg" opacity="1" fill="#ffffff" fill-opacity="1"></use><g><use xlink:href="#a1sRpuwkUg" opacity="1" fill-opacity="0" stroke="#000000" stroke-width="1" stroke-opacity="0"></use></g></g><g><use xlink:href="#a2cIuMnZcC" opacity="1" fill="#000000" fill-opacity="0"></use><g><use xlink:href="#a2cIuMnZcC" opacity="1" fill-opacity="0" stroke="#000000" stroke-width="1" stroke-opacity="0"></use></g></g><g><use xlink:href="#a8mq93iZUl" opacity="1" fill="#ffffff" fill-opacity="1"></use><g><use xlink:href="#a8mq93iZUl" opacity="1" fill-opacity="0" stroke="#000000" stroke-width="1" stroke-opacity="0"></use></g></g><g><use xlink:href="#cDPVwYofH" opacity="1" fill="#000000" fill-opacity="0"></use><g><use xlink:href="#cDPVwYofH" opacity="1" fill-opacity="0" stroke="#000000" stroke-width="1" stroke-opacity="0"></use></g></g><g><use xlink:href="#eun8s31HF" opacity="1" fill="#ffffff" fill-opacity="1"></use><g><use xlink:href="#eun8s31HF" opacity="1" fill-opacity="0" stroke="#000000" stroke-width="1" stroke-opacity="0"></use></g></g><g><use xlink:href="#ccOtk0bED" opacity="1" fill="#000000" fill-opacity="0"></use><g><use xlink:href="#ccOtk0bED" opacity="1" fill-opacity="0" stroke="#000000" stroke-width="1" stroke-opacity="0"></use></g></g><g><use xlink:href="#d8DGeRAjR" opacity="1" fill="#ffffff" fill-opacity="1"></use><g><use xlink:href="#d8DGeRAjR" opacity="1" fill-opacity="0" stroke="#000000" stroke-width="1" stroke-opacity="0"></use></g></g><g><use xlink:href="#aXtFRVbQe" opacity="1" fill="#000000" fill-opacity="0"></use><g><use xlink:href="#aXtFRVbQe" opacity="1" fill-opacity="0" stroke="#000000" stroke-width="1" stroke-opacity="0"></use></g></g><g><use xlink:href="#ii51NeE7j" opacity="1" fill="#ffffff" fill-opacity="1"></use><g><use xlink:href="#ii51NeE7j" opacity="1" fill-opacity="0" stroke="#000000" stroke-width="1" stroke-opacity="0"></use></g></g><g><use xlink:href="#b336wxd3Id" opacity="1" fill="#000000" fill-opacity="0"></use><g><use xlink:href="#b336wxd3Id" opacity="1" fill-opacity="0" stroke="#000000" stroke-width="1" stroke-opacity="0"></use></g></g><g><use xlink:href="#aqzUkdudd" opacity="1" fill="#ffffff" fill-opacity="1"></use><g><use xlink:href="#aqzUkdudd" opacity="1" fill-opacity="0" stroke="#000000" stroke-width="1" stroke-opacity="0"></use></g></g><g><use xlink:href="#c1EgcGbLG1" opacity="1" fill="#000000" fill-opacity="0"></use><g><use xlink:href="#c1EgcGbLG1" opacity="1" fill-opacity="0" stroke="#000000" stroke-width="1" stroke-opacity="0"></use></g></g><g><use xlink:href="#h1eoJFQDa1" opacity="1" fill="#ffffff" fill-opacity="1"></use><g><use xlink:href="#h1eoJFQDa1" opacity="1" fill-opacity="0" stroke="#000000" stroke-width="1" stroke-opacity="0"></use></g></g><g><use xlink:href="#d5BpZ9qE7K" opacity="1" fill="#000000" fill-opacity="0"></use><g><use xlink:href="#d5BpZ9qE7K" opacity="1" fill-opacity="0" stroke="#000000" stroke-width="1" stroke-opacity="0"></use></g></g><g><use xlink:href="#a36jRWLLuo" opacity="1" fill="#ffffff" fill-opacity="1"></use><g><use xlink:href="#a36jRWLLuo" opacity="1" fill-opacity="0" stroke="#000000" stroke-width="1" stroke-opacity="0"></use></g></g><g><use xlink:href="#bvKLDS2iD" opacity="1" fill="#000000" fill-opacity="0"></use><g><use xlink:href="#bvKLDS2iD" opacity="1" fill-opacity="0" stroke="#000000" stroke-width="1" stroke-opacity="0"></use></g></g><g><use xlink:href="#cbcaM9OKJ" opacity="1" fill="#ffffff" fill-opacity="1"></use><g><use xlink:href="#cbcaM9OKJ" opacity="1" fill-opacity="0" stroke="#000000" stroke-width="1" stroke-opacity="0"></use></g></g><g><use xlink:href="#eKOmMVd2P" opacity="1" fill="#000000" fill-opacity="0"></use><g><use xlink:href="#eKOmMVd2P" opacity="1" fill-opacity="0" stroke="#000000" stroke-width="1" stroke-opacity="0"></use></g></g><g><use xlink:href="#a35Qw5rmLr" opacity="1" fill="#ffffff" fill-opacity="1"></use><g><use xlink:href="#a35Qw5rmLr" opacity="1" fill-opacity="0" stroke="#000000" stroke-width="1" stroke-opacity="0"></use></g></g><g><use xlink:href="#c3WMKwdTD" opacity="1" fill="#000000" fill-opacity="0"></use><g><use xlink:href="#c3WMKwdTD" opacity="1" fill-opacity="0" stroke="#000000" stroke-width="1" stroke-opacity="0"></use></g></g><g><use xlink:href="#anq4yUDVD" opacity="1" fill="#ffffff" fill-opacity="1"></use><g><use xlink:href="#anq4yUDVD" opacity="1" fill-opacity="0" stroke="#000000" stroke-width="1" stroke-opacity="0"></use></g></g><g><use xlink:href="#a1V41hq0gq" opacity="1" fill="#000000" fill-opacity="0"></use><g><use xlink:href="#a1V41hq0gq" opacity="1" fill-opacity="0" stroke="#000000" stroke-width="1" stroke-opacity="0"></use></g></g><g><use xlink:href="#a9Goz2JF4" opacity="1" fill="#ffffff" fill-opacity="1"></use><g><use xlink:href="#a9Goz2JF4" opacity="1" fill-opacity="0" stroke="#000000" stroke-width="1" stroke-opacity="0"></use></g></g><g><use xlink:href="#bdx5ncJX" opacity="1" fill="#000000" fill-opacity="0"></use><g><use xlink:href="#bdx5ncJX" opacity="1" fill-opacity="0" stroke="#000000" stroke-width="1" stroke-opacity="0"></use></g></g><g><use xlink:href="#aPckTv17m" opacity="1" fill="#ffffff" fill-opacity="1"></use><g><use xlink:href="#aPckTv17m" opacity="1" fill-opacity="0" stroke="#000000" stroke-width="1" stroke-opacity="0"></use></g></g><g><use xlink:href="#b1h0ogOwLg" opacity="1" fill="#000000" fill-opacity="0"></use><g><use xlink:href="#b1h0ogOwLg" opacity="1" fill-opacity="0" stroke="#000000" stroke-width="1" stroke-opacity="0"></use></g></g><g><use xlink:href="#ayYQ0dlW2" opacity="1" fill="#ffffff" fill-opacity="1"></use><g><use xlink:href="#ayYQ0dlW2" opacity="1" fill-opacity="0" stroke="#000000" stroke-width="1" stroke-opacity="0"></use></g></g><g><use xlink:href="#a9N37deDFh" opacity="1" fill="#000000" fill-opacity="0"></use><g><use xlink:href="#a9N37deDFh" opacity="1" fill-opacity="0" stroke="#000000" stroke-width="1" stroke-opacity="0"></use></g></g><g><use xlink:href="#bWZJW99z2" opacity="1" fill="#ffffff" fill-opacity="1"></use><g><use xlink:href="#bWZJW99z2" opacity="1" fill-opacity="0" stroke="#000000" stroke-width="1" stroke-opacity="0"></use></g></g><g><use xlink:href="#avdYa5KMt" opacity="1" fill="#000000" fill-opacity="0"></use><g><use xlink:href="#avdYa5KMt" opacity="1" fill-opacity="0" stroke="#000000" stroke-width="1" stroke-opacity="0"></use></g></g><g><use xlink:href="#fxiv8QIEC" opacity="1" fill="#ffffff" fill-opacity="1"></use><g><use xlink:href="#fxiv8QIEC" opacity="1" fill-opacity="0" stroke="#000000" stroke-width="1" stroke-opacity="0"></use></g></g><g><use xlink:href="#b8qf7QlpL" opacity="1" fill="#000000" fill-opacity="0"></use><g><use xlink:href="#b8qf7QlpL" opacity="1" fill-opacity="0" stroke="#000000" stroke-width="1" stroke-opacity="0"></use></g></g><g><use xlink:href="#a4m0YXYs1" opacity="1" fill="#2bb673" fill-opacity="1"></use><g><use xlink:href="#a4m0YXYs1" opacity="1" fill-opacity="0" stroke="#000000" stroke-width="1" stroke-opacity="0"></use></g></g><g><use xlink:href="#c6K2PYr8e" opacity="1" fill="#000000" fill-opacity="0"></use><g><use xlink:href="#c6K2PYr8e" opacity="1" fill-opacity="0" stroke="#000000" stroke-width="1" stroke-opacity="0"></use></g></g><g><use xlink:href="#a7XRBZn96" opacity="1" fill="#ffffff" fill-opacity="1"></use><g><use xlink:href="#a7XRBZn96" opacity="1" fill-opacity="0" stroke="#000000" stroke-width="1" stroke-opacity="0"></use></g></g><g><use xlink:href="#b1JKewXM4f" opacity="1" fill="#000000" fill-opacity="0"></use><g><use xlink:href="#b1JKewXM4f" opacity="1" fill-opacity="0" stroke="#000000" stroke-width="1" stroke-opacity="0"></use></g></g><g><use xlink:href="#l9DqWvjyN8" opacity="1" fill="#53da99" fill-opacity="1"></use><g><use xlink:href="#l9DqWvjyN8" opacity="1" fill-opacity="0" stroke="#000000" stroke-width="1" stroke-opacity="0"></use></g></g><g><use xlink:href="#boJ8ikfhg" opacity="1" fill="#ffffff" fill-opacity="1"></use><g><use xlink:href="#boJ8ikfhg" opacity="1" fill-opacity="0" stroke="#000000" stroke-width="1" stroke-opacity="0"></use></g></g><g><use xlink:href="#b13n3j2JEF" opacity="1" fill="#000000" fill-opacity="0"></use><g><use xlink:href="#b13n3j2JEF" opacity="1" fill-opacity="0" stroke="#000000" stroke-width="1" stroke-opacity="0"></use></g></g><g><use xlink:href="#a5wGi4VoLw" opacity="1" fill="#ffde17" fill-opacity="1"></use><g><use xlink:href="#a5wGi4VoLw" opacity="1" fill-opacity="0" stroke="#000000" stroke-width="1" stroke-opacity="0"></use></g></g><g><use xlink:href="#cka7s9iE2" opacity="1" fill="#000000" fill-opacity="0"></use><g><use xlink:href="#cka7s9iE2" opacity="1" fill-opacity="0" stroke="#000000" stroke-width="1" stroke-opacity="0"></use></g></g><g><use xlink:href="#d1qiM7V91Z" opacity="1" fill="#ffffff" fill-opacity="1"></use><g><use xlink:href="#d1qiM7V91Z" opacity="1" fill-opacity="0" stroke="#000000" stroke-width="1" stroke-opacity="0"></use></g></g><g><use xlink:href="#bQQ6kiBw" opacity="1" fill="#000000" fill-opacity="0"></use><g><use xlink:href="#bQQ6kiBw" opacity="1" fill-opacity="0" stroke="#000000" stroke-width="1" stroke-opacity="0"></use></g></g><g><use xlink:href="#efNj3Pq4w" opacity="1" fill="#ffffff" fill-opacity="1"></use><g><use xlink:href="#efNj3Pq4w" opacity="1" fill-opacity="0" stroke="#000000" stroke-width="1" stroke-opacity="0"></use></g></g><g><use xlink:href="#a3KR3LfyTF" opacity="1" fill="#000000" fill-opacity="0"></use><g><use xlink:href="#a3KR3LfyTF" opacity="1" fill-opacity="0" stroke="#000000" stroke-width="1" stroke-opacity="0"></use></g></g><g><use xlink:href="#b3KHvNT9Z" opacity="1" fill="#ffffff" fill-opacity="1"></use><g><use xlink:href="#b3KHvNT9Z" opacity="1" fill-opacity="0" stroke="#000000" stroke-width="1" stroke-opacity="0"></use></g></g><g><use xlink:href="#ca2JiTlRt" opacity="1" fill="#000000" fill-opacity="0"></use><g><use xlink:href="#ca2JiTlRt" opacity="1" fill-opacity="0" stroke="#000000" stroke-width="1" stroke-opacity="0"></use></g></g><g><use xlink:href="#e1ttbGCqxv" opacity="1" fill="#ffffff" fill-opacity="1"></use><g><use xlink:href="#e1ttbGCqxv" opacity="1" fill-opacity="0" stroke="#000000" stroke-width="1" stroke-opacity="0"></use></g></g><g><use xlink:href="#a1ZJ9wivOT" opacity="1" fill="#000000" fill-opacity="0"></use><g><use xlink:href="#a1ZJ9wivOT" opacity="1" fill-opacity="0" stroke="#000000" stroke-width="1" stroke-opacity="0"></use></g></g><g><use xlink:href="#d2CTfLSvcH" opacity="1" fill="#ffffff" fill-opacity="1"></use><g><use xlink:href="#d2CTfLSvcH" opacity="1" fill-opacity="0" stroke="#000000" stroke-width="1" stroke-opacity="0"></use></g></g><g><use xlink:href="#gCVGCQP33" opacity="1" fill="#000000" fill-opacity="0"></use><g><use xlink:href="#gCVGCQP33" opacity="1" fill-opacity="0" stroke="#000000" stroke-width="1" stroke-opacity="0"></use></g></g><g><use xlink:href="#b1gmhWIFoC" opacity="1" fill="#ffffff" fill-opacity="1"></use><g><use xlink:href="#b1gmhWIFoC" opacity="1" fill-opacity="0" stroke="#000000" stroke-width="1" stroke-opacity="0"></use></g></g><g><use xlink:href="#ai9ntLppL" opacity="1" fill="#000000" fill-opacity="0"></use><g><use xlink:href="#ai9ntLppL" opacity="1" fill-opacity="0" stroke="#000000" stroke-width="1" stroke-opacity="0"></use></g></g></g></g></svg>