<?xml version="1.0" encoding="UTF-8" standalone="no"?>
<!DOCTYPE svg PUBLIC "-//W3C//DTD SVG 1.1//EN" "http://www.w3.org/Graphics/SVG/1.1/DTD/svg11.dtd">
<svg version="1.1" xmlns="http://www.w3.org/2000/svg" xmlns:xlink="http://www.w3.org/1999/xlink" preserveAspectRatio="xMidYMid meet" viewBox="0 0 640 640" width="640" height="640"><defs><path d="M717.95 -11.44C717.95 -11.44 717.95 -11.44 717.95 -11.44C717.95 382.86 717.95 601.91 717.95 645.72C717.95 645.72 717.95 645.72 717.95 645.72C237.95 645.72 -28.72 645.72 -82.05 645.72C-82.05 645.72 -82.05 645.72 -82.05 645.72C-82.05 251.42 -82.05 32.37 -82.05 -11.44C-82.05 -11.44 -82.05 -11.44 -82.05 -11.44C397.95 -11.44 664.62 -11.44 717.95 -11.44Z" id="a3qUXY10Fw"></path><path d="M481.26 625.27C442.36 545.82 387.78 474.23 278.63 513.44C164.69 554.38 133.97 367 -11.19 456.06C-11.12 474.66 -10.76 567.7 -10.12 735.16L596.68 732.82C545.67 714.09 507.2 678.23 481.26 625.27Z" id="fI8zH6xBz"></path><path d="M557.51 -662.79C447.61 -710.99 413.51 -850.29 230.51 -817.29C47.51 -784.29 13.01 -925.29 13.01 -925.29C59.51 -925.29 292.01 -925.29 710.51 -925.29L710.51 -683.79C666.18 -644.53 615.18 -637.53 557.51 -662.79Z" id="auxHmYZLj"></path><path d="M-35.75 -447.53C4.75 -370.63 38.05 -294.53 117.85 -304.63C225.25 -318.13 231.05 -523.13 312.25 -534.13C393.25 -545.13 411.25 -402.13 496.75 -402.13C582.25 -402.13 578.45 -550.63 663.55 -550.63C663.55 -556.53 663.55 -586.03 663.55 -639.13L-40.45 -639.13L-40.45 -455.93C-38.38 -452.26 -36.82 -449.46 -35.75 -447.53Z" id="a16Oy1kpL2"></path><path d="M789.6 96.1C789.6 96.3 789.6 96.4 789.6 96.6C789.8 97.5 790.5 98.3 791.5 98.5C791.7 98.5 791.8 98.5 792 98.5C792.2 98.5 792.3 98.5 792.5 98.5C793.4 98.3 794.2 97.6 794.4 96.6C794.4 96.4 794.4 96.3 794.4 96.1C794.4 94.8 793.3 93.7 792 93.7C790.7 93.7 789.6 94.8 789.6 96.1Z" id="i5D5snIFG"></path><path d="M792 69.7C790.67 69.7 789.6 70.77 789.6 72.1C789.6 73.43 790.67 74.5 792 74.5C793.33 74.5 794.4 73.43 794.4 72.1C794.4 70.77 793.33 69.7 792 69.7Z" id="boYdwCJ63"></path><path d="M789.6 144.1C789.6 144.3 789.6 144.4 789.6 144.6C789.8 145.5 790.5 146.3 791.5 146.5C791.7 146.5 791.8 146.5 792 146.5C792.2 146.5 792.3 146.5 792.5 146.5C793.4 146.3 794.2 145.6 794.4 144.6C794.4 144.4 794.4 144.3 794.4 144.1C794.4 142.8 793.3 141.7 792 141.7C790.7 141.7 789.6 142.8 789.6 144.1Z" id="a4g9yDuA3e"></path><path d="M792 117.7C790.67 117.7 789.6 118.77 789.6 120.1C789.6 121.43 790.67 122.5 792 122.5C793.33 122.5 794.4 121.43 794.4 120.1C794.4 118.77 793.33 117.7 792 117.7Z" id="gSNGEFlJj"></path><path d="M792 189.7C790.67 189.7 789.6 190.77 789.6 192.1C789.6 193.43 790.67 194.5 792 194.5C793.33 194.5 794.4 193.43 794.4 192.1C794.4 190.77 793.33 189.7 792 189.7Z" id="caniFgvxe"></path><path d="M794.4 0.1C793.92 0.1 790.08 0.1 789.6 0.1C789.6 1.4 790.7 2.5 792 2.5C793.3 2.5 794.4 1.4 794.4 0.1Z" id="c2QOtfr9Z"></path><path d="M792 165.7C790.67 165.7 789.6 166.77 789.6 168.1C789.6 169.43 790.67 170.5 792 170.5C793.33 170.5 794.4 169.43 794.4 168.1C794.4 166.77 793.33 165.7 792 165.7Z" id="j3oiQhHQ9d"></path><path d="M790 238.8C789.7 239.2 789.6 239.6 789.6 240.1C789.6 241.4 790.7 242.5 792 242.5C793.3 242.5 794.4 241.4 794.4 240.1C794.4 239.6 794.2 239.1 794 238.8C793.6 238.1 792.8 237.7 792 237.7C791.2 237.7 790.4 238.1 790 238.8Z" id="b3ZdSaftPL"></path><path d="M792 45.7C790.67 45.7 789.6 46.77 789.6 48.1C789.6 49.43 790.67 50.5 792 50.5C793.33 50.5 794.4 49.43 794.4 48.1C794.4 46.77 793.33 45.7 792 45.7Z" id="bWcQ4qLQN"></path><path d="M792 21.7C790.67 21.7 789.6 22.77 789.6 24.1C789.6 25.43 790.67 26.5 792 26.5C793.33 26.5 794.4 25.43 794.4 24.1C794.4 22.77 793.33 21.7 792 21.7Z" id="abF5ScINs"></path><path d="M792 213.7C790.67 213.7 789.6 214.77 789.6 216.1C789.6 217.43 790.67 218.5 792 218.5C793.33 218.5 794.4 217.43 794.4 216.1C794.4 214.77 793.33 213.7 792 213.7Z" id="d1l8UkGNEx"></path><path d="M792 261.7C790.67 261.7 789.6 262.77 789.6 264.1C789.6 265.43 790.67 266.5 792 266.5C793.33 266.5 794.4 265.43 794.4 264.1C794.4 262.77 793.33 261.7 792 261.7Z" id="b2tAeej6Z6"></path><path d="M217.6 -50.29C216.27 -50.29 215.2 -49.22 215.2 -47.89C215.2 -46.56 216.27 -45.49 217.6 -45.49C218.93 -45.49 220 -46.56 220 -47.89C220 -49.22 218.93 -50.29 217.6 -50.29Z" id="f7828SQFlD"></path><path d="M307.55 -680.63C306.22 -680.63 305.15 -679.55 305.15 -678.23C305.15 -676.9 306.22 -675.83 307.55 -675.83C308.88 -675.83 309.95 -676.9 309.95 -678.23C309.95 -679.55 308.88 -680.63 307.55 -680.63Z" id="boWvCPGqe"></path><path d="M307.55 -704.63C306.22 -704.63 305.15 -703.55 305.15 -702.23C305.15 -700.9 306.22 -699.83 307.55 -699.83C308.88 -699.83 309.95 -700.9 309.95 -702.23C309.95 -703.55 308.88 -704.63 307.55 -704.63Z" id="b1JVBaBmBD"></path><path d="M295.55 -668.63C294.22 -668.63 293.15 -667.55 293.15 -666.23C293.15 -664.9 294.22 -663.83 295.55 -663.83C296.88 -663.83 297.95 -664.9 297.95 -666.23C297.95 -667.55 296.88 -668.63 295.55 -668.63Z" id="gMYW2TpDj"></path><path d="M295.55 -692.63C294.22 -692.63 293.15 -691.55 293.15 -690.23C293.15 -688.9 294.22 -687.83 295.55 -687.83C296.88 -687.83 297.95 -688.9 297.95 -690.23C297.95 -691.55 296.88 -692.63 295.55 -692.63Z" id="bxvQTR5aF"></path><path d="M307.55 -632.63C306.22 -632.63 305.15 -631.55 305.15 -630.23C305.15 -628.9 306.22 -627.83 307.55 -627.83C308.88 -627.83 309.95 -628.9 309.95 -630.23C309.95 -631.55 308.88 -632.63 307.55 -632.63Z" id="a63W3ZbSK"></path><path d="M307.55 -656.63C306.22 -656.63 305.15 -655.55 305.15 -654.23C305.15 -652.9 306.22 -651.83 307.55 -651.83C308.88 -651.83 309.95 -652.9 309.95 -654.23C309.95 -655.55 308.88 -656.63 307.55 -656.63Z" id="d2hAxLJkLT"></path><path d="M295.55 -644.63C294.22 -644.63 293.15 -643.55 293.15 -642.23C293.15 -640.9 294.22 -639.83 295.55 -639.83C296.88 -639.83 297.95 -640.9 297.95 -642.23C297.95 -643.55 296.88 -644.63 295.55 -644.63Z" id="f5Iz9Y7kRV"></path><path d="M271.55 -668.63C270.22 -668.63 269.15 -667.55 269.15 -666.23C269.15 -664.9 270.22 -663.83 271.55 -663.83C272.88 -663.83 273.95 -664.9 273.95 -666.23C273.95 -667.55 272.88 -668.63 271.55 -668.63Z" id="a2hbKE700M"></path><path d="M271.55 -692.63C270.22 -692.63 269.15 -691.55 269.15 -690.23C269.15 -688.9 270.22 -687.83 271.55 -687.83C272.88 -687.83 273.95 -688.9 273.95 -690.23C273.95 -691.55 272.88 -692.63 271.55 -692.63Z" id="aNcDDObkX"></path><path d="M283.55 -680.63C282.22 -680.63 281.15 -679.55 281.15 -678.23C281.15 -676.9 282.22 -675.83 283.55 -675.83C284.88 -675.83 285.95 -676.9 285.95 -678.23C285.95 -679.55 284.88 -680.63 283.55 -680.63Z" id="i2UmJ1gPqO"></path><path d="M259.55 -680.63C258.22 -680.63 257.15 -679.55 257.15 -678.23C257.15 -676.9 258.22 -675.83 259.55 -675.83C260.88 -675.83 261.95 -676.9 261.95 -678.23C261.95 -679.55 260.88 -680.63 259.55 -680.63Z" id="aN5KL57oF"></path><path d="M283.55 -704.63C282.22 -704.63 281.15 -703.55 281.15 -702.23C281.15 -700.9 282.22 -699.83 283.55 -699.83C284.88 -699.83 285.95 -700.9 285.95 -702.23C285.95 -703.55 284.88 -704.63 283.55 -704.63Z" id="a5OMCjMnas"></path><path d="M259.55 -704.63C258.22 -704.63 257.15 -703.55 257.15 -702.23C257.15 -700.9 258.22 -699.83 259.55 -699.83C260.88 -699.83 261.95 -700.9 261.95 -702.23C261.95 -703.55 260.88 -704.63 259.55 -704.63Z" id="haIWP8EC2"></path><path d="M273.95 -714.23C273.47 -714.23 269.63 -714.23 269.15 -714.23C269.15 -712.93 270.25 -711.83 271.55 -711.83C272.85 -711.83 273.95 -712.93 273.95 -714.23Z" id="c46Zje8vf"></path><path d="M295.55 -711.83C296.85 -711.83 297.95 -712.93 297.95 -714.23C297.79 -714.23 296.99 -714.23 295.55 -714.23L293.15 -714.23C293.88 -712.63 294.68 -711.83 295.55 -711.83Z" id="a1Ex0TCYkg"></path><path d="M271.55 -644.63C270.22 -644.63 269.15 -643.55 269.15 -642.23C269.15 -640.9 270.22 -639.83 271.55 -639.83C272.88 -639.83 273.95 -640.9 273.95 -642.23C273.95 -643.55 272.88 -644.63 271.55 -644.63Z" id="aaoaqcCgM"></path><path d="M283.55 -632.63C282.22 -632.63 281.15 -631.55 281.15 -630.23C281.15 -628.9 282.22 -627.83 283.55 -627.83C284.88 -627.83 285.95 -628.9 285.95 -630.23C285.95 -631.55 284.88 -632.63 283.55 -632.63Z" id="alp5Mm42"></path><path d="M259.55 -632.63C258.22 -632.63 257.15 -631.55 257.15 -630.23C257.15 -628.9 258.22 -627.83 259.55 -627.83C260.88 -627.83 261.95 -628.9 261.95 -630.23C261.95 -631.55 260.88 -632.63 259.55 -632.63Z" id="ajw8UrZem"></path><path d="M283.55 -656.63C282.22 -656.63 281.15 -655.55 281.15 -654.23C281.15 -652.9 282.22 -651.83 283.55 -651.83C284.88 -651.83 285.95 -652.9 285.95 -654.23C285.95 -655.55 284.88 -656.63 283.55 -656.63Z" id="d8QWvXOF8O"></path><path d="M259.55 -656.63C258.22 -656.63 257.15 -655.55 257.15 -654.23C257.15 -652.9 258.22 -651.83 259.55 -651.83C260.88 -651.83 261.95 -652.9 261.95 -654.23C261.95 -655.55 260.88 -656.63 259.55 -656.63Z" id="h16tRh8yu4"></path><path d="M567.1 -63.54C565.99 -63.54 560.42 -63.54 550.4 -63.54L550.4 -59.94L564.9 -59.94C565.9 -61.54 566.64 -62.74 567.1 -63.54Z" id="e2nq3h7RCF"></path><path d="M112.55 -451.73C205.55 -468.23 256.55 -639.23 439.55 -606.23C622.55 -573.23 657.05 -714.23 657.05 -714.23C610.55 -714.23 378.05 -714.23 -40.45 -714.23L-40.45 -472.73C-0.45 -447.73 50.55 -440.73 112.55 -451.73Z" id="h17zA2C1X7"></path><path d="M194.4 0.1C194.28 0.1 193.32 0.1 193.2 0.1C193.2 0.1 193.6 0.2 194.4 0.5C194.4 0.4 194.4 0.2 194.4 0.1Z" id="d52tYDNCX"></path><path d="M-3.69 190.24C-1.15 190.45 1.5 190.67 4.26 190.67C68.38 190.67 98.59 155.56 141.52 42.27C150 19.72 160.07 1.1 169.71 -13.79C158.15 -13.79 100.35 -13.79 -3.69 -13.79C-3.69 108.63 -3.69 176.64 -3.69 190.24Z" id="fHCHE4wHB"></path><path d="M384.02 -87.17C384.72 -88.37 385.32 -89.57 386.02 -90.77C385.38 -90.77 382.18 -90.77 376.42 -90.77L376.42 -87.17C380.98 -87.17 383.51 -87.17 384.02 -87.17Z" id="a2VGWhZJx"></path><path d="M67.55 -628.63C137.65 -611.93 180.25 -535.63 288.05 -546.13C419.55 -558.93 468.05 -714.23 468.05 -714.23C434.15 -714.23 264.65 -714.23 -40.45 -714.23L-40.45 -606.13C-6.32 -630.13 29.68 -637.63 67.55 -628.63Z" id="dcbQCdM3F"></path><path d="M144.3 16.3C144.3 16.3 144.3 16.3 144.3 16.3C144.3 18.46 144.3 19.66 144.3 19.9C144.3 19.9 144.3 19.9 144.3 19.9C144.12 19.9 144.02 19.9 144 19.9C144 19.9 144 19.9 144 19.9C144 17.74 144 16.54 144 16.3C144 16.3 144 16.3 144 16.3C144.18 16.3 144.28 16.3 144.3 16.3Z" id="baI2bvroh"></path><path d="M144.3 4.3C144.3 4.3 144.3 4.3 144.3 4.3C144.3 6.46 144.3 7.66 144.3 7.9C144.3 7.9 144.3 7.9 144.3 7.9C144.12 7.9 144.02 7.9 144 7.9C144 7.9 144 7.9 144 7.9C144 5.74 144 4.54 144 4.3C144 4.3 144 4.3 144 4.3C144.18 4.3 144.28 4.3 144.3 4.3Z" id="iKabBt5qv"></path><path d="M274.8 -97.23C271.44 -97.23 254.64 -97.23 224.4 -97.23L224.4 -93.63L273.2 -93.63C273.87 -95.23 274.4 -96.43 274.8 -97.23Z" id="gdxdSzGis"></path><path d="M0.3 184.3C0.3 184.3 0.3 184.3 0.3 184.3C0.3 186.46 0.3 187.66 0.3 187.9C0.3 187.9 0.3 187.9 0.3 187.9C0.12 187.9 0.02 187.9 0 187.9C0 187.9 0 187.9 0 187.9C0 185.74 0 184.54 0 184.3C0 184.3 0 184.3 0 184.3C0.18 184.3 0.28 184.3 0.3 184.3Z" id="f8s5fhezqN"></path><path d="M0.3 160.3C0.3 160.3 0.3 160.3 0.3 160.3C0.3 162.46 0.3 163.66 0.3 163.9C0.3 163.9 0.3 163.9 0.3 163.9C0.12 163.9 0.02 163.9 0 163.9C0 163.9 0 163.9 0 163.9C0 161.74 0 160.54 0 160.3C0 160.3 0 160.3 0 160.3C0.18 160.3 0.28 160.3 0.3 160.3Z" id="f4uQwuelGJ"></path><path d="M0.3 172.3C0.3 172.3 0.3 172.3 0.3 172.3C0.3 174.46 0.3 175.66 0.3 175.9C0.3 175.9 0.3 175.9 0.3 175.9C0.12 175.9 0.02 175.9 0 175.9C0 175.9 0 175.9 0 175.9C0 173.74 0 172.54 0 172.3C0 172.3 0 172.3 0 172.3C0.18 172.3 0.28 172.3 0.3 172.3Z" id="b35SRoJWRs"></path></defs><g><g><g><use xlink:href="#a3qUXY10Fw" opacity="1" fill="#2c2360" fill-opacity="1"></use><g><use xlink:href="#a3qUXY10Fw" opacity="1" fill-opacity="0" stroke="#000000" stroke-width="1" stroke-opacity="0"></use></g></g><g><use xlink:href="#fI8zH6xBz" opacity="1" fill="#ee2a7b" fill-opacity="1"></use><g><use xlink:href="#fI8zH6xBz" opacity="1" fill-opacity="0" stroke="#000000" stroke-width="1" stroke-opacity="0"></use></g></g><g><use xlink:href="#auxHmYZLj" opacity="1" fill="#ffde17" fill-opacity="1"></use><g><use xlink:href="#auxHmYZLj" opacity="1" fill-opacity="0" stroke="#000000" stroke-width="1" stroke-opacity="0"></use></g></g><g><use xlink:href="#a16Oy1kpL2" opacity="1" fill="#ffffff" fill-opacity="1"></use><g><use xlink:href="#a16Oy1kpL2" opacity="1" fill-opacity="0" stroke="#000000" stroke-width="1" stroke-opacity="0"></use></g></g><g><use xlink:href="#i5D5snIFG" opacity="1" fill="#ffffff" fill-opacity="1"></use><g><use xlink:href="#i5D5snIFG" opacity="1" fill-opacity="0" stroke="#000000" stroke-width="1" stroke-opacity="0"></use></g></g><g><use xlink:href="#boYdwCJ63" opacity="1" fill="#ffffff" fill-opacity="1"></use><g><use xlink:href="#boYdwCJ63" opacity="1" fill-opacity="0" stroke="#000000" stroke-width="1" stroke-opacity="0"></use></g></g><g><use xlink:href="#a4g9yDuA3e" opacity="1" fill="#ffffff" fill-opacity="1"></use><g><use xlink:href="#a4g9yDuA3e" opacity="1" fill-opacity="0" stroke="#000000" stroke-width="1" stroke-opacity="0"></use></g></g><g><use xlink:href="#gSNGEFlJj" opacity="1" fill="#ffffff" fill-opacity="1"></use><g><use xlink:href="#gSNGEFlJj" opacity="1" fill-opacity="0" stroke="#000000" stroke-width="1" stroke-opacity="0"></use></g></g><g><use xlink:href="#caniFgvxe" opacity="1" fill="#ffffff" fill-opacity="1"></use><g><use xlink:href="#caniFgvxe" opacity="1" fill-opacity="0" stroke="#000000" stroke-width="1" stroke-opacity="0"></use></g></g><g><use xlink:href="#c2QOtfr9Z" opacity="1" fill="#ffffff" fill-opacity="1"></use><g><use xlink:href="#c2QOtfr9Z" opacity="1" fill-opacity="0" stroke="#000000" stroke-width="1" stroke-opacity="0"></use></g></g><g><use xlink:href="#j3oiQhHQ9d" opacity="1" fill="#ffffff" fill-opacity="1"></use><g><use xlink:href="#j3oiQhHQ9d" opacity="1" fill-opacity="0" stroke="#000000" stroke-width="1" stroke-opacity="0"></use></g></g><g><use xlink:href="#b3ZdSaftPL" opacity="1" fill="#ffffff" fill-opacity="1"></use><g><use xlink:href="#b3ZdSaftPL" opacity="1" fill-opacity="0" stroke="#000000" stroke-width="1" stroke-opacity="0"></use></g></g><g><use xlink:href="#bWcQ4qLQN" opacity="1" fill="#ffffff" fill-opacity="1"></use><g><use xlink:href="#bWcQ4qLQN" opacity="1" fill-opacity="0" stroke="#000000" stroke-width="1" stroke-opacity="0"></use></g></g><g><use xlink:href="#abF5ScINs" opacity="1" fill="#ffffff" fill-opacity="1"></use><g><use xlink:href="#abF5ScINs" opacity="1" fill-opacity="0" stroke="#000000" stroke-width="1" stroke-opacity="0"></use></g></g><g><use xlink:href="#d1l8UkGNEx" opacity="1" fill="#ffffff" fill-opacity="1"></use><g><use xlink:href="#d1l8UkGNEx" opacity="1" fill-opacity="0" stroke="#000000" stroke-width="1" stroke-opacity="0"></use></g></g><g><use xlink:href="#b2tAeej6Z6" opacity="1" fill="#ffffff" fill-opacity="1"></use><g><use xlink:href="#b2tAeej6Z6" opacity="1" fill-opacity="0" stroke="#000000" stroke-width="1" stroke-opacity="0"></use></g></g><g><use xlink:href="#f7828SQFlD" opacity="1" fill="#ffffff" fill-opacity="1"></use><g><use xlink:href="#f7828SQFlD" opacity="1" fill-opacity="0" stroke="#000000" stroke-width="1" stroke-opacity="0"></use></g></g><g><use xlink:href="#boWvCPGqe" opacity="1" fill="#ffffff" fill-opacity="1"></use><g><use xlink:href="#boWvCPGqe" opacity="1" fill-opacity="0" stroke="#000000" stroke-width="1" stroke-opacity="0"></use></g></g><g><use xlink:href="#b1JVBaBmBD" opacity="1" fill="#ffffff" fill-opacity="1"></use><g><use xlink:href="#b1JVBaBmBD" opacity="1" fill-opacity="0" stroke="#000000" stroke-width="1" stroke-opacity="0"></use></g></g><g><use xlink:href="#gMYW2TpDj" opacity="1" fill="#ffffff" fill-opacity="1"></use><g><use xlink:href="#gMYW2TpDj" opacity="1" fill-opacity="0" stroke="#000000" stroke-width="1" stroke-opacity="0"></use></g></g><g><use xlink:href="#bxvQTR5aF" opacity="1" fill="#ffffff" fill-opacity="1"></use><g><use xlink:href="#bxvQTR5aF" opacity="1" fill-opacity="0" stroke="#000000" stroke-width="1" stroke-opacity="0"></use></g></g><g><use xlink:href="#a63W3ZbSK" opacity="1" fill="#ffffff" fill-opacity="1"></use><g><use xlink:href="#a63W3ZbSK" opacity="1" fill-opacity="0" stroke="#000000" stroke-width="1" stroke-opacity="0"></use></g></g><g><use xlink:href="#d2hAxLJkLT" opacity="1" fill="#ffffff" fill-opacity="1"></use><g><use xlink:href="#d2hAxLJkLT" opacity="1" fill-opacity="0" stroke="#000000" stroke-width="1" stroke-opacity="0"></use></g></g><g><use xlink:href="#f5Iz9Y7kRV" opacity="1" fill="#ffffff" fill-opacity="1"></use><g><use xlink:href="#f5Iz9Y7kRV" opacity="1" fill-opacity="0" stroke="#000000" stroke-width="1" stroke-opacity="0"></use></g></g><g><use xlink:href="#a2hbKE700M" opacity="1" fill="#ffffff" fill-opacity="1"></use><g><use xlink:href="#a2hbKE700M" opacity="1" fill-opacity="0" stroke="#000000" stroke-width="1" stroke-opacity="0"></use></g></g><g><use xlink:href="#aNcDDObkX" opacity="1" fill="#ffffff" fill-opacity="1"></use><g><use xlink:href="#aNcDDObkX" opacity="1" fill-opacity="0" stroke="#000000" stroke-width="1" stroke-opacity="0"></use></g></g><g><use xlink:href="#i2UmJ1gPqO" opacity="1" fill="#ffffff" fill-opacity="1"></use><g><use xlink:href="#i2UmJ1gPqO" opacity="1" fill-opacity="0" stroke="#000000" stroke-width="1" stroke-opacity="0"></use></g></g><g><use xlink:href="#aN5KL57oF" opacity="1" fill="#ffffff" fill-opacity="1"></use><g><use xlink:href="#aN5KL57oF" opacity="1" fill-opacity="0" stroke="#000000" stroke-width="1" stroke-opacity="0"></use></g></g><g><use xlink:href="#a5OMCjMnas" opacity="1" fill="#ffffff" fill-opacity="1"></use><g><use xlink:href="#a5OMCjMnas" opacity="1" fill-opacity="0" stroke="#000000" stroke-width="1" stroke-opacity="0"></use></g></g><g><use xlink:href="#haIWP8EC2" opacity="1" fill="#ffffff" fill-opacity="1"></use><g><use xlink:href="#haIWP8EC2" opacity="1" fill-opacity="0" stroke="#000000" stroke-width="1" stroke-opacity="0"></use></g></g><g><use xlink:href="#c46Zje8vf" opacity="1" fill="#ffffff" fill-opacity="1"></use><g><use xlink:href="#c46Zje8vf" opacity="1" fill-opacity="0" stroke="#000000" stroke-width="1" stroke-opacity="0"></use></g></g><g><use xlink:href="#a1Ex0TCYkg" opacity="1" fill="#ffffff" fill-opacity="1"></use><g><use xlink:href="#a1Ex0TCYkg" opacity="1" fill-opacity="0" stroke="#000000" stroke-width="1" stroke-opacity="0"></use></g></g><g><use xlink:href="#aaoaqcCgM" opacity="1" fill="#ffffff" fill-opacity="1"></use><g><use xlink:href="#aaoaqcCgM" opacity="1" fill-opacity="0" stroke="#000000" stroke-width="1" stroke-opacity="0"></use></g></g><g><use xlink:href="#alp5Mm42" opacity="1" fill="#ffffff" fill-opacity="1"></use><g><use xlink:href="#alp5Mm42" opacity="1" fill-opacity="0" stroke="#000000" stroke-width="1" stroke-opacity="0"></use></g></g><g><use xlink:href="#ajw8UrZem" opacity="1" fill="#ffffff" fill-opacity="1"></use><g><use xlink:href="#ajw8UrZem" opacity="1" fill-opacity="0" stroke="#000000" stroke-width="1" stroke-opacity="0"></use></g></g><g><use xlink:href="#d8QWvXOF8O" opacity="1" fill="#ffffff" fill-opacity="1"></use><g><use xlink:href="#d8QWvXOF8O" opacity="1" fill-opacity="0" stroke="#000000" stroke-width="1" stroke-opacity="0"></use></g></g><g><use xlink:href="#h16tRh8yu4" opacity="1" fill="#ffffff" fill-opacity="1"></use><g><use xlink:href="#h16tRh8yu4" opacity="1" fill-opacity="0" stroke="#000000" stroke-width="1" stroke-opacity="0"></use></g></g><g><use xlink:href="#e2nq3h7RCF" opacity="1" fill="#ffffff" fill-opacity="1"></use><g><use xlink:href="#e2nq3h7RCF" opacity="1" fill-opacity="0" stroke="#000000" stroke-width="1" stroke-opacity="0"></use></g></g><g><use xlink:href="#h17zA2C1X7" opacity="1" fill="#2bb673" fill-opacity="1"></use><g><use xlink:href="#h17zA2C1X7" opacity="1" fill-opacity="0" stroke="#000000" stroke-width="1" stroke-opacity="0"></use></g></g><g><use xlink:href="#d52tYDNCX" opacity="1" fill="#ffffff" fill-opacity="1"></use><g><use xlink:href="#d52tYDNCX" opacity="1" fill-opacity="0" stroke="#000000" stroke-width="1" stroke-opacity="0"></use></g></g><g><use xlink:href="#fHCHE4wHB" opacity="1" fill="#ee2a7b" fill-opacity="1"></use><g><use xlink:href="#fHCHE4wHB" opacity="1" fill-opacity="0" stroke="#000000" stroke-width="1" stroke-opacity="0"></use></g></g><g><use xlink:href="#a2VGWhZJx" opacity="1" fill="#ffffff" fill-opacity="1"></use><g><use xlink:href="#a2VGWhZJx" opacity="1" fill-opacity="0" stroke="#000000" stroke-width="1" stroke-opacity="0"></use></g></g><g><use xlink:href="#dcbQCdM3F" opacity="1" fill="#ffde17" fill-opacity="1"></use><g><use xlink:href="#dcbQCdM3F" opacity="1" fill-opacity="0" stroke="#000000" stroke-width="1" stroke-opacity="0"></use></g></g><g><use xlink:href="#baI2bvroh" opacity="1" fill="#ffffff" fill-opacity="1"></use><g><use xlink:href="#baI2bvroh" opacity="1" fill-opacity="0" stroke="#000000" stroke-width="1" stroke-opacity="0"></use></g></g><g><use xlink:href="#iKabBt5qv" opacity="1" fill="#ffffff" fill-opacity="1"></use><g><use xlink:href="#iKabBt5qv" opacity="1" fill-opacity="0" stroke="#000000" stroke-width="1" stroke-opacity="0"></use></g></g><g><use xlink:href="#gdxdSzGis" opacity="1" fill="#ffffff" fill-opacity="1"></use><g><use xlink:href="#gdxdSzGis" opacity="1" fill-opacity="0" stroke="#000000" stroke-width="1" stroke-opacity="0"></use></g></g><g><use xlink:href="#f8s5fhezqN" opacity="1" fill="#ffffff" fill-opacity="1"></use><g><use xlink:href="#f8s5fhezqN" opacity="1" fill-opacity="0" stroke="#000000" stroke-width="1" stroke-opacity="0"></use></g></g><g><use xlink:href="#f4uQwuelGJ" opacity="1" fill="#ffffff" fill-opacity="1"></use><g><use xlink:href="#f4uQwuelGJ" opacity="1" fill-opacity="0" stroke="#000000" stroke-width="1" stroke-opacity="0"></use></g></g><g><use xlink:href="#b35SRoJWRs" opacity="1" fill="#ffffff" fill-opacity="1"></use><g><use xlink:href="#b35SRoJWRs" opacity="1" fill-opacity="0" stroke="#000000" stroke-width="1" stroke-opacity="0"></use></g></g></g></g></svg>