<svg xmlns="http://www.w3.org/2000/svg" xmlns:xlink="http://www.w3.org/1999/xlink" width="461.757" height="367.098" viewBox="0 0 461.757 367.098">
  <defs>
    <linearGradient id="linear-gradient" x1="0.5" y1="1" x2="0.5" gradientUnits="objectBoundingBox">
      <stop offset="0" stop-color="gray" stop-opacity="0.251"/>
      <stop offset="0.54" stop-color="gray" stop-opacity="0.122"/>
      <stop offset="1" stop-color="gray" stop-opacity="0.102"/>
    </linearGradient>
  </defs>
  <g id="undraw_book_lover_mkck" transform="translate(0 -0.008)">
    <path id="Path_336" data-name="Path 336" d="M366.683,119.73c-29.218-1.016-57.049-10.446-83.621-20.766S230.17,77.208,201.653,71.741c-18.342-3.517-39.321-4.013-54.1,5.819-14.225,9.48-18.821,25.8-21.29,40.96-1.86,11.4-2.952,23.4,2.144,34.08,3.535,7.413,9.814,13.643,14.153,20.766,15.11,24.7,4.433,55.167-11.941,79.287-7.675,11.318-16.591,22.121-22.514,34.156s-8.668,25.845-3.485,38.134c5.142,12.189,17.39,21.326,30.653,27.759,26.947,13.069,58.688,16.807,89.661,18.925,68.543,4.691,137.447,2.659,206.17.628,25.434-.754,50.977-1.517,76-5.449,13.9-2.185,28.238-5.648,38.328-14.017,12.8-10.622,15.977-28.613,7.4-41.93-14.4-22.342-54.173-27.89-64.25-51.871-5.535-13.2.154-27.895,8.2-40.138,17.263-26.256,46.2-49.293,47.722-79.305,1.047-20.617-12.866-41.258-34.373-51.013-22.541-10.261-53.808-8.961-70.43,7.963C422.571,113.933,392.478,120.624,366.683,119.73Z" transform="translate(-95.879 -57.688)" fill="#e8aea6" opacity="0.1"/>
    <path id="Path_337" data-name="Path 337" d="M229.034,530.091l-154.52-.754L59.16,493.326l54.291-3.941L103.988,449.9l107.381-13.918L108.544,400.238l9.083-2.158,165.342,26.974-9.106,61.618-13.015,33.863Z" transform="translate(-32.453 -218.365)" fill="#6c63ff"/>
    <path id="Path_338" data-name="Path 338" d="M187,698.661s9.48-1.517,15.169,5.182c0,0-4.171,3.287-13.146-1.264Z" transform="translate(-142.569 -402.771)" fill="#6c63ff"/>
    <path id="Path_339" data-name="Path 339" d="M180.067,698.51s-6.049,7.444-3.07,15.733c0,0,4.93-1.973,5.467-12.022Z" transform="translate(-136.629 -402.769)" fill="#6c63ff"/>
    <path id="Path_340" data-name="Path 340" d="M172.76,668.475s3.792-6.957,18.961,2.781c0,0-2.022,4.677-8.722,4.3S174.53,672.14,172.76,668.475Z" transform="translate(-134.757 -384.972)" fill="#6c63ff"/>
    <path id="Path_341" data-name="Path 341" d="M160.1,670.281s-7.869-.9-8.632,17.11c0,0,4.988,1.034,8.532-4.663S162.092,673.834,160.1,670.281Z" transform="translate(-123.079 -387.28)" fill="#6c63ff"/>
    <path id="Path_342" data-name="Path 342" d="M160.44,630.353s4.424-12.261,20.478-3.539c0,0-3.666,11.25-18.834,7.711Z" transform="translate(-127.999 -361.722)" fill="#6c63ff"/>
    <path id="Path_343" data-name="Path 343" d="M149.52,590.833s8.343-12.388,23.132-.9c0,0-5.183,11.629-21.868,5.309Z" transform="translate(-122.009 -340.53)" fill="#6c63ff"/>
    <path id="Path_344" data-name="Path 344" d="M145.6,553.074s9.733-11.381,24.378,0c0,0-9.228,9.986-24.378,2.907Z" transform="translate(-119.859 -320.214)" fill="#6c63ff"/>
    <path id="Path_345" data-name="Path 345" d="M142.24,515.039s9.86-11.882,23.89-.632c0,0-11.124,10.492-23.89,3.413Z" transform="translate(-118.016 -299.123)" fill="#6c63ff"/>
    <path id="Path_346" data-name="Path 346" d="M144.2,478s10.383-15.295,23.511-4.93c0,0-11.124,13.146-23.511,7.837Z" transform="translate(-119.091 -277.127)" fill="#6c63ff"/>
    <path id="Path_347" data-name="Path 347" d="M149.52,439.818s11-15.169,23.764-3.539c0,0-13.02,13.146-23.764,6.32Z" transform="translate(-122.009 -256.514)" fill="#6c63ff"/>
    <path id="Path_348" data-name="Path 348" d="M156.949,402.613s13.02-14.257,24.378-8.577c0,0-13.566,15.141-24.947,12.361Z" transform="translate(-125.772 -235.015)" fill="#6c63ff"/>
    <path id="Path_349" data-name="Path 349" d="M166.425,366.1s15.024-17.462,23.764-11.629c0,0-11.069,13.543-24.829,14.9Z" transform="translate(-130.698 -213.391)" fill="#6c63ff"/>
    <path id="Path_350" data-name="Path 350" d="M180.125,329.721S193.276,315.465,202.882,319c0,0-11.25,14.789-24.522,15.169Z" transform="translate(-137.829 -194.279)" fill="#6c63ff"/>
    <path id="Path_351" data-name="Path 351" d="M194.672,293.636s14.537-13.652,20.857-11.25c0,0-10.492,15.169-21.489,14.284Z" transform="translate(-146.431 -174.346)" fill="#6c63ff"/>
    <path id="Path_352" data-name="Path 352" d="M208.32,256.242s12.514-16.311,19.344-15.047c0,0-7.589,14.541-19.344,16.7Z" transform="translate(-154.264 -151.868)" fill="#6c63ff"/>
    <path id="Path_353" data-name="Path 353" d="M221.746,214.9s11.06-12.5,17.038-12.473c0,0-8.731,16.7-17.493,16.55Z" transform="translate(-161.379 -130.642)" fill="#6c63ff"/>
    <path id="Path_354" data-name="Path 354" d="M228.929,168.759l10.686-26.039s.533,23.538-12.045,30.87Z" transform="translate(-164.824 -97.887)" fill="#6c63ff"/>
    <path id="Path_355" data-name="Path 355" d="M240.1,108.216s1.77-21.746.632-23.516c0,0,7.638,18.08-.7,33.123Z" transform="translate(-171.659 -66.06)" fill="#6c63ff"/>
    <path id="Path_356" data-name="Path 356" d="M137.342,636.132s-11.078-6.866-18.252,9.932c0,0,9.86,6.546,19.557-5.648Z" transform="translate(-105.316 -367.789)" fill="#6c63ff"/>
    <path id="Path_357" data-name="Path 357" d="M124.21,595.018s-13.588-6.2-20.18,11.34c0,0,10.5,7.223,21.417-6.907Z" transform="translate(-97.055 -345.415)" fill="#6c63ff"/>
    <path id="Path_358" data-name="Path 358" d="M114.578,555.384s-9.733-11.381-24.378,0c0,0,9.228,9.986,24.378,2.907Z" transform="translate(-89.469 -321.482)" fill="#6c63ff"/>
    <path id="Path_359" data-name="Path 359" d="M112.47,515.039s-9.86-11.882-23.89-.632c0,0,11.124,10.492,23.89,3.413Z" transform="translate(-88.58 -299.123)" fill="#6c63ff"/>
    <path id="Path_360" data-name="Path 360" d="M117.529,475.228s-6.916-17.132-21.949-9.765c0,0,8.126,15.191,21.335,12.609Z" transform="translate(-92.42 -273.921)" fill="#6c63ff"/>
    <path id="Path_361" data-name="Path 361" d="M124.571,435.3s-6.876-17.43-22.121-9.349c0,0,9.336,15.977,21.444,12.04Z" transform="translate(-96.188 -252.083)" fill="#6c63ff"/>
    <path id="Path_362" data-name="Path 362" d="M142.239,389.551s-2.709-19.11-15.349-20.821c0,0,2.682,20.152,13.647,24.265Z" transform="translate(-109.595 -221.866)" fill="#6c63ff"/>
    <path id="Path_363" data-name="Path 363" d="M154.447,352.807s-1.056-23.024-11.507-23.827c0,0,.352,17.475,10.329,27.087Z" transform="translate(-118.399 -200.061)" fill="#6c63ff"/>
    <path id="Path_364" data-name="Path 364" d="M168.762,315.894s-3.115-19.146-13.092-21.484c0,0,1.237,18.541,12.1,26.184Z" transform="translate(-125.383 -181.098)" fill="#6c63ff"/>
    <path id="Path_365" data-name="Path 365" d="M189.474,280.2s-.1-19.945-6.2-22.875c0,0-3.779,18.058,4.433,25.421Z" transform="translate(-140.05 -160.757)" fill="#6c63ff"/>
    <path id="Path_366" data-name="Path 366" d="M200.341,245.64s-.853-20.536-7.164-23.43c0,0-2.158,16.252,6.221,24.775Z" transform="translate(-145.82 -141.492)" fill="#6c63ff"/>
    <path id="Path_367" data-name="Path 367" d="M216.943,208.632s-.036-16.7-4.542-20.622c0,0-4.478,18.3,2.189,23.981Z" transform="translate(-155.696 -122.731)" fill="#6c63ff"/>
    <path id="Path_368" data-name="Path 368" d="M222.048,164.8,217.665,137s-5.955,22.78,4.591,32.82Z" transform="translate(-158.471 -94.75)" fill="#6c63ff"/>
    <path id="Path_369" data-name="Path 369" d="M217.906,112.136s-11.25-18.69-11.02-20.766c0,0,1.2,19.588,15.349,29.344Z" transform="translate(-153.475 -69.719)" fill="#6c63ff"/>
    <path id="Path_370" data-name="Path 370" d="M215.481,90.274S204.863,63.729,200.06,61.58c0,0,15.169,7.711,16.306,27.935Z" transform="translate(-149.733 -53.378)" fill="#6c63ff"/>
    <path id="Path_371" data-name="Path 371" d="M220.287,174.678l-.727-.221c8.961-29.222,11.2-47.853,6.3-52.526l.519-.551C231.573,126.31,229.465,144.738,220.287,174.678Z" transform="translate(-160.43 -86.181)" fill="#444053"/>
    <path id="Path_372" data-name="Path 372" d="M165.2,305.266l-1.074-.384c.953-2.677,1.977-5.395,3.052-8.072,9.354-23.313,17.317-45,22.423-61.649l.934-.451c-5.115,16.681-12.938,39.2-22.3,62.543C167.168,299.881,166.148,302.585,165.2,305.266Z" transform="translate(-130.023 -148.349)" fill="#444053"/>
    <path id="Path_373" data-name="Path 373" d="M174.492,548.758c-.144-.158-14.667-16.514-24.793-44.436a164.407,164.407,0,0,1-9.783-50.914c-.7-21.728,3.864-45.989,11.674-68.028l.849.993c-17.534,49.465-10.568,91.851-1.327,117.376,10.018,27.669,24.378,43.844,24.518,44.007Z" transform="translate(-116.702 -231)" fill="#444053"/>
    <path id="Path_374" data-name="Path 374" d="M603.543,670.36s-10.234,12.491-2.108,31.375l-81.712,35.438-7.842,1.643-3.612-15.8,2.415-19.94v-10.9Z" transform="translate(-318.803 -387.327)" fill="#d5d6db"/>
    <path id="Path_375" data-name="Path 375" d="M59.16,584.007l113.1-20.617,149.857,23.872-93.079,33.511Z" transform="translate(-32.453 -309.046)" fill="#6c63ff"/>
    <path id="Path_376" data-name="Path 376" d="M59.16,584.007l113.1-20.617,149.857,23.872-93.079,33.511Z" transform="translate(-32.453 -309.046)" fill="#6c63ff"/>
    <path id="Path_377" data-name="Path 377" d="M142.567,652.47s-10.577,20.04,1.612,38.549L311.89,727.36s-10.41-15.963.537-38.12Z" transform="translate(-115.859 -377.513)" fill="#6c63ff"/>
    <path id="Path_378" data-name="Path 378" d="M142.567,652.47s-10.577,20.04,1.612,38.549L311.89,727.36s-10.41-15.963.537-38.12Z" transform="translate(-115.859 -377.513)" opacity="0.1"/>
    <path id="Path_379" data-name="Path 379" d="M155.545,667.86s-6.045,14.663,0,24.152" transform="translate(-123.841 -385.956)" opacity="0.1"/>
    <path id="Path_380" data-name="Path 380" d="M319.022,769.813l93.63-39.953s5.237,1.129,1.851,4.966-93.675,38.824-93.675,38.824L151.31,733.472Z" transform="translate(-122.991 -419.966)" fill="#6c63ff"/>
    <path id="Path_381" data-name="Path 381" d="M319.022,769.813l93.63-39.953s5.237,1.129,1.851,4.966-93.675,38.824-93.675,38.824L151.31,733.472Z" transform="translate(-122.991 -419.966)" opacity="0.1"/>
    <path id="Path_382" data-name="Path 382" d="M500.934,742.86s-9.029,10.835,0,27.087" transform="translate(-312.578 -427.097)" opacity="0.1"/>
    <rect id="Rectangle_68" data-name="Rectangle 68" width="42.693" height="0.451" transform="translate(191.571 329.09) rotate(-18.45)" opacity="0.1"/>
    <rect id="Rectangle_69" data-name="Rectangle 69" width="52.02" height="0.451" transform="translate(191.555 332.725) rotate(-20.82)" opacity="0.1"/>
    <rect id="Rectangle_70" data-name="Rectangle 70" width="60.295" height="0.451" transform="translate(191.827 337.009) rotate(-22.26)" opacity="0.1"/>
    <rect id="Rectangle_71" data-name="Rectangle 71" width="69.405" height="0.451" transform="translate(192.478 340.787) rotate(-24.31)" opacity="0.1"/>
    <rect id="Rectangle_72" data-name="Rectangle 72" width="75.91" height="0.451" transform="matrix(0.916, -0.401, 0.401, 0.916, 192.98, 342.625)" opacity="0.1"/>
    <rect id="Rectangle_73" data-name="Rectangle 73" width="90.84" height="0.451" transform="translate(194.03 345.713) rotate(-23.36)" opacity="0.1"/>
    <path id="Path_383" data-name="Path 383" d="M152.23,593.643l79.454-16.7,48.4,9.255-65.107,20.992Z" transform="translate(-83.507 -316.479)" fill="#fff" opacity="0.3"/>
    <path id="Path_384" data-name="Path 384" d="M617.092,659.69s4.108,1.657,1.7,4.216S524,693.2,524,693.2Z" transform="translate(-327.432 -381.474)" fill="#6c63ff"/>
    <path id="Path_385" data-name="Path 385" d="M702.838,574.18s-10.23,12.487-2.1,31.375l-81.711,35.438-7.842,1.652-3.612-15.8,2.451-19.936V596Z" transform="translate(-373.275 -334.567)" fill="#d5d6db"/>
    <path id="Path_386" data-name="Path 386" d="M158.46,487.823,271.551,467.21l149.862,23.872-93.079,33.511Z" transform="translate(-86.924 -256.286)" fill="#3a3768"/>
    <path id="Path_387" data-name="Path 387" d="M241.823,556.29s-10.582,20.04,1.607,38.549L411.142,631.18s-10.406-15.977.555-38.125Z" transform="translate(-170.305 -324.753)" fill="#3a3768"/>
    <path id="Path_388" data-name="Path 388" d="M241.823,556.29s-10.582,20.04,1.607,38.549L411.142,631.18s-10.406-15.977.555-38.125l-53.036-11.48Z" transform="translate(-170.305 -324.753)" opacity="0.1"/>
    <path id="Path_389" data-name="Path 389" d="M254.838,571.68s-6.04,14.658,0,24.152" transform="translate(-178.309 -333.196)" opacity="0.1"/>
    <path id="Path_390" data-name="Path 390" d="M418.312,673.633l93.634-39.953s5.232,1.129,1.846,4.966-93.675,38.824-93.675,38.824L250.6,637.292Z" transform="translate(-177.457 -367.206)" fill="#3a3768"/>
    <path id="Path_391" data-name="Path 391" d="M418.312,673.633l93.634-39.953s5.232,1.129,1.846,4.966-93.675,38.824-93.675,38.824L250.6,637.292Z" transform="translate(-177.457 -367.206)" opacity="0.1"/>
    <path id="Path_392" data-name="Path 392" d="M600.224,646.68s-9.029,10.835,0,27.087" transform="translate(-367.044 -374.337)" opacity="0.1"/>
    <rect id="Rectangle_74" data-name="Rectangle 74" width="42.693" height="0.451" transform="translate(236.398 285.675) rotate(-18.45)" opacity="0.1"/>
    <rect id="Rectangle_75" data-name="Rectangle 75" width="52.02" height="0.451" transform="translate(236.389 289.308) rotate(-20.82)" opacity="0.1"/>
    <rect id="Rectangle_76" data-name="Rectangle 76" width="60.295" height="0.451" transform="translate(236.653 293.586) rotate(-22.26)" opacity="0.1"/>
    <rect id="Rectangle_77" data-name="Rectangle 77" width="69.405" height="0.451" transform="translate(237.31 297.364) rotate(-24.31)" opacity="0.1"/>
    <rect id="Rectangle_78" data-name="Rectangle 78" width="75.91" height="0.451" transform="matrix(0.916, -0.401, 0.401, 0.916, 237.805, 299.197)" opacity="0.1"/>
    <rect id="Rectangle_79" data-name="Rectangle 79" width="90.84" height="0.451" transform="translate(238.858 302.284) rotate(-23.36)" opacity="0.1"/>
    <path id="Path_393" data-name="Path 393" d="M251.53,497.463l79.454-16.7,48.4,9.255-65.107,20.992Z" transform="translate(-137.978 -263.719)" fill="#fff" opacity="0.45"/>
    <path id="Path_394" data-name="Path 394" d="M716.409,563.51s4.1,1.657,1.7,4.212-94.776,29.294-94.776,29.294Z" transform="translate(-381.92 -328.714)" fill="#3a3768"/>
    <path id="Path_395" data-name="Path 395" d="M712.255,464.15s-10.234,22.423-2.108,41.307l-81.712,25.507-7.823,1.657L617,516.82l2.415-19.94V485.968Z" transform="translate(-378.448 -274.21)" fill="#d5d6db"/>
    <path id="Path_396" data-name="Path 396" d="M167.89,377.8l113.1-20.617,149.862,23.872-93.083,33.511Z" transform="translate(-92.097 -195.929)" fill="#6c63ff"/>
    <path id="Path_397" data-name="Path 397" d="M251.281,446.26s-10.6,20.04,1.594,38.549L420.587,521.15s-10.41-15.977.551-38.12Z" transform="translate(-175.488 -264.396)" fill="#6c63ff"/>
    <path id="Path_398" data-name="Path 398" d="M251.281,446.26s-10.6,20.04,1.594,38.549L420.587,521.15s-10.41-15.977.551-38.12Z" transform="translate(-175.488 -264.396)" opacity="0.1"/>
    <path id="Path_399" data-name="Path 399" d="M264.276,461.65s-6.045,14.663,0,24.152" transform="translate(-183.485 -272.838)" opacity="0.1"/>
    <path id="Path_400" data-name="Path 400" d="M427.752,567.991l93.63-30.021s5.237,1.129,1.851,4.966-93.675,28.892-93.675,28.892L260.04,531.65Z" transform="translate(-182.635 -311.237)" fill="#6c63ff"/>
    <path id="Path_401" data-name="Path 401" d="M427.752,567.991l93.63-30.021s5.237,1.129,1.851,4.966-93.675,28.892-93.675,28.892L260.04,531.65Z" transform="translate(-182.635 -311.237)" opacity="0.1"/>
    <path id="Path_402" data-name="Path 402" d="M609.664,536.65s-9.029,10.835,0,27.087" transform="translate(-372.222 -313.98)" opacity="0.1"/>
    <rect id="Rectangle_80" data-name="Rectangle 80" width="42.693" height="0.451" transform="translate(240.661 236.001) rotate(-18.45)" opacity="0.1"/>
    <rect id="Rectangle_81" data-name="Rectangle 81" width="52.02" height="0.451" transform="translate(240.649 239.637) rotate(-20.82)" opacity="0.1"/>
    <rect id="Rectangle_82" data-name="Rectangle 82" width="60.295" height="0.451" transform="translate(240.909 243.917) rotate(-22.26)" opacity="0.1"/>
    <rect id="Rectangle_83" data-name="Rectangle 83" width="69.405" height="0.451" transform="translate(241.572 247.691) rotate(-24.31)" opacity="0.1"/>
    <rect id="Rectangle_84" data-name="Rectangle 84" width="75.91" height="0.451" transform="matrix(0.916, -0.401, 0.401, 0.916, 242.069, 249.528)" opacity="0.1"/>
    <rect id="Rectangle_85" data-name="Rectangle 85" width="90.84" height="0.451" transform="translate(243.121 252.619) rotate(-23.36)" opacity="0.1"/>
    <path id="Path_403" data-name="Path 403" d="M260.96,387.433l79.454-16.7,48.4,9.255-65.107,20.992Z" transform="translate(-143.151 -203.362)" fill="#fff" opacity="0.3"/>
    <path id="Path_404" data-name="Path 404" d="M725.839,453.48s4.108,1.657,1.7,4.216-94.776,29.294-94.776,29.294Z" transform="translate(-387.093 -268.357)" fill="#6c63ff"/>
    <path id="Path_405" data-name="Path 405" d="M380.393,149.893s-17.155-1.034-15.15,11a2.936,2.936,0,0,0,1.526,3.092s.032-.9,1.761-.591a7.7,7.7,0,0,0,1.869.09,3.892,3.892,0,0,0,2.28-.939h0s4.826-2,6.7-9.887c0,0,1.39-1.72,1.354-2.162l-2.907,1.237a5.209,5.209,0,0,1,.212,3.828s-.095-3.751-.655-3.666c-.113,0-1.5.727-1.5.727s1.7,3.643.415,6.289c0,0,.488-4.487-.948-6.027l-2.041,1.192s1.991,3.761.641,6.83c0,0,.348-4.709-1.07-6.541l-1.851,1.445s1.873,3.706.731,6.253c0,0-.149-5.481-1.129-5.9a11.157,11.157,0,0,0-1.864,2.013s1.282,2.709.483,4.113c0,0-.483-3.652-.9-3.67a12.152,12.152,0,0,0-1.779,4.063,8.785,8.785,0,0,1,1.386-4.307,4.835,4.835,0,0,0-2.465,1.278s.248-1.711,2.867-1.86a11.1,11.1,0,0,1,1.688-1.946,10.568,10.568,0,0,0-4.18.479s1.39-1.612,4.654-.9l1.806-1.49s-3.422-.451-4.876.05c0,0,1.675-1.427,5.368-.388l1.991-1.187a18.09,18.09,0,0,0-4.659-.4s1.833-.989,5.241.081l1.418-.637s-2.135-.42-2.763-.488-.659-.239-.659-.239a7.453,7.453,0,0,1,4.018.451A17.919,17.919,0,0,0,380.393,149.893Z" transform="translate(-240.255 -101.81)" fill="#6c63ff"/>
    <path id="Path_406" data-name="Path 406" d="M914.993,259.473s-17.155-1.034-15.151,11a2.936,2.936,0,0,0,1.526,3.092s.032-.9,1.761-.591a7.953,7.953,0,0,0,1.869.09,3.878,3.878,0,0,0,2.257-.939h0s4.83-2,6.7-9.887c0,0,1.39-1.72,1.354-2.162l-2.9,1.237a5.209,5.209,0,0,1,.212,3.828s-.095-3.751-.65-3.666c-.113,0-1.508.727-1.508.727s1.7,3.643.42,6.289c0,0,.488-4.487-.953-6.027l-2.041,1.192s1.991,3.761.641,6.83c0,0,.348-4.709-1.07-6.541l-1.846,1.445s1.869,3.706.727,6.253c0,0-.149-5.481-1.129-5.9a11.323,11.323,0,0,0-1.865,2.013s1.282,2.709.488,4.113c0,0-.488-3.652-.9-3.67a12.153,12.153,0,0,0-1.779,4.063,8.757,8.757,0,0,1,1.39-4.307,4.857,4.857,0,0,0-2.469,1.278s.253-1.711,2.867-1.86a11.271,11.271,0,0,1,1.688-1.95,10.611,10.611,0,0,0-4.18.483s1.391-1.612,4.654-.9l1.806-1.49s-3.427-.451-4.876.05c0,0,1.67-1.427,5.368-.388l1.986-1.187a18.09,18.09,0,0,0-4.659-.4s1.833-.989,5.241.081l1.422-.637s-2.14-.42-2.767-.488-.659-.239-.659-.239a7.4,7.4,0,0,1,4.018.451A18.214,18.214,0,0,0,914.993,259.473Z" transform="translate(-533.513 -161.921)" fill="#6c63ff" opacity="0.1"/>
    <path id="Path_407" data-name="Path 407" d="M439.973,302.5s-7.476-15.5-16.992-7.86a2.932,2.932,0,0,0-1.955,2.84s.79-.411,1.354,1.25a8,8,0,0,0,.831,1.67,3.9,3.9,0,0,0,1.937,1.535h0s4.095,3.241,11.9,1.029c0,0,2.18.375,2.537.113l-2.492-1.928a5.24,5.24,0,0,1-3.241,2.05s3.232-1.91,2.885-2.352c-.072-.09-1.354-.962-1.354-.962s-2.352,3.264-5.286,3.431c0,0,4.153-1.761,4.794-3.77l-2.031-1.2s-2.316,3.575-5.652,3.891c0,0,4.28-1.991,5.187-4.122l-2.158-.9s-2.325,3.44-5.106,3.688c0,0,4.713-2.8,4.6-3.864a11.442,11.442,0,0,0-2.668-.646s-1.724,2.433-3.35,2.433c0,0,2.948-2.208,2.767-2.564a11.91,11.91,0,0,0-4.424.451,8.789,8.789,0,0,1,4.438-.9,4.862,4.862,0,0,0-2.32-1.53s1.616-.614,3.02,1.594a11.137,11.137,0,0,1,2.524.524,10.6,10.6,0,0,0-2.456-3.408s2.086.42,3.038,3.612l2.19.867s-1.26-3.214-2.42-4.23c0,0,2.059.763,2.957,4.514l2,1.156a17.862,17.862,0,0,0-1.919-4.262s1.756,1.12,2.483,4.614l1.251.93s-.677-2.072-.9-2.65-.113-.7-.113-.7a7.408,7.408,0,0,1,1.571,3.724A16.842,16.842,0,0,0,439.973,302.5Z" transform="translate(-270.943 -180.063)" fill="#6c63ff" opacity="0.1"/>
    <path id="Path_408" data-name="Path 408" d="M823.753,198.878s-7.471-15.5-16.992-7.86a2.938,2.938,0,0,0-1.955,2.84s.794-.406,1.354,1.251a7.827,7.827,0,0,0,.835,1.675,3.874,3.874,0,0,0,1.932,1.53h0s4.1,3.241,11.9,1.034c0,0,2.18.37,2.542.108l-2.478-1.932a5.238,5.238,0,0,1-3.237,2.054s3.228-1.914,2.88-2.357c-.072-.09-1.354-.962-1.354-.962s-2.347,3.264-5.286,3.431c0,0,4.158-1.761,4.8-3.765l-2.063-1.192s-2.311,3.571-5.652,3.891c0,0,4.28-2,5.192-4.126l-2.162-.9s-2.325,3.445-5.1,3.688c0,0,4.708-2.8,4.591-3.86a11.166,11.166,0,0,0-2.664-.646s-1.724,2.429-3.354,2.429c0,0,2.952-2.208,2.772-2.564a11.937,11.937,0,0,0-4.429.451,8.784,8.784,0,0,1,4.438-.9,4.835,4.835,0,0,0-2.316-1.53s1.616-.614,3.02,1.594a11.176,11.176,0,0,1,2.524.528,10.565,10.565,0,0,0-2.46-3.413s2.086.424,3.038,3.634l2.194.867s-1.26-3.219-2.42-4.235c0,0,2.059.763,2.952,4.514l2.009,1.156a18.028,18.028,0,0,0-1.923-4.262s1.761,1.12,2.483,4.614l1.25.93s-.673-2.072-.9-2.65-.113-.691-.113-.691a7.427,7.427,0,0,1,1.567,3.724A17.335,17.335,0,0,0,823.753,198.878Z" transform="translate(-481.468 -123.221)" fill="#6c63ff" opacity="0.1"/>
    <path id="Path_409" data-name="Path 409" d="M876.627,368.684s-7.471-15.5-17.006-7.864a2.938,2.938,0,0,0-1.955,2.84s.795-.406,1.354,1.25a7.823,7.823,0,0,0,.831,1.675,3.874,3.874,0,0,0,1.932,1.53h0s4.1,3.246,11.9,1.034c0,0,2.176.375,2.537.108l-2.492-1.928a5.238,5.238,0,0,1-3.241,2.054s3.228-1.914,2.88-2.357c-.072-.09-1.354-.962-1.354-.962s-2.348,3.264-5.286,3.435c0,0,4.158-1.765,4.8-3.77l-2.036-1.2s-2.311,3.575-5.652,3.891c0,0,4.28-2,5.192-4.126l-2.162-.9s-2.325,3.44-5.1,3.688c0,0,4.713-2.8,4.6-3.864a11.216,11.216,0,0,0-2.668-.646S861.973,365,860.343,365c0,0,2.952-2.208,2.772-2.564a11.937,11.937,0,0,0-4.429.451,8.812,8.812,0,0,1,4.442-.9,4.826,4.826,0,0,0-2.32-1.53s1.616-.618,3.02,1.594a11.137,11.137,0,0,1,2.524.524,10.647,10.647,0,0,0-2.456-3.413s2.086.424,3.038,3.634l2.189.867s-1.26-3.219-2.42-4.23c0,0,2.059.758,2.952,4.514l2.009,1.151a18.028,18.028,0,0,0-1.923-4.262s1.761,1.12,2.487,4.618l1.25.9s-.677-2.072-.9-2.65-.113-.691-.113-.691a7.381,7.381,0,0,1,1.567,3.724A18.275,18.275,0,0,0,876.627,368.684Z" transform="translate(-510.465 -216.367)" fill="#6c63ff" opacity="0.1"/>
    <ellipse id="Ellipse_44" data-name="Ellipse 44" cx="10.379" cy="1.16" rx="10.379" ry="1.16" transform="translate(80.791 351.689)" fill="#6c63ff" opacity="0.1"/>
    <ellipse id="Ellipse_45" data-name="Ellipse 45" cx="10.379" cy="1.16" rx="10.379" ry="1.16" transform="translate(12.753 331.969)" fill="#6c63ff" opacity="0.1"/>
    <ellipse id="Ellipse_46" data-name="Ellipse 46" cx="10.379" cy="1.16" rx="10.379" ry="1.16" transform="translate(132.652 364.785)" fill="#6c63ff" opacity="0.1"/>
    <ellipse id="Ellipse_47" data-name="Ellipse 47" cx="10.379" cy="1.16" rx="10.379" ry="1.16" transform="translate(398.418 336.258)" fill="#6c63ff" opacity="0.1"/>
    <ellipse id="Ellipse_48" data-name="Ellipse 48" cx="10.379" cy="1.16" rx="10.379" ry="1.16" transform="translate(312.052 330.629)" fill="#6c63ff" opacity="0.1"/>
    <ellipse id="Ellipse_49" data-name="Ellipse 49" cx="12.275" cy="2.108" rx="12.275" ry="2.108" transform="translate(254.285 356.189)" fill="#6c63ff" opacity="0.1"/>
    <path id="Path_410" data-name="Path 410" d="M678.053,790.14s-17.092,8.83-8.261,19.232a3.3,3.3,0,0,0,3.232,2.1s-.479-.876,1.354-1.576a8.805,8.805,0,0,0,1.846-.98,4.338,4.338,0,0,0,1.652-2.208h0s3.494-4.677.785-13.331c0,0,.352-2.447.045-2.844l-2.077,2.849a5.816,5.816,0,0,1,2.393,3.557s-2.257-3.553-2.709-3.16c-.1.081-1.029,1.557-1.029,1.557s3.72,2.524,4,5.8c0,0-2.095-4.591-4.356-5.246l-1.3,2.311s4.063,2.474,4.515,6.194c0,0-2.361-4.718-4.772-5.67l-.953,2.442s3.919,2.492,4.28,5.589c0,0-3.277-5.178-4.456-5.016a12.517,12.517,0,0,0-.641,3s2.767,1.851,2.817,3.67c0,0-2.555-3.228-2.948-3.016a13.6,13.6,0,0,0,.623,4.934,9.74,9.74,0,0,1-1.133-4.934,5.418,5.418,0,0,0-1.639,2.636s-.736-1.783,1.688-3.426a12.488,12.488,0,0,1,.51-2.835,11.9,11.9,0,0,0-3.738,2.853s.411-2.343,3.968-3.508l.9-2.474S669.1,800.153,668,801.48c0,0,.79-2.325,4.934-3.44l1.228-2.257a20.731,20.731,0,0,0-4.7,2.257s1.2-2,5.083-2.921l1-1.422s-2.293.817-2.934,1.111-.767.149-.767.149a8.3,8.3,0,0,1,4.113-1.869S678.211,790.294,678.053,790.14Z" transform="translate(-406.017 -453.033)" fill="#6c63ff"/>
    <path id="Path_411" data-name="Path 411" d="M617.485,213.75c-2.952-8.022-19.2-8.776-26.256-6.731-5.011,1.458-15.575,3.1-21.218,3.928l-.366-.348c.731-.217.749-.749.659-1.539a24.091,24.091,0,0,1,.045-3.124c3.458,1.074,6.537-1.467,6.537-1.467h0c4.063-1.806,2.971-9.535,3.747-11.647.582-1.58,1.21-10.889,1.49-15.53h.059l.032-1.557c.041-.673.059-1.065.059-1.065s.4-11.349,1.174-13.647c.722-2.113,1.309-12.758,1.4-14.446v-.221l-.059-.984c.041-.718.059-1.517.054-2.357,0-3.86-.4-8.722-.451-9.507v-.411c.032-1.648-.176-9.9-7.2-13.02-2.587-1.156-5.7-2.533-8.708-3.873-.776-6.7-2.551-13.372-2.4-20.125,0-1.016.09-2.031.19-3.043,0,.293-.032.591-.036.9V95.9c.266-8.447,3.458-16.938,3.16-25.2-.027.808-.086,1.621-.163,2.433a26.241,26.241,0,0,0-.867-8.3,4.912,4.912,0,0,0-1.418-2.573,5.837,5.837,0,0,0-2.474-.98,49.755,49.755,0,0,0-6.5-1.21,10.032,10.032,0,0,0-1.463-2.84c-4.578-6.284-11.358-12.189-19.376-13.543-4.022-.677-8.65-.113-11.385,2.763a8.545,8.545,0,0,0-.8.813c-1.472,1.756-2.1,4.063-3.612,5.815-.1.117-.212.226-.321.339-2.952,2.641-7.553,3.192-10.835,5.562a13,13,0,0,0-1.621,1.413,27.482,27.482,0,0,0-3.539,4.3c-1.476,2.077-2.993,4.239-3.463,6.718-.944,4.966,2.438,9.674,3.065,14.672,1.4,11.182-10.975,21.105-8.632,32.138a14.717,14.717,0,0,0,3.982,7.146c-4.826,4.37-8.934,8.609-8.934,8.609v.253h-.763l.077.9h-.077l.42,4.9-.42,7.133v.673h.027c.14,2.614.7,12.013,1.354,13.995.776,2.3,1.169,13.647,1.169,13.647s.858,16.04,1.643,18.162-.33,9.828,3.747,11.647h0a8.578,8.578,0,0,0,4.095,1.7c-.208,1.688-.077,2.912.6,3.3a1.968,1.968,0,0,0,.948.271,10.063,10.063,0,0,0-.736,1.287,19.123,19.123,0,0,1-4.731-1.115c-4.379-1.806-18.911-5.869-23.132-3.011s-14.379,5.449-9.688,16.952,6.875,11.792,6.875,11.792a16.7,16.7,0,0,1,3.752,3.77c1.408,2.117,14.532,6.961,17.814,6.961a32.139,32.139,0,0,1,4.176.208s-3.562,3.124-3.088,4.939-1.083,16.342-1.083,16.342,3.612,3.639,5.155-1.133l.054.072c.289.393,1.851,2.167,4.79-.072a26.854,26.854,0,0,1,3.819-2.42l14.229-2.013a40.273,40.273,0,0,1,4.456-.032c2.257.185,4.474-1.151,5.869-2.185,2.948,1.12,6.262,2.343,7.837,2.79,3.2.9,17.886,4.844,21.322,3.612a4.772,4.772,0,0,0,1.851-1.318l3.277.1-1.535.307s2.989.05,7.052.1l-.172.1,5.1-.045c7.458.068,15.837.09,16.938-.158,1.724-.384,10.686-.113,13.327,0h.736s9.846-1.964,5.783-11.954c-3.124-7.675-12.726-9.9-16.988-10.519,1.2-.239,2.235-.424,2.921-.533,2.975-.451,8.754-3.16,9.223-4.086s5.314-3.612,6.564-5.142S620.451,221.772,617.485,213.75ZM535.932,236.2l-.483.158-.325.108-.623.614c-.5-.334-1.029-.686-1.585-1.047C533.9,236.092,534.9,236.15,535.932,236.2Zm43.027,12.722Z" transform="translate(-294.72 -43.42)" fill="url(#linear-gradient)"/>
    <path id="Path_412" data-name="Path 412" d="M686.65,297.347s6.907,18.058,10.835,16.252,2.862-9.48,3.612-11.584,1.58-18.058,1.58-18.058.379-11.286,1.129-13.57c.7-2.1,1.26-12.686,1.354-14.351v-.221l-.745-13.092L700.2,241.67l-9.778,3.612-1.354,7.733-.528,3.02-.226,1.287Z" transform="translate(-416.655 -152.167)" fill="#be6f72"/>
    <path id="Path_413" data-name="Path 413" d="M691.69,358.3s6.591,5.395,8.577,5.869,3.205,4.681,3.205,4.681" transform="translate(-419.419 -216.145)" opacity="0.1"/>
    <path id="Path_414" data-name="Path 414" d="M544.509,299.1s-6.907,18.058-10.835,16.252-2.862-9.48-3.612-11.584-1.58-18.058-1.58-18.058-.379-11.286-1.129-13.57c-.7-2.1-1.26-12.686-1.354-14.351v-.221l.749-13.092,4.217-1.052,9.778,3.612,1.354,7.733.528,3.02.226,1.287Z" transform="translate(-328.529 -153.127)" fill="#be6f72"/>
    <rect id="Rectangle_86" data-name="Rectangle 86" width="15.417" height="24.03" transform="translate(245.541 49.333)" fill="#3e373a"/>
    <rect id="Rectangle_87" data-name="Rectangle 87" width="15.417" height="24.03" transform="translate(245.541 49.333)" opacity="0.1"/>
    <path id="Path_415" data-name="Path 415" d="M556.445,404.844s-5.268,5.792-3.314,6.844,14.6,20.766,14.6,20.766,41.533,5.115,49.365-2.56,7.675-21.385,7.675-21.385-6.293,1.354-6.979.618-4.456-4.284-4.456-4.284S560.057,401.612,556.445,404.844Z" transform="translate(-343.174 -240.889)" fill="#4b4b5b"/>
    <path id="Path_416" data-name="Path 416" d="M556.445,404.844s-5.268,5.792-3.314,6.844,14.6,20.766,14.6,20.766,41.533,5.115,49.365-2.56,7.675-21.385,7.675-21.385-6.293,1.354-6.979.618-4.456-4.284-4.456-4.284S560.057,401.612,556.445,404.844Z" transform="translate(-343.174 -240.889)" opacity="0.02"/>
    <path id="Path_417" data-name="Path 417" d="M617.479,193.932l-13.543,10.835-4.095.3-1.5.108-25.249,1.851-26.184-1.914-3.9-.284-4.966-.361-10.383-9.932a177.811,177.811,0,0,1,13.787-13.187,28.285,28.285,0,0,1,6.681-4.465l.3-.1a7.431,7.431,0,0,0,2.862-2c5.083-5.241,9.783-18.175,9.783-18.175s22.423-11.584,19.715,3.612,10.081,11.44,10.081,11.44l4.216,1.923,1.666.763L601,176.289l9.584,4.4C618.1,184.149,617.479,193.932,617.479,193.932Z" transform="translate(-329.44 -103.187)" fill="#be6f72"/>
    <circle id="Ellipse_50" data-name="Ellipse 50" cx="20.166" cy="20.166" r="20.166" transform="translate(222.431 25.461)" opacity="0.1"/>
    <path id="Path_418" data-name="Path 418" d="M616.6,237.907H526v-.221l.749-13.092a177.814,177.814,0,0,1,13.787-13.187l56.882-2.257,2.645-2.79,9.584,4.4c7.526,3.458,6.921,13.241,6.921,13.241S617.6,235.334,616.6,237.907Z" transform="translate(-328.529 -132.797)" opacity="0.1"/>
    <path id="Path_419" data-name="Path 419" d="M616.6,236.907H526v-.221l.749-13.092a177.813,177.813,0,0,1,13.787-13.187l56.882-2.257,2.645-2.79,9.584,4.4c7.526,3.458,6.921,13.241,6.921,13.241S617.6,234.334,616.6,236.907Z" transform="translate(-328.529 -132.249)" fill="#e7c7ca"/>
    <path id="Path_420" data-name="Path 420" d="M586.933,189.127s14.293,18.211,33.33-.375,2.108,41.456,2.108,41.456l-41.081,4.876Z" transform="translate(-358.859 -121.181)" opacity="0.1"/>
    <path id="Path_421" data-name="Path 421" d="M586.933,191.127s14.293,18.211,33.33-.375,2.108,41.456,2.108,41.456l-41.081,4.876Z" transform="translate(-358.859 -122.278)" fill="#e7c7ca"/>
    <path id="Path_422" data-name="Path 422" d="M609.825,202.095l1.512,23.064,1.621,7.675,1.237,5.869s3.16,45.144,2.257,47.4.451,4.063.641,5.264-.19,4.216-.041,5.571,0,1.955-3.458,1.472-8.28-1.323-8.28-1.323-12.189.9-16.4-.6-12.189-1.508-12.189-1.508-12.04.3-15.95-.149-6.022,4.817-8.577,3.309,3.007-16.1,4.812-20.315-2.406-14.9-2.406-14.9l5.417-30.053,1.205-6.812V204.646l.3-.1a7.43,7.43,0,0,0,2.862-2l1.354,21.552,42.436,1.508V201.35" transform="translate(-342.538 -130.049)" opacity="0.1"/>
    <path id="Path_423" data-name="Path 423" d="M609.825,200.095l1.512,23.064,1.621,7.675,1.237,5.869s3.16,45.144,2.257,47.4.451,4.063.641,5.264-.19,4.216-.041,5.571,0,1.955-3.458,1.472-8.28-1.323-8.28-1.323-12.189.9-16.4-.6-12.189-1.508-12.189-1.508-12.04.3-15.95-.149-6.022,4.817-8.577,3.309,3.007-16.1,4.812-20.315-2.406-14.9-2.406-14.9l5.417-30.053,1.205-6.812V202.646l.3-.1a7.43,7.43,0,0,0,2.862-2l1.354,21.552,42.436,1.508V199.35" transform="translate(-342.538 -128.952)" fill="#e7c7ca"/>
    <path id="Path_424" data-name="Path 424" d="M607.032,68.532a4.975,4.975,0,0,0-1.354-2.555A5.544,5.544,0,0,0,603.294,65a47.094,47.094,0,0,0-6.266-1.2,10.032,10.032,0,0,0-1.354-2.813C591.25,54.74,584.7,48.849,577,47.517c-4.031-.7-8.7-.072-11.286,3.106-1.417,1.747-2.027,4.063-3.458,5.778-2.758,3.332-7.738,3.742-11.214,6.32a20.777,20.777,0,0,0-4.514,5.223c-1.422,2.063-2.885,4.212-3.336,6.677-.9,4.925,2.352,9.62,2.952,14.591,1.354,11.119-10.564,20.983-8.311,31.953,1.314,6.4,7.223,10.9,13.336,13.187,2.153.808,4.614,1.612,5.62,3.679.451.9.528,1.946.953,2.858,1.427,3.043,6.117,3.16,8.636.944s3.314-5.8,3.612-9.146c1.21-14.609-4.641-29.041-3.959-43.686.2-4.429,1.449-9.453,5.417-11.458,5.341-2.709,11.765,1.806,17.642.944a35,35,0,0,1,1.688,21.358c-.935,3.9-2.551,7.675-2.668,11.692-.176,6.117,3.124,11.706,5.977,17.114a9.105,9.105,0,0,1,1.205,3.3,7.953,7.953,0,0,1-.646,3.454c-1.612,4.338-4.393,8.365-4.709,12.984a2.1,2.1,0,0,0,.339,1.544,1.941,1.941,0,0,0,1.165.524c4.876.835,9.092-3.485,11.471-7.824a36.675,36.675,0,0,0,4.523-15.584c.492-9.191-2.8-18.234-2.6-27.434C605.073,89.154,609.8,78.622,607.032,68.532Z" transform="translate(-334.865 -45.522)" opacity="0.1"/>
    <path id="Path_425" data-name="Path 425" d="M608.032,67.532a4.975,4.975,0,0,0-1.354-2.555A5.544,5.544,0,0,0,604.294,64a47.092,47.092,0,0,0-6.266-1.2,10.03,10.03,0,0,0-1.354-2.812C592.25,53.74,585.7,47.849,578,46.517c-4.031-.7-8.7-.072-11.286,3.106-1.418,1.747-2.027,4.063-3.458,5.778-2.758,3.332-7.738,3.742-11.214,6.32a20.777,20.777,0,0,0-4.514,5.223c-1.422,2.063-2.885,4.212-3.336,6.677-.9,4.925,2.352,9.62,2.952,14.591,1.354,11.119-10.564,20.983-8.311,31.953,1.314,6.4,7.223,10.9,13.336,13.187,2.153.808,4.614,1.612,5.62,3.679.451.9.528,1.946.953,2.858,1.427,3.043,6.117,3.16,8.636.944s3.314-5.8,3.612-9.146c1.21-14.609-4.641-29.041-3.959-43.686.2-4.429,1.449-9.453,5.417-11.458,5.341-2.709,11.765,1.806,17.642.944a35,35,0,0,1,1.688,21.358c-.935,3.9-2.551,7.675-2.668,11.692-.176,6.117,3.124,11.706,5.977,17.114a9.105,9.105,0,0,1,1.205,3.3,7.954,7.954,0,0,1-.646,3.454c-1.612,4.338-4.393,8.365-4.709,12.984a2.1,2.1,0,0,0,.339,1.544,1.941,1.941,0,0,0,1.165.524c4.876.835,9.092-3.485,11.471-7.824a36.675,36.675,0,0,0,4.523-15.584c.492-9.191-2.8-18.234-2.6-27.434C606.073,88.154,610.8,77.622,608.032,67.532Z" transform="translate(-335.414 -44.973)" fill="#3e373a"/>
    <path id="Path_426" data-name="Path 426" d="M581.79,477.288l17.909.573L597.13,464.58l-13.719,1.3Z" transform="translate(-319.144 -254.844)" fill="#c3c7d9"/>
    <path id="Path_427" data-name="Path 427" d="M692.175,432.417c-1.205,1.5-5.869,4.212-6.32,5.115s-6.018,3.612-8.88,4.063-11.886,2.411-13.543,3.463c-1.187.758-10.717,3.16-16.979,4.492a48.188,48.188,0,0,1-5.142.925c-2.709.149-32.351-9.932-32.351-9.932l5.715-5.869.316-.108c1.616-.546,9.083-3.07,13.227-4.271,4.668-1.354,10.085-6.921,10.085-6.921s7.973-2.709,9.029-3.011-2.709-10.532-2.709-10.532,17.3-2.4,24.076-4.438,22.423-1.282,25.281,6.695S693.4,430.914,692.175,432.417Z" transform="translate(-374.037 -241.452)" fill="#4b4b5b"/>
    <path id="Path_428" data-name="Path 428" d="M572.179,503.37s-3.458,3.612-6.921,3.314-15.57.9-15.57.9a24.275,24.275,0,0,0-6.1,3.535c-2.831,2.23-4.334.451-4.614.072l-.05-.072c-1.508,4.745-4.966,1.129-4.966,1.129S535.463,497.8,535,496s2.975-4.907,2.975-4.907l4.063-1.034,10.293-2.636,14.749,5.115Z" transform="translate(-332.896 -286.974)" fill="#e7c7ca"/>
    <path id="Path_429" data-name="Path 429" d="M542.023,493.26,538.976,514.4l-.05-.072c-1.508,4.745-4.966,1.129-4.966,1.129s1.5-14.446,1.043-16.252,2.975-4.907,2.975-4.907Z" transform="translate(-332.896 -290.178)" opacity="0.1"/>
    <path id="Path_430" data-name="Path 430" d="M599,360.08s7.973,2.709,14.9,0" transform="translate(-368.574 -217.121)" opacity="0.1"/>
    <path id="Path_431" data-name="Path 431" d="M659.29,371.42s3.309,1.652,5.869,0" transform="translate(-401.646 -223.342)" opacity="0.1"/>
    <path id="Path_432" data-name="Path 432" d="M659.29,379.178s5.566.745,6.623-.758" transform="translate(-401.646 -227.182)" opacity="0.1"/>
    <path id="Path_433" data-name="Path 433" d="M655.29,394.91s10.455-1.354,13.051-3.16" transform="translate(-399.452 -234.494)" opacity="0.1"/>
    <path id="Path_434" data-name="Path 434" d="M584.62,391.75s5.869,3.309,10.234,3.16" transform="translate(-360.685 -234.494)" opacity="0.1"/>
    <path id="Path_435" data-name="Path 435" d="M646.442,486.163a48.188,48.188,0,0,1-5.142.925c-2.709.149-32.351-9.932-32.351-9.932l5.715-5.869.316-.108c.9.637,1.643,1.183,2.171,1.6,2.487,1.959,4.889-.6,5.792-.6s8.726,6.469,8.726,6.469,7.223,1.657,8.428,3.16,5.417,1.205,6.167,2.257A4.028,4.028,0,0,1,646.442,486.163Z" transform="translate(-374.032 -278.066)" opacity="0.1"/>
    <path id="Path_436" data-name="Path 436" d="M514.992,411.258s-7.3.42-11.516-1.354-18.207-5.869-22.27-2.993-13.846,5.417-9.331,16.857,6.623,11.738,6.623,11.738a16.3,16.3,0,0,1,3.612,3.747c1.354,2.108,13.995,6.921,17.155,6.921s8.726,0,16.55,5.417a34.014,34.014,0,0,0,14.9,6.022s9.932,4.063,13.024,4.966,17.223,4.812,20.536,3.612,5.417-8.731,5.417-8.731,1.5-6.772.749-7.824-4.966-.754-6.167-2.257-8.428-3.16-8.428-3.16-7.805-6.474-8.708-6.474-3.3,2.555-5.792.6a132.133,132.133,0,0,0-15.579-9.932C520.048,425.4,514.992,411.258,514.992,411.258Z" transform="translate(-298.199 -242.265)" fill="#4b4b5b"/>
    <path id="Path_437" data-name="Path 437" d="M536.27,427.208a8.622,8.622,0,0,1,7.4,1.955c3.612,3.011,15.764,9.056,15.764,9.056" transform="translate(-334.163 -253.849)" opacity="0.1"/>
    <path id="Path_438" data-name="Path 438" d="M713.07,427s-16.1,2.438-19.11,5.747" transform="translate(-420.664 -253.831)" opacity="0.1"/>
    <path id="Path_439" data-name="Path 439" d="M727,509.992H726.3c-2.546-.09-11.173-.361-12.835,0-1.955.451-27.841,0-27.841,0l5.061-1.052s-1.878-6.582-.686-7.128c0,0-6.772-4.46-1.666-7.471a15.84,15.84,0,0,1,10.609-1.743l12.817-4.343,2.46-.835s14.446.754,18.356,10.686S727,509.992,727,509.992Z" transform="translate(-416.089 -286.974)" fill="#e7c7ca"/>
    <path id="Path_440" data-name="Path 440" d="M758.76,510.02h-.709c4.2-3.467,13.71-14.022-14.541-21.714l2.46-.835s14.446.754,18.356,10.686S758.76,510.02,758.76,510.02Z" transform="translate(-447.845 -287.002)" opacity="0.1"/>
    <circle id="Ellipse_51" data-name="Ellipse 51" cx="0.79" cy="0.79" r="0.79" transform="translate(283.566 209.736)" fill="#4b4b5b"/>
    <circle id="Ellipse_52" data-name="Ellipse 52" cx="0.79" cy="0.79" r="0.79" transform="translate(278.975 211.041)" fill="#4b4b5b"/>
    <g id="Group_89" data-name="Group 89" transform="translate(203.26 28.395)" opacity="0.1">
      <path id="Path_441" data-name="Path 441" d="M627.508,122.99a35.028,35.028,0,0,0-2.591-14.509c-5.869.876-12.3-3.652-17.642-.944-3.955,2-5.2,7.029-5.417,11.458-.054,1.169-.063,2.338-.041,3.508,0-.415,0-.835.041-1.251.208-4.429,1.449-9.453,5.417-11.458,5.345-2.709,11.765,1.806,17.642.944A34.933,34.933,0,0,1,627.508,122.99Z" transform="translate(-573.372 -106.503)"/>
      <path id="Path_442" data-name="Path 442" d="M554.161,123.265a15.043,15.043,0,0,0-.059-2.952c-.479-3.973-2.65-7.769-3.043-11.643-.506,4.672,2.469,9.16,3.043,13.9A2.823,2.823,0,0,1,554.161,123.265Z" transform="translate(-545.504 -107.605)"/>
      <path id="Path_443" data-name="Path 443" d="M571.267,214.607c-.28,3.35-1.07,6.93-3.612,9.151s-7.223,2.1-8.636-.944c-.451-.9-.519-1.955-.957-2.858-1-2.068-3.467-2.871-5.62-3.679-6.117-2.289-12.017-6.772-13.331-13.187a13.859,13.859,0,0,1-.239-1.761,14.23,14.23,0,0,0,.239,4.018c1.314,6.4,7.223,10.9,13.331,13.187,2.153.808,4.618,1.612,5.62,3.679.451.9.528,1.946.957,2.858,1.422,3.043,6.113,3.16,8.636.944s3.309-5.8,3.612-9.151a51.582,51.582,0,0,0,.14-5.3C571.407,212.589,571.348,213.6,571.267,214.607Z" transform="translate(-538.823 -158.434)"/>
      <path id="Path_444" data-name="Path 444" d="M687.93,129.415v1.955c.253-8.4,3.332-16.839,3.029-25.06C690.724,113.912,688.1,121.686,687.93,129.415Z" transform="translate(-620.616 -106.31)"/>
      <path id="Path_445" data-name="Path 445" d="M657.865,207.831a5.819,5.819,0,0,0,.1-1.63,9.027,9.027,0,0,0-1.205-3.3c-2.609-4.966-5.584-10.049-5.937-15.561,0,.235-.032.451-.036.7-.181,6.113,3.12,11.706,5.973,17.114a10.839,10.839,0,0,1,1.1,2.673Z" transform="translate(-600.24 -150.759)"/>
      <path id="Path_446" data-name="Path 446" d="M672.337,217.163a36.735,36.735,0,0,1-4.555,15.584c-2.384,4.338-6.6,8.659-11.476,7.824a1.918,1.918,0,0,1-1.165-.528,1.128,1.128,0,0,1-.212-.352c-.054.352-.1.709-.126,1.07a2.081,2.081,0,0,0,.339,1.539,1.919,1.919,0,0,0,1.165.528c4.88.835,9.092-3.485,11.476-7.824a36.736,36.736,0,0,0,4.555-15.584c.054-1.056.059-2.108.027-3.16C672.355,216.562,672.355,216.86,672.337,217.163Z" transform="translate(-602.427 -166.624)"/>
    </g>
    <path id="Path_447" data-name="Path 447" d="M695.31,512.235s11.426,4.794,18.961-5.815" transform="translate(-421.405 -297.397)" fill="none" stroke="#000" stroke-miterlimit="10" stroke-width="1" opacity="0.1"/>
    <path id="Path_448" data-name="Path 448" d="M700.29,534.511s9.331-6.067,21.218-.2" transform="translate(-424.137 -311.294)" fill="none" stroke="#000" stroke-miterlimit="10" stroke-width="1" opacity="0.1"/>
    <path id="Path_449" data-name="Path 449" d="M561.93,529.18s3.919-8.839,14.383-2.1" transform="translate(-348.239 -307.341)" fill="none" stroke="#000" stroke-miterlimit="10" stroke-width="1" opacity="0.1"/>
    <path id="Path_450" data-name="Path 450" d="M533.79,234.518l7.991-7.223s30.983-2.032,32.265,8.5c0,0,10.984-12.487,34.084-9.706l9.774,7.783-27.015,11.855-26.251,9.106L545.3,246.178Z" transform="translate(-332.802 -143.398)" opacity="0.1"/>
    <path id="Path_451" data-name="Path 451" d="M533.79,235.518l7.991-7.223s30.983-2.032,32.265,8.5c0,0,10.984-12.487,34.084-9.706l9.774,7.783-27.015,11.855-26.251,9.106L545.3,247.178Z" transform="translate(-332.802 -143.947)" fill="#d5d6db"/>
    <path id="Path_452" data-name="Path 452" d="M437.38,204.83l3.535,42.287L478.385,249l-1.625-42.106-.032-.709Z" transform="translate(-239.927 -112.356)" opacity="0.1"/>
    <path id="Path_453" data-name="Path 453" d="M437.38,202.83l3.535,42.287L478.385,247l-1.625-42.106-.032-.709Z" transform="translate(-239.927 -111.259)" fill="#6c63ff"/>
    <path id="Path_454" data-name="Path 454" d="M588.363,202.83l-38.653,5.8V251.1l37.772-5.458Z" transform="translate(-301.546 -111.259)" opacity="0.1"/>
    <path id="Path_455" data-name="Path 455" d="M588.363,200.83l-38.653,5.8V249.1l37.772-5.458Z" transform="translate(-301.546 -110.162)" fill="#6c63ff"/>
    <path id="Path_456" data-name="Path 456" d="M589.769,223.79l-20.879,2.32.456,7.115,20.41-2.23Z" transform="translate(-312.068 -122.757)" fill="#fff" opacity="0.3"/>
    <path id="Path_457" data-name="Path 457" d="M537.188,344.319l2.126,5.72s3.16,2.709,6.618,1.354,6.474-2.027,7.977-3.345,3.612-7.941,3.612-7.941,2.108-7.223,4.212-9.029,7.675-26.685,0-24.252-13.543,25.006-13.543,25.006a5.353,5.353,0,0,1-3.309,1.806c-1.955.153-5.869-.3-6.623,1.354S534.93,341.01,537.188,344.319Z" transform="translate(-334.168 -187.817)" fill="#be6f72"/>
    <path id="Path_458" data-name="Path 458" d="M624.516,255.646a13,13,0,0,1-11.336-2.826l1.63,42.1a11.49,11.49,0,0,0,9.706,3.205Z" transform="translate(-376.352 -158.283)" opacity="0.1"/>
    <path id="Path_459" data-name="Path 459" d="M624.516,253.646a13,13,0,0,1-11.336-2.826l1.63,42.1a11.49,11.49,0,0,0,9.706,3.205Z" transform="translate(-376.352 -157.186)" fill="#6c63ff"/>
    <path id="Path_460" data-name="Path 460" d="M624.516,253.646a13,13,0,0,1-11.336-2.826l1.63,42.1a11.49,11.49,0,0,0,9.706,3.205Z" transform="translate(-376.352 -157.186)" opacity="0.1"/>
    <path id="Path_461" data-name="Path 461" d="M640.29,241.471s15.724-4.808,19.823-4.131" transform="translate(-391.223 -149.756)" opacity="0.1"/>
    <path id="Path_462" data-name="Path 462" d="M579.717,238.554s-15.241-3.612-17.787-2.587" transform="translate(-348.239 -148.938)" opacity="0.1"/>
    <path id="Path_463" data-name="Path 463" d="M662.25,244.842s10.514-3.855,14.315-2.022" transform="translate(-403.27 -152.526)" opacity="0.1"/>
    <path id="Path_464" data-name="Path 464" d="M650.52,452.519A34.564,34.564,0,0,1,655.7,449.3a84.56,84.56,0,0,0,7.675-4.691" transform="translate(-396.835 -263.491)" opacity="0.1"/>
    <path id="Path_465" data-name="Path 465" d="M547.613,360.08s-6.6,5.395-8.577,5.869-3.205,4.681-3.205,4.681" transform="translate(-333.921 -217.121)" opacity="0.1"/>
    <path id="Path_466" data-name="Path 466" d="M680.742,342.556l-2.1,5.733s-3.16,2.709-6.623,1.354-6.469-2.027-7.977-3.345-3.612-7.941-3.612-7.941-2.1-7.223-4.212-9.029-7.675-26.685,0-24.252,13.543,25.006,13.543,25.006a5.353,5.353,0,0,0,3.309,1.806c1.955.154,5.869-.3,6.623,1.354S683,339.26,680.742,342.556Z" transform="translate(-397.804 -186.857)" fill="#be6f72"/>
    <path id="Path_467" data-name="Path 467" d="M707.15,364.94s4.311,2.772,4.293,6.085" transform="translate(-427.9 -219.787)" opacity="0.1"/>
    <circle id="Ellipse_53" data-name="Ellipse 53" cx="20.166" cy="20.166" r="20.166" transform="translate(222.504 24.472)" fill="#be6f72"/>
    <path id="Path_468" data-name="Path 468" d="M585.937,104.466c2.447-.384,4.591-1.806,6.93-2.623,5.232-1.837,11.02-.578,16.315,1.079a21.159,21.159,0,0,0,6.225,1.354,6.3,6.3,0,0,0,5.481-2.709,6.124,6.124,0,0,0-.036-5.657,15.932,15.932,0,0,0-3.684-4.546c-4.7-4.433-10.519-8.577-16.961-8.126a23.343,23.343,0,0,0-7.453,2.135A82.162,82.162,0,0,0,584,89.78c-2.171,1.26-6.194,2.943-7.444,5.246C573.716,100.213,581.512,105.161,585.937,104.466Z" transform="translate(-355.93 -65.24)" fill="#3e373a"/>
    <path id="Path_469" data-name="Path 469" d="M620.885,115.335a6.3,6.3,0,0,1-5.481,2.709,21.175,21.175,0,0,1-6.23-1.327c-5.3-1.657-11.078-2.921-16.315-1.079-2.334.817-4.483,2.257-6.93,2.618-3.566.56-9.309-2.546-9.932-6.5-.7,4.564,5.959,8.474,9.932,7.851,2.447-.384,4.6-1.806,6.93-2.618,5.237-1.842,11.02-.578,16.315,1.079a20.319,20.319,0,0,0,6.23,1.327,6.349,6.349,0,0,0,5.481-2.709,5.286,5.286,0,0,0,.632-3.3,4.867,4.867,0,0,1-.632,1.946Z" transform="translate(-355.928 -80.904)" opacity="0.1"/>
    <path id="Path_470" data-name="Path 470" d="M1029.048,661.63s2.677,3.5-1.237,8.785-7.137,9.747-5.837,13.042c0,0,5.9-9.814,10.708-9.954S1034.326,667.53,1029.048,661.63Z" transform="translate(-600.438 -382.538)" fill="#6c63ff"/>
    <path id="Path_471" data-name="Path 471" d="M1029.234,661.63a4.334,4.334,0,0,1,.546,1.1c4.686,5.508,7.187,10.65,2.677,10.776-4.2.122-9.232,7.629-10.437,9.521a4.416,4.416,0,0,0,.14.451s5.9-9.814,10.708-9.954S1034.511,667.53,1029.234,661.63Z" transform="translate(-600.624 -382.538)" opacity="0.1"/>
    <path id="Path_472" data-name="Path 472" d="M1048.249,670.553c0,1.232-.14,2.23-.307,2.23s-.311-1-.311-2.23.172-.65.343-.65S1048.249,669.321,1048.249,670.553Z" transform="translate(-614.672 -387.001)" fill="#ffd037"/>
    <path id="Path_473" data-name="Path 473" d="M1050.227,673.715c-1.079.587-2.022.944-2.1.795s.727-.749,1.806-1.354.655-.163.736,0S1051.31,673.123,1050.227,673.715Z" transform="translate(-614.939 -388.691)" fill="#ffd037"/>
    <path id="Path_474" data-name="Path 474" d="M999.364,661.63s-2.677,3.5,1.237,8.785,7.137,9.747,5.833,13.042c0,0-5.9-9.814-10.708-9.954S994.1,667.53,999.364,661.63Z" transform="translate(-584.902 -382.538)" fill="#6c63ff"/>
    <path id="Path_475" data-name="Path 475" d="M999.364,661.63a4.336,4.336,0,0,0-.546,1.1c-4.686,5.508-7.187,10.65-2.677,10.776,4.194.122,9.232,7.629,10.437,9.521a3.5,3.5,0,0,1-.145.451s-5.9-9.814-10.708-9.954S994.1,667.53,999.364,661.63Z" transform="translate(-584.902 -382.538)" opacity="0.1"/>
    <path id="Path_476" data-name="Path 476" d="M995.64,670.553c0,1.232.135,2.23.307,2.23s.311-1,.311-2.23-.176-.65-.343-.65S995.64,669.321,995.64,670.553Z" transform="translate(-586.153 -387.001)" fill="#ffd037"/>
    <path id="Path_477" data-name="Path 477" d="M991.062,673.715c1.079.587,2.022.944,2.1.795s-.727-.749-1.806-1.354-.655-.163-.736,0S989.978,673.123,991.062,673.715Z" transform="translate(-583.281 -388.691)" fill="#ffd037"/>
    <ellipse id="Ellipse_54" data-name="Ellipse 54" cx="27.99" cy="4.293" rx="27.99" ry="4.293" transform="translate(393.547 319.112)" fill="#6c63ff" opacity="0.1"/>
    <path id="Path_478" data-name="Path 478" d="M1019.219,697.544l-.135,1.092-.19,1.544-.077.646-.19,1.544-.081.646-.185,1.539-2.144,17.561c-.19,1.567-2.749,2.79-5.842,2.79H999.247c-3.092,0-5.648-1.223-5.842-2.79l-2.144-17.561-.19-1.539-.077-.646-.19-1.544-.081-.646-.185-1.544-.135-1.092c-.1-.9,1.278-1.634,3.029-1.634h22.762C1017.942,695.91,1019.327,696.655,1019.219,697.544Z" transform="translate(-583.277 -401.343)" fill="#65617d"/>
    <path id="Path_479" data-name="Path 479" d="M930.675,658.53l-.185,1.544H902.32l-.19-1.544Z" transform="translate(-494.868 -361.236)" fill="#9d9cb5"/>
    <path id="Path_480" data-name="Path 480" d="M930.732,663.38l-.185,1.544H902.91l-.19-1.544Z" transform="translate(-495.192 -363.897)" fill="#9d9cb5"/>
    <path id="Path_481" data-name="Path 481" d="M930.795,668.23l-.19,1.544h-27.1l-.185-1.544Z" transform="translate(-495.521 -366.557)" fill="#9d9cb5"/>
  </g>
</svg>
