<svg xmlns="http://www.w3.org/2000/svg" viewBox="0 0 715.755 241.181">
  <defs>
    <style>
      .cls-1 {
        fill: #d8eded;
      }

      .cls-2 {
        fill: #e8aea6;
      }

      .cls-3 {
        fill: #2d0a7e;
      }

      .cls-4 {
        fill: #c98455;
      }

      .cls-5 {
        fill: #464391;
      }

      .cls-6 {
        fill: #8c72cc;
      }

      .cls-7 {
        fill: #e2995f;
      }

      .cls-8 {
        fill: #1d184c;
      }

      .cls-9 {
        fill: #fff;
      }

      .cls-10 {
        fill: #332777;
      }

      .cls-11 {
        fill: #bc7d51;
      }

      .cls-12 {
        fill: #c0461d;
      }

      .cls-13 {
        fill: #f5d54f;
      }

      .cls-14 {
        fill: #db5c23;
      }
    </style>
  </defs>
  <g id="Group_166" data-name="Group 166" transform="translate(-260 -86.819)">
    <path id="Path_48" data-name="Path 48" class="cls-1" d="M3417-17s18.951-269.5,213.582-213.582,367.308-84.013,367.308,0,66.2,71.305,0,137.5S3891.109-17,3891.109-17Z" transform="translate(-3157 345)"/>
    <g id="Writer_Woman" data-name="Writer Woman" transform="translate(386.955 134.071)">
      <ellipse id="Ellipse_15" data-name="Ellipse 15" class="cls-2" cx="72.3" cy="7.6" rx="72.3" ry="7.6" transform="translate(36 159.3)"/>
      <path id="Path_49" data-name="Path 49" class="cls-2" d="M36.1,160.3c0,.6-4.5,1.1-10.1,1.1s-10.1-.5-10.1-1.1,4.5-1.1,10.1-1.1S36.1,159.8,36.1,160.3Z"/>
      <path id="Path_50" data-name="Path 50" class="cls-2" d="M59.8,176.8c0,.6-4.5,1.1-10.1,1.1s-10.1-.5-10.1-1.1,4.5-1.1,10.1-1.1S59.8,176.2,59.8,176.8Z"/>
      <path id="Path_51" data-name="Path 51" class="cls-3" d="M165.2,155.9s11.5,4.5,17.7,4.7c0,0,7.3-.6-11.5-9.2,0,0-2,1.9-6.4,1.5Z"/>
      <path id="Path_52" data-name="Path 52" class="cls-3" d="M132.4,165.3s12.2,1.9,18.3.8c0,0,7.9-1.5-12.2-5.9a23.194,23.194,0,0,1-7.7-1Z"/>
      <path id="Path_53" data-name="Path 53" class="cls-4" d="M130.7,120.5s11.7,13.2,8.9,22.8a42.88,42.88,0,0,1-8.9,16s4.4,2.1,8.5,1.3c0,0,12.8-10.5,11.4-35.1,0,0-6.7-6.4-14.8-7.5l-1.7,2.8Z"/>
      <path id="Path_54" data-name="Path 54" class="cls-5" d="M134.1,120.7s-6-1.5-19,3.4-43.9,13.4-47.2-12.4c0,0,1-11.7-1.2-18.8l16.4,11.3s17.3,4.3,31.1,0c13.9-4.3,18.8-4.1,22.4-2.8A19.764,19.764,0,0,1,134.1,120.7Z"/>
      <path id="Path_55" data-name="Path 55" class="cls-6" d="M94.4,19.8s3.6,12.6,0,20c0,0,1.1,17.1-16.4,14.3,0,0,1.9,8.1,4.9,8.5,0,0-23.9,7.3-34.1-11.1,0,0-3-6.4,0-10.9s6.8-3.8,6.8-3.8-1.9-9.4,3.2-15.6C63.9,15.1,88.7,5.7,94.4,19.8Z"/>
      <path id="Path_56" data-name="Path 56" class="cls-7" d="M91.2,24.3S99.9,47,88.6,52.5c-7,3.4-10.7,1.7-10.7,1.7s-1.5,7,1.5,12.8c0,0-4.7,5.1-9.8-3.2,0,0,2.8-7.9,1.9-13.7A12.429,12.429,0,0,1,69.6,45s-3-4.9-1.3-7.7a2.824,2.824,0,0,1,5.3.6C73.7,37.9,85.5,39.6,91.2,24.3Z"/>
      <path id="Path_57" data-name="Path 57" class="cls-8" d="M89.7,105.4l33.3-3.6,10.9-33.3h-3.2l-9.6,30-31.4,3.6Z"/>
      <path id="Path_58" data-name="Path 58" class="cls-5" d="M69.7,63.7s-8.3.9-7.9,9.2,2.8,13,2.8,13a21.233,21.233,0,0,1,12.2-4.1s2.6,16.6,6.4,22.4c0,0-.9-11.1,0-16.8,0,0,6.6-3.2,4.7-9.2s-8.3-11.3-8.3-11.3S74.7,71.6,69.7,63.7Z"/>
      <path id="Path_59" data-name="Path 59" class="cls-7" d="M88.2,114.5s-13.8,7.7-23.6-28.6a16.839,16.839,0,0,1,12.2-4.1s3.4,17.9,6.4,22.4,13.2,2.3,14.5-1.1-1.1-8.7,2.8-10.7c3.8-1.9,7.7-2.3,8.5-.2.9,2.1-1.9,5.1-4.1,6.2-2.1,1.1-1.3,6.2-3,7.9S92.5,113.9,88.2,114.5Z"/>
      <path id="Path_60" data-name="Path 60" class="cls-7" d="M135.8,117.9s10.4,1.1,18.5,11.5S165,152.8,165,152.8s4.5.6,6.4-1.5c0,0,.2-37.7-34.1-48C137.3,103.3,139.5,109.8,135.8,117.9Z"/>
      <path id="Path_61" data-name="Path 61" class="cls-9" d="M37,100.2S31,72.3,48.7,68.5,67.8,99.9,67.8,99.9s-5.2,37.8,43.9,25.3c0,0,12.7-3.5,15.3,7.4s-3.4,16.8-10.9,18.8c-7.5,1.9-40.7,4.7-49.5,2.8C66.7,154.2,50.5,153.5,37,100.2Z"/>
      <path id="Path_62" data-name="Path 62" class="cls-10" d="M61.8,167.4h7.5l6.4-12.6h-7Z"/>
      <path id="Path_63" data-name="Path 63" class="cls-10" d="M123,167.4h-7.5L108,152.7l6.5-.7Z"/>
      <path id="Path_64" data-name="Path 64" class="cls-11" d="M92.6,37.3s1.3,2.7,3,3.7c1.7,1.1.1,3.4-1.1,3.2L93.3,44Z"/>
      <g id="Group_13" data-name="Group 13">
        <path id="Path_65" data-name="Path 65" class="cls-11" d="M86.3,35.1a5.385,5.385,0,0,0,1.9,1.3c.3.1.7.2,1,.3a4.869,4.869,0,0,0,1.2.1,2.281,2.281,0,0,1-1.2.6,2.2,2.2,0,0,1-1.4-.1A2.29,2.29,0,0,1,86.3,35.1Z"/>
      </g>
      <g id="Group_14" data-name="Group 14">
        <path id="Path_66" data-name="Path 66" class="cls-11" d="M87.5,44.2a2.575,2.575,0,0,0,.7,1.4,5.923,5.923,0,0,0,.6.4,3.552,3.552,0,0,1,.9.4,1.777,1.777,0,0,1-1,.4,1.922,1.922,0,0,1-1.2-.4,1.845,1.845,0,0,1-.5-1.2A2.355,2.355,0,0,1,87.5,44.2Z"/>
      </g>
      <g id="Group_17" data-name="Group 17">
        <path id="Path_67" data-name="Path 67" class="cls-6" d="M31.9,160s6-9.7.5-15c-4.1-2.9-8.7,2.2-11.3-.7s9.2-12.6,5.4-17.5a10.851,10.851,0,0,0-15.7-1.1c-4.4,4.1,2.7,27.4,8.2,34.3A61.909,61.909,0,0,0,31.9,160Z"/>
        <g id="Group_16" data-name="Group 16">
          <g id="Group_15" data-name="Group 15">
            <path id="Path_68" data-name="Path 68" class="cls-3" d="M25.8,160.3a47.9,47.9,0,0,1-6-8.2,29.954,29.954,0,0,1-3.5-9.6,21.762,21.762,0,0,1-.1-5.1,40.334,40.334,0,0,1,1.1-5,31.231,31.231,0,0,1,1.8-4.8,13.568,13.568,0,0,1,3-4.1,14.367,14.367,0,0,0-2.7,4.2,24.592,24.592,0,0,0-1.6,4.8c-.4,1.6-.7,3.3-1,4.9a16.832,16.832,0,0,0,.1,5,28.486,28.486,0,0,0,3.3,9.4,50.586,50.586,0,0,0,2.6,4.4C23.8,157.6,24.8,159,25.8,160.3Z"/>
          </g>
        </g>
      </g>
    </g>
    <g id="Reader_Man" data-name="Reader Man">
      <ellipse id="Ellipse_16" data-name="Ellipse 16" class="cls-2" cx="72.3" cy="7.6" rx="72.3" ry="7.6" transform="translate(831.155 299.371)"/>
      <path id="Path_69" data-name="Path 69" class="cls-2" d="M40.8,381.7c0,.9-6.6,1.6-14.8,1.6s-14.8-.7-14.8-1.6,6.6-1.6,14.8-1.6S40.8,380.9,40.8,381.7Z" transform="translate(784.955 -79.929)"/>
      <path id="Path_71" data-name="Path 71" class="cls-12" d="M75.1,369.8s19.5-12,21.8-22.1c1.7-7.4,1.7-20.2,1.7-20.2l-1.9-31.1s15.7,5.2,19.3,0c0,0,.8,41-9.8,58.2s-29.6,20.8-29.6,20.8S73.8,374.1,75.1,369.8Z" transform="translate(784.955 -79.929)"/>
      <path id="Path_72" data-name="Path 72" class="cls-8" d="M75.1,369.8s-6,.3-6.8,2.3c-.9,1.9,1.5,6.8,1.1,9.6-.4,2.9.4,6.6,5.7,6.6s4.2-4,1.4-4.4,0-8.5,0-8.5A5.543,5.543,0,0,1,75.1,369.8Z" transform="translate(784.955 -79.929)"/>
      <path id="Path_73" data-name="Path 73" class="cls-3" d="M106,203.7s-15.4-.7-18.6,12.8c-3.1,13.4,5.2,21.8,14.9,24.2l19.1-26.2s15.3-8.4,4.1-19.2C116.5,189.3,106,203.7,106,203.7Z" transform="translate(784.955 -79.929)"/>
      <path id="Path_74" data-name="Path 74" class="cls-7" d="M121.5,214.5s5.8,12.6,3.7,21.8c-2.1,9.3-16.2,10.8-16.2,10.8a9.228,9.228,0,0,0,0,6.6s-6.3.9-6.5-4.2a22.1,22.1,0,0,0,0-8.8s-8.9-5.1-4.4-11.5c3.4-4.2,5.5,0,5.5,0s9.7-4,8.9-17.6C112.3,211.6,118.3,214.9,121.5,214.5Z" transform="translate(784.955 -79.929)"/>
      <path id="Path_75" data-name="Path 75" class="cls-8" d="M130.5,279.3l7.9-16.1,1.5.8-7.8,16.7Z" transform="translate(784.955 -79.929)"/>
      <path id="Path_76" data-name="Path 76" class="cls-13" d="M98.3,288.9s-2.8,8.9-7.1,12.1c0,0,.2,1.6,4.4,5.1,0,0,8.3-9.8,10.3-14.4Z" transform="translate(784.955 -79.929)"/>
      <path id="Path_77" data-name="Path 77" class="cls-9" d="M108.9,253.7s12.4,14.1,7.1,42.8c0,0-1.4,5.1-19.3,0a13.743,13.743,0,0,0,1.4-9c-1-4.9,6-34.9,6-34.9A6.491,6.491,0,0,0,108.9,253.7Z" transform="translate(784.955 -79.929)"/>
      <path id="Path_79" data-name="Path 79" class="cls-13" d="M102.4,249.5s-9.7-1.5-11.3,10.8c-1.5,12.3,1.3,41.4,34.5,29.1,0,0-2.7-3.3-2.5-6.2,0,0-21.6,5.5-20.9-10.4.4-11.2.7-15.2,4.2-19.3C106.4,253.6,102.3,252.4,102.4,249.5Z" transform="translate(784.955 -79.929)"/>
      <path id="Path_80" data-name="Path 80" class="cls-11" d="M124.2,224.8a10.564,10.564,0,0,0,3.1,3.9c1.8,1.1.1,3.5-1.1,3.3l-1.2-.2Z" transform="translate(784.955 -79.929)"/>
      <path id="Path_81" data-name="Path 81" class="cls-14" d="M96.7,296.4a18.5,18.5,0,0,0,2.2,17.5c6.3,8.6,50.6,55.9,56.9,67.8,0,0,4.6-1.7,5.3-6,0,0-46.4-67-45.1-79.3C116,296.1,114.5,301.7,96.7,296.4Z" transform="translate(784.955 -79.929)"/>
      <path id="Path_82" data-name="Path 82" class="cls-8" d="M155.8,381.7s2.3,3.7,4.1,5.1c1.8,1.3,13-7.7,15-11.3s-1.8-4.3-5.5-2.1-6.4,5.2-8.3,2.4A8.728,8.728,0,0,1,155.8,381.7Z" transform="translate(784.955 -79.929)"/>
      <path id="Path_83" data-name="Path 83" class="cls-7" d="M123.3,283.7s2.2-2,3.7-3.3c1.5-1.2,3-1.9,3.4-1.2.5.7-1.3,2.7-1.3,2.7s4.6-5.5,5.3-5.4,2.7,2,0,6.5-9,5.9-9,5.9S123.1,285.8,123.3,283.7Z" transform="translate(784.955 -79.929)"/>
      <path id="Path_84" data-name="Path 84" class="cls-7" d="M91.7,302.2a7.3,7.3,0,0,0-2.7,4c-1,2.9-4.8-.7-6,0s-.3,4.1,2.4,5.1c2.8,1,6.2,1.2,6.9,0,.8-1.2,3.3-5.1,3.3-5.1S92.2,303.3,91.7,302.2Z" transform="translate(784.955 -79.929)"/>
      <path id="Path_85" data-name="Path 85" class="cls-3" d="M105.9,226.8s-1.3,8.6,1,11.9,13.1-.7,13.9-3.3,4.7-2.8,4.7-2.8,1.6.3,1.3,2.6.2,16.4-14,16.2c-7.9-1-10-12.3-9.4-22.3A6.118,6.118,0,0,0,105.9,226.8Z" transform="translate(784.955 -79.929)"/>
      <path id="Path_70" data-name="Path 70" class="cls-2" d="M61,397.1c0,.9-6.6,1.6-14.8,1.6s-14.8-.7-14.8-1.6,6.6-1.6,14.8-1.6C54.4,395.6,61,396.3,61,397.1Z" transform="translate(784.955 -79.929)"/>
    </g>
    <g id="Leaf" transform="translate(665.955 -115.929)">
      <path id="Path_86" data-name="Path 86" class="cls-6" d="M47.9,397.5s11-12,14.1-19.2-2-8.5-4.5-4.7S50.3,386,49,375.7s.4-12.5-1.1-13.8c-1.6-1.3-3.5-.4-4.9,4.5s-6.3,5.9-7.6,1.3c-1.3-4.7-4.5-14.9-9.2-14.4-4.7.6.1,8,0,12.3-.1,4.2-3.9,3.5-6.9-.3s-13.1-15.6-17.6-12c-4.5,3.5,1.8,8.2,0,12.7s-1.6,11.9,7,9,8,5.2,8.5,6.6,2.5,6.2,7.9,3.8,8.3-1.3,6.3.7-5.5,4.1-3.7,5.2,8.9-2.5,11.8-.6c3,2,4.1,6.6,4.1,6.6h4.3Z"/>
      <g id="Group_20" data-name="Group 20">
        <path id="Path_87" data-name="Path 87" class="cls-3" d="M5.6,363.7c1.9,1.4,3.9,2.8,5.8,4.1,2,1.3,4,2.6,6.1,3.7a18.666,18.666,0,0,0,3.2,1.5l3.3,1.2,6.8,2.2a55.162,55.162,0,0,1,6.7,2.7,17.576,17.576,0,0,1,5.9,4.3,5.071,5.071,0,0,1,.9,1.6,5.84,5.84,0,0,1,.4,1.8c.1,1.2.3,2.4.4,3.6a34.654,34.654,0,0,1,0,7.2,41.7,41.7,0,0,0-.4-7.1c-.1-1.2-.3-2.4-.5-3.5a5.208,5.208,0,0,0-1.4-3.1,16.359,16.359,0,0,0-5.7-4c-2.1-1-4.4-1.8-6.6-2.6L23.7,375c-1.1-.4-2.3-.8-3.4-1.3a31.823,31.823,0,0,1-3.2-1.6A84.533,84.533,0,0,1,5.6,363.7Z"/>
      </g>
    </g>
  </g>
</svg>
