<svg xmlns="http://www.w3.org/2000/svg" viewBox="0 0 345.1 447.511">
  <defs>
    <style>
      .cls-1 {
        fill: #e8aea6;
      }

      .cls-2 {
        fill: #8c72cc;
      }

      .cls-3 {
        fill: #2d0a7e;
      }

      .cls-4 {
        fill: #c0461d;
      }

      .cls-5 {
        fill: #db5c23;
      }

      .cls-6 {
        fill: #1d184c;
      }

      .cls-7 {
        fill: #f5d54f;
      }

      .cls-8 {
        fill: #dbbf49;
      }

      .cls-9 {
        fill: #e2995f;
      }

      .cls-10 {
        fill: #332777;
      }

      .cls-11 {
        fill: #fff;
      }

      .cls-12 {
        fill: #464391;
      }

      .cls-13 {
        fill: #bc7d51;
      }
    </style>
  </defs>
  <g id="Group_57" data-name="Group 57" transform="translate(-875 -314)">
    <g id="Group_56" data-name="Group 56" transform="translate(875 314)">
      <path id="Path_95" data-name="Path 95" class="cls-1" d="M67.087,164.4c0,1.671-13.126,3.1-29.594,3.1S7.9,166.073,7.9,164.4s13.126-3.1,29.594-3.1S67.087,162.732,67.087,164.4Z" transform="translate(10.954 223.683)"/>
      <g id="Group_52" data-name="Group 52" transform="translate(6.753 281.704)">
        <path id="Path_96" data-name="Path 96" class="cls-2" d="M38.8,225.122S12.544,196.483,5.146,179.3s4.773-20.286,10.74-11.217,17.183,29.594,20.286,5.012-.955-29.832,2.625-32.935c3.819-3.1,8.353-.955,11.694,10.74S65.526,164.98,68.629,154c3.1-11.217,10.74-35.56,21.957-34.367,11.217,1.432-.239,19.093,0,29.355.239,10.024,9.308,8.353,16.467-.716s31.264-37.231,42-28.639c10.74,8.353-4.3,19.57,0,30.31s3.819,28.4-16.706,21.479c-20.525-6.682-19.093,12.41-20.286,15.751-.955,3.341-5.966,14.8-18.854,9.069s-19.809-3.1-15.035,1.671,13.126,9.785,8.83,12.41-21.241-5.966-28.162-1.432-9.785,15.751-9.785,15.751H38.8Z" transform="translate(-2.83 -118.025)"/>
        <g id="Group_51" data-name="Group 51" transform="translate(42.032 26.431)">
          <path id="Path_97" data-name="Path 97" class="cls-3" d="M115.328,129.1a190.077,190.077,0,0,1-27.684,20.047,45.64,45.64,0,0,1-7.637,3.819,81.68,81.68,0,0,1-8.114,3.1l-16.229,5.489a154.423,154.423,0,0,0-15.751,6.205c-5.012,2.387-10.024,5.25-13.6,9.546a16.148,16.148,0,0,0-3.341,7.4c-.477,2.864-.716,5.728-1.193,8.353a100.912,100.912,0,0,0-.955,16.945c-.716-5.728-.239-11.456,0-17.183.239-2.864.477-5.728.955-8.592a27.748,27.748,0,0,1,.955-4.3c.716-1.432,1.432-2.625,2.148-3.819,3.58-4.773,8.83-7.637,14.081-10.262a131.659,131.659,0,0,1,15.99-6.444l16.229-5.25c2.625-.955,5.489-1.909,7.876-2.864,2.625-1.193,5.012-2.387,7.637-3.58,5.012-2.625,9.785-5.728,14.558-8.83C106.259,135.782,110.794,132.441,115.328,129.1Z" transform="translate(-20.442 -129.1)"/>
        </g>
      </g>
      <ellipse id="Ellipse_27" data-name="Ellipse 27" class="cls-1" cx="172.55" cy="18.138" rx="172.55" ry="18.138" transform="translate(0 400.734)"/>
      <ellipse id="Ellipse_28" data-name="Ellipse 28" class="cls-1" cx="29.594" cy="3.103" rx="29.594" ry="3.103" transform="translate(236.033 441.306)"/>
      <path id="Path_98" data-name="Path 98" class="cls-4" d="M210.487,137.389H100.943L58.7,114h89.258Z" transform="translate(81.392 158.098)"/>
      <path id="Path_99" data-name="Path 99" class="cls-5" d="M158.628,81.954V223.24H144.07v-5.489l-47.97-17.9V63.1S125.455,28.495,158.628,81.954Z" transform="translate(133.251 72.246)"/>
      <path id="Path_100" data-name="Path 100" class="cls-4" d="M152.667,81.01V219.193L89.9,198.907V61.918S119.494,27.551,152.667,81.01Z" transform="translate(124.654 70.804)"/>
      <rect id="Rectangle_24" data-name="Rectangle 24" class="cls-5" width="109.783" height="18.377" transform="translate(182.335 295.486)"/>
      <path id="Path_101" data-name="Path 101" class="cls-4" d="M58.7,114v15.035l42.242,26.73V137.389Z" transform="translate(81.392 158.098)"/>
      <rect id="Rectangle_25" data-name="Rectangle 25" class="cls-6" width="4.535" height="78.757" transform="translate(140.092 287.372)"/>
      <path id="Path_102" data-name="Path 102" class="cls-7" d="M146.677,94.739s-43.436,24.582-67.3,26.968-18.854,47.016-19.809,55.13c-.716,7.876-5.966,59.187-5.966,59.187s6.205,4.773,12.172,2.148c0,0,31.026-77.564,36.276-108.351,0,0,48.448-19.331,69.211-39.617C171.5,89.966,158.132,94.978,146.677,94.739Z" transform="translate(74.321 125.092)"/>
      <path id="Path_103" data-name="Path 103" class="cls-8" d="M166.61,88.9s30.787,36.276,0,63.96c-23.15,17.422-78.519,19.331-78.519,19.331s7.16,56.8-2.864,92.361c0,0-5.966,5.489-15.513,1.671,0,0-2.625-25.3-8.114-45.345,0,0,25.059-68.256,29.594-89.736,0,0,42.958-17.9,69.211-39.617C160.4,91.764,163.268,90.332,166.61,88.9Z" transform="translate(85.413 123.294)"/>
      <path id="Path_104" data-name="Path 104" class="cls-2" d="M91.189,37.962s-42.243,12.41-13.6,63.96c5.489,12.172-3.341,19.809,1.671,36.276,5.25,16.706,24.82,53.221,75.416,32.219,50.6-21.241,47.732-54.414,39.856-68.495s-9.069-16.706-7.637-41.527S167.8-5,127.465.493C87.37,5.982,91.189,37.962,91.189,37.962Z" transform="translate(93.771 0.011)"/>
      <path id="Path_105" data-name="Path 105" class="cls-9" d="M76.328,32.008s-2.864,56.8,35.56,53.937,39.14-30.787,37.469-33.173c0,0,12.172-9.785.477-20.763-5.728-5.966-11.694,5.966-11.694,5.966S108.07,49.43,82.294,22.7C82.533,22.7,80.862,28.905,76.328,32.008Z" transform="translate(105.768 31.503)"/>
      <path id="Path_106" data-name="Path 106" class="cls-9" d="M92.931,51.734s2.148,9.785,0,15.274,4.773,13.6,11.933,5.489c7.16-7.876,6.205-13.126,6.205-13.126s-1.909-4.535-1.432-12.172A79.3,79.3,0,0,1,92.931,51.734Z" transform="translate(128.305 65.474)"/>
      <path id="Path_107" data-name="Path 107" class="cls-6" d="M56.762,148.577s52.743-.239,60.858-47.016C125.973,54.784,143.4,55.5,143.4,55.5s-.239,7.876,7.637,8.592c0,0-20.047,72.552-35.083,80.189-14.8,7.637-43.913,14.8-56.562,14.8C59.626,159.078,54.376,153.828,56.762,148.577Z" transform="translate(77.841 76.982)"/>
      <path id="Path_108" data-name="Path 108" class="cls-10" d="M99.476,147.7s0-27.446-4.535-35.56-10.5-17.9-5.25-31.742S99.953,60.356,99.953,60.356l18.138-7.637s11.456-2.625,19.331,2.148l-6.921,85.2S114.75,148.9,99.476,147.7Z" transform="translate(121.522 72.127)"/>
      <path id="Path_109" data-name="Path 109" class="cls-11" d="M11,103v9.308c0,3.341,39.379,5.966,87.826,5.966s87.826-2.625,87.826-5.966V103Z" transform="translate(15.252 142.845)"/>
      <ellipse id="Ellipse_29" data-name="Ellipse 29" class="cls-3" cx="87.826" cy="5.966" rx="87.826" ry="5.966" transform="translate(26.252 239.879)"/>
      <path id="Path_110" data-name="Path 110" class="cls-9" d="M74.892,95.511S63.2,93.363,59.857,93.84c-3.58.239-9.785,6.682-15.035,8.592s2.148,5.966,10.5,4.535c8.592-1.432,13.6.955,22.434-.955A11.2,11.2,0,0,1,74.892,95.511Z" transform="translate(59.711 130.048)"/>
      <path id="Path_111" data-name="Path 111" class="cls-6" d="M18.7,172.7v6.682c0,2.387,28.4,4.3,63.722,4.3,35.083,0,63.722-1.909,63.722-4.3V172.7Z" transform="translate(25.929 239.49)"/>
      <path id="Path_112" data-name="Path 112" class="cls-6" d="M17.2,75.4l23.389,64.2h75.893L92.855,75.4Z" transform="translate(23.849 104.576)"/>
      <path id="Path_113" data-name="Path 113" class="cls-3" d="M146.143,175.2c0,2.387-28.4,4.3-63.722,4.3-35.083,0-63.722-1.909-63.722-4.3s28.4-4.3,63.722-4.3C117.5,170.9,146.143,173.048,146.143,175.2Z" transform="translate(25.929 236.994)"/>
      <rect id="Rectangle_26" data-name="Rectangle 26" class="cls-11" width="11.456" height="148.923" transform="translate(102.623 261.119)"/>
      <path id="Path_114" data-name="Path 114" class="cls-12" d="M67.952,151.3S56.5,168.722,48.143,174.45c-8.114,5.728-5.489,16.706,5.728,9.785,10.978-6.682,17.422-14.32,21.479-15.513s4.773-15.513,4.773-15.513S72.009,153.925,67.952,151.3Z" transform="translate(60.208 209.817)"/>
      <path id="Path_115" data-name="Path 115" class="cls-12" d="M82.378,165.225s4.3,4.3-5.012,8.83c-9.308,4.773-25.536,8.83-22.673,12.649,2.864,4.057,23.389-1.671,29.594-2.387s12.888-3.58,12.172-7.637S95.027,162.6,95.027,162.6,91.925,166.9,82.378,165.225Z" transform="translate(75.375 225.486)"/>
      <path id="Path_116" data-name="Path 116" class="cls-6" d="M59.493,104.1h49.88V101H58.3Z" transform="translate(80.838 140.072)"/>
      <path id="Path_117" data-name="Path 117" class="cls-13" d="M84.554,34.6s.716,7.16-.955,11.694c-1.909,4.535,1.909,7.876,4.535,7.16,2.625-.477,3.341-1.909,3.341-1.909Z" transform="translate(115.203 48.003)"/>
      <path id="Path_118" data-name="Path 118" class="cls-12" d="M78.949,170.143s63.96-26.252,65.392-44.629-6.205-54.175-2.148-63.006c4.057-9.069,7.876-9.308,7.876-9.308s13.6,0,15.513,16.945c2.148,16.945,1.432,66.824-18.615,79.235-19.809,12.41-64.915,27.446-64.915,27.446S76.563,175.632,78.949,170.143Z" transform="translate(108.636 73.793)"/>
      <path id="Path_119" data-name="Path 119" class="cls-9" d="M97.562,102.323s-10.5-.477-14.558,0-10.978,6.682-15.274,9.069c-4.057,2.387-3.1,5.966-.955,5.966,0,0,5.728,2.148,14.558,0s19.331-8.353,19.331-8.353S95.414,107.335,97.562,102.323Z" transform="translate(90.024 141.613)"/>
      <g id="Group_53" data-name="Group 53" transform="translate(187.108 85.944)">
        <path id="Path_120" data-name="Path 120" class="cls-13" d="M78.4,36a26.033,26.033,0,0,1,2.625,1.432,3.809,3.809,0,0,0,1.909.716,2.573,2.573,0,0,0,1.671-.477,5.217,5.217,0,0,1,1.193-.716A4.19,4.19,0,0,0,86.992,36a6.606,6.606,0,0,1-.716,3.1,3.545,3.545,0,0,1-3.58,1.671,4.164,4.164,0,0,1-3.1-1.909A3.212,3.212,0,0,1,78.4,36Z" transform="translate(-78.4 -36)"/>
      </g>
      <g id="Group_54" data-name="Group 54" transform="translate(209.065 75.205)">
        <path id="Path_121" data-name="Path 121" class="cls-13" d="M87.6,37.944c2.864.239,5.25,0,6.921-1.193A10.405,10.405,0,0,0,97.146,34.6c.477-.477.716-.955,1.193-1.432s.716-.955,1.432-1.671v2.148L99.056,35.8a7.038,7.038,0,0,1-3.1,3.341,7.622,7.622,0,0,1-4.535.716A4.982,4.982,0,0,1,87.6,37.944Z" transform="translate(-87.6 -31.5)"/>
      </g>
      <g id="Group_55" data-name="Group 55" transform="translate(209.065 95.968)">
        <path id="Path_122" data-name="Path 122" class="cls-13" d="M87.6,49.508a26.836,26.836,0,0,0,4.535-3.819,8.477,8.477,0,0,0,.955-2.148c.239-.955.239-1.909.477-3.341a4.558,4.558,0,0,1,1.671,3.341,6.4,6.4,0,0,1-.955,4.057,5.8,5.8,0,0,1-3.341,2.148A5.474,5.474,0,0,1,87.6,49.508Z" transform="translate(-87.6 -40.2)"/>
      </g>
      <rect id="Rectangle_27" data-name="Rectangle 27" class="cls-6" width="4.535" height="109.305" transform="translate(182.335 313.863)"/>
      <rect id="Rectangle_28" data-name="Rectangle 28" class="cls-6" width="4.535" height="109.305" transform="translate(287.345 313.863)"/>
      <rect id="Rectangle_29" data-name="Rectangle 29" class="cls-6" width="4.535" height="52.982" transform="translate(213.838 313.863)"/>
    </g>
  </g>
</svg>
