<svg xmlns="http://www.w3.org/2000/svg" xmlns:xlink="http://www.w3.org/1999/xlink" viewBox="0 0 593.498 508.14">
  <defs>
    <style>
      .cls-1 {
        fill: #6c54ec;
      }

      .cls-1, .cls-2, .cls-7, .cls-9 {
        opacity: 0.1;
      }

      .cls-2, .cls-4 {
        fill: #6c63ff;
      }

      .cls-3 {
        fill: none;
        stroke: #535461;
        stroke-miterlimit: 10;
        stroke-width: 2px;
      }

      .cls-5 {
        fill: #a8a8a8;
      }

      .cls-6 {
        opacity: 0.2;
      }

      .cls-8 {
        fill: #ffd037;
      }

      .cls-9 {
        fill: #fff;
      }

      .cls-10 {
        fill: url(#linear-gradient);
      }

      .cls-11 {
        fill: #efb4b6;
      }

      .cls-12 {
        fill: #565388;
      }

      .cls-13 {
        fill: #7679b4;
      }

      .cls-14 {
        fill: #a66477;
      }
    </style>
    <linearGradient id="linear-gradient" x1="0.489" y1="0.994" x2="0.489" y2="-0.009" gradientUnits="objectBoundingBox">
      <stop offset="0" stop-color="gray" stop-opacity="0.251"/>
      <stop offset="0.54" stop-color="gray" stop-opacity="0.122"/>
      <stop offset="1" stop-color="gray" stop-opacity="0.102"/>
    </linearGradient>
  </defs>
  <g id="undraw_navigation_lytx" transform="translate(-0.003)">
    <ellipse id="Ellipse_55" data-name="Ellipse 55" class="cls-1" cx="284.682" cy="254.07" rx="284.682" ry="254.07" transform="translate(24.137 0)"/>
    <path id="Path_482" data-name="Path 482" class="cls-2" d="M848.333,329a72.623,72.623,0,0,0-72.623,72.623c0,40.113,72.623,139.753,72.623,139.753s72.623-99.67,72.623-139.753A72.623,72.623,0,0,0,848.333,329Zm0,110.008a58.729,58.729,0,1,0,.008-.024Z" transform="translate(-371.731 -148.773)"/>
    <path id="Path_483" data-name="Path 483" class="cls-3" d="M189.171,517.292s-12.932-43.909,2.441-76.23a69.37,69.37,0,0,0,5.608-43.513,116.308,116.308,0,0,0-6.158-20.42" transform="translate(-141.16 -167.531)"/>
    <path id="Path_484" data-name="Path 484" class="cls-4" d="M198.665,337.012c0,5.383-9.764,20.987-9.764,20.987s-9.764-15.6-9.764-20.987a9.764,9.764,0,1,1,19.486,0Z" transform="translate(-139.223 -147.839)"/>
    <path id="Path_485" data-name="Path 485" class="cls-4" d="M225.034,382.528c-2.923,4.522-19.584,12.321-19.584,12.321s.3-18.394,3.228-22.91a9.764,9.764,0,1,1,16.355,10.588Z" transform="translate(-149.487 -163.548)"/>
    <path id="Path_486" data-name="Path 486" class="cls-4" d="M221.619,464.025c-4.809,2.441-23.129.751-23.129.751s9.551-15.727,14.354-18.15a9.764,9.764,0,1,1,8.776,17.4Z" transform="translate(-146.774 -194.088)"/>
    <path id="Path_487" data-name="Path 487" class="cls-4" d="M206.816,527.459c-4.327,3.2-22.666,4.644-22.666,4.644s6.756-17.088,11.077-20.31a9.764,9.764,0,1,1,11.6,15.666Z" transform="translate(-141.186 -219.117)"/>
    <path id="Path_488" data-name="Path 488" class="cls-4" d="M170.317,403.991c3.863,3.753,21.842,7.635,21.842,7.635s-4.4-17.863-8.263-21.61a9.764,9.764,0,0,0-13.579,13.975Z" transform="translate(-134.817 -171.647)"/>
    <path id="Path_489" data-name="Path 489" class="cls-4" d="M152.15,476.648c4.8,2.441,23.123.751,23.123.751s-9.545-15.727-14.354-18.15a9.764,9.764,0,0,0-8.77,17.4Z" transform="translate(-126.847 -199.234)"/>
    <path id="Path_490" data-name="Path 490" class="cls-4" d="M145.974,550.812c4.327,3.2,22.666,4.644,22.666,4.644s-6.756-17.088-11.083-20.316a9.764,9.764,0,1,0-11.6,15.672Z" transform="translate(-124.577 -228.227)"/>
    <ellipse id="Ellipse_56" data-name="Ellipse 56" class="cls-2" cx="173.312" cy="27.945" rx="173.312" ry="27.945" transform="translate(141.414 375.253)"/>
    <path id="Path_491" data-name="Path 491" class="cls-5" d="M358.07,773.78s17.088-3.418,21.653-7.976,25.07-12.529,27.346-6.835,30.77,25.07,11.394,28.488-45.575,4.559-51.263,2.282S358.07,773.78,358.07,773.78Z" transform="translate(-208.966 -315.572)"/>
    <path id="Path_492" data-name="Path 492" class="cls-6" d="M418.441,795.985c-19.37,3.417-45.575,4.559-51.263,2.282-4.339-1.739-7.354-10.076-8.544-13.957-.36.079-.574.116-.574.116s3.424,13.676,9.118,15.959,31.905,1.135,51.263-2.282c5.6-.989,7.2-3.3,6.591-6.237C424.574,793.781,422.621,795.252,418.441,795.985Z" transform="translate(-208.962 -326.219)"/>
    <path id="Path_493" data-name="Path 493" class="cls-5" d="M839.73,678.913s17.088-3.417,21.653-7.976,25.064-12.553,27.334-6.835,30.764,25.07,11.394,28.488-45.582,4.559-51.263,2.276S839.73,678.913,839.73,678.913Z" transform="translate(-396.681 -278.597)"/>
    <path id="Path_494" data-name="Path 494" class="cls-6" d="M900.135,701.125c-19.37,3.417-45.582,4.559-51.263,2.276-4.339-1.733-7.323-10.07-8.544-13.951l-.568.116s3.418,13.676,9.118,15.953,31.905,1.141,51.263-2.276c5.59-.989,7.189-3.308,6.591-6.237C906.244,698.94,904.3,700.392,900.135,701.125Z" transform="translate(-396.692 -289.249)"/>
    <path id="Path_495" data-name="Path 495" class="cls-4" d="M787.1,791.89s3.35,4.382-1.55,10.985-8.941,12.206-7.323,16.331c0,0,7.39-12.291,13.426-12.468S793.736,799.28,787.1,791.89Z" transform="translate(-372.571 -329.173)"/>
    <path id="Path_496" data-name="Path 496" class="cls-7" d="M787.228,791.89a5.491,5.491,0,0,1,.684,1.373c5.871,6.9,9,13.335,3.357,13.493-5.261.153-11.565,9.551-13.078,11.925a5.659,5.659,0,0,0,.183.543s7.391-12.291,13.426-12.468S793.862,799.28,787.228,791.89Z" transform="translate(-372.697 -329.173)"/>
    <path id="Path_497" data-name="Path 497" class="cls-8" d="M802.745,800.362c0,1.544-.177,2.8-.391,2.8s-.385-1.221-.385-2.8.214-.818.427-.818S802.745,798.842,802.745,800.362Z" transform="translate(-381.965 -332.085)"/>
    <path id="Path_498" data-name="Path 498" class="cls-8" d="M805.052,803.386c-1.355.738-2.533,1.184-2.636.995s.915-.934,2.27-1.672.818-.2.922,0S806.431,802.648,805.052,803.386Z" transform="translate(-382.136 -333.242)"/>
    <path id="Path_499" data-name="Path 499" class="cls-4" d="M759.191,791.89s-3.35,4.382,1.544,10.985,8.941,12.206,7.323,16.331c0,0-7.4-12.291-13.426-12.468S752.576,799.28,759.191,791.89Z" transform="translate(-362.358 -329.173)"/>
    <path id="Path_500" data-name="Path 500" class="cls-7" d="M759.186,791.89a5.265,5.265,0,0,0-.683,1.373c-5.871,6.9-9,13.334-3.357,13.493,5.254.153,11.6,9.551,13.072,11.925a5.65,5.65,0,0,1-.177.543s-7.4-12.291-13.426-12.468S752.57,799.28,759.186,791.89Z" transform="translate(-362.353 -329.173)"/>
    <path id="Path_501" data-name="Path 501" class="cls-8" d="M753.8,800.362c0,1.544.171,2.8.384,2.8s.385-1.221.385-2.8-.214-.818-.427-.818S753.8,798.842,753.8,800.362Z" transform="translate(-363.192 -332.085)"/>
    <path id="Path_502" data-name="Path 502" class="cls-8" d="M749.766,803.386c1.355.738,2.539,1.184,2.643.995s-.915-.934-2.27-1.672-.824-.2-.922,0S748.411,802.648,749.766,803.386Z" transform="translate(-361.3 -333.242)"/>
    <path id="Path_503" data-name="Path 503" class="cls-5" d="M755.55,832.5s9.374-.287,12.205-2.3,14.421-4.412,15.123-1.221,14.085,16.05,3.5,16.136-24.588-1.654-27.407-3.369S755.55,832.5,755.55,832.5Z" transform="translate(-363.874 -343.021)"/>
    <path id="Path_504" data-name="Path 504" class="cls-6" d="M786.558,847.254c-10.582.079-24.588-1.654-27.407-3.369-2.148-1.306-3-6-3.289-8.166h-.311s.61,7.561,3.411,9.276,16.825,3.454,27.408,3.369c3.051-.031,4.107-1.117,4.052-2.722C790,846.626,788.834,847.236,786.558,847.254Z" transform="translate(-363.874 -346.254)"/>
    <path id="Path_505" data-name="Path 505" class="cls-5" d="M127.758,571.562a38.545,38.545,0,0,0,2.008,38.692c1.221,1.831,2.343,3.143,3.241,3.5,4.272,1.69,12.92,5.846,12.92,5.846l20.749-8.153s3.369-17.82,6.554-33.12h0c2.173-10.436,4.272-19.694,5.132-21.317,2.148-4,0-47.516,0-47.516s-20.749-1.391-26.455,14.6l-2.5,4.882Z" transform="translate(-117.547 -219.103)"/>
    <path id="Path_506" data-name="Path 506" class="cls-9" d="M171.076,576.381c12.614,14.457,17.936,1.953,17.936,1.953h0c2.173-10.436,4.272-19.694,5.132-21.317,2.148-4,0-47.516,0-47.516s-20.749-1.391-26.455,14.6l-2.5,4.882C163.594,541.784,162.014,565.994,171.076,576.381Z" transform="translate(-133.317 -219.107)"/>
    <path id="Path_507" data-name="Path 507" class="cls-5" d="M180.16,585.159l73.233-8.458,13.072-85.982-9.886-22.324a90.424,90.424,0,0,0-17.088-25.784c-4.974-5.236-10.985-10.283-17.307-12.816a25.463,25.463,0,0,0-2.643-.9,6.847,6.847,0,0,0-6.1,1.08c-9.032,6.4-12.26,33.62-13.3,46.723a146.22,146.22,0,0,1-2.179,16.044Z" transform="translate(-139.631 -187.589)"/>
    <path id="Path_508" data-name="Path 508" class="cls-9" d="M250.163,489.8l-15.257,37.532c8-5.846,19.84-37.685,19.84-37.685l10.643,36.3-8.458-38.258A119.7,119.7,0,0,0,258,462.573c-.665-9.6-9.685-25.021-14.579-32.778a25.464,25.464,0,0,0-2.642-.9,6.847,6.847,0,0,0-6.1,1.08c3.845,7.72,13.426,27.017,16.386,32.76C254.776,469.957,250.163,489.8,250.163,489.8Z" transform="translate(-160.878 -187.589)"/>
    <path id="Path_509" data-name="Path 509" class="cls-5" d="M280.46,625.82h52.295s-1.221-51.373-8.916-79.336c-2.862-10.375-6.188-15.867-9.24-18.558a8.977,8.977,0,0,0-5.254-2.472,6.9,6.9,0,0,0-4.272,1.037c-7.384,7.073-16,44.294-16,44.294Z" transform="translate(-178.72 -225.326)"/>
    <path id="Path_510" data-name="Path 510" class="cls-9" d="M321.447,625.945c1.636,4.534,2.282,9.764,0,14.86l-8.855,4.376s-23.8-10.094-20.908-30.764c0,0,.781-4.272,8.977-3.948A23.252,23.252,0,0,1,321.447,625.945Z" transform="translate(-182.999 -258.462)"/>
    <path id="Path_511" data-name="Path 511" class="cls-9" d="M317.9,538.456c-.269-7.25,3.662-9.734,6.914-10.564a8.977,8.977,0,0,0-5.254-2.472,13.914,13.914,0,0,0-4.577,7.323l-8.306,40.449S318.367,550.606,317.9,538.456Z" transform="translate(-188.938 -225.323)"/>
    <path id="Path_512" data-name="Path 512" class="cls-5" d="M109.407,565.51l19.687,26.919,3.411,22.208-12.639,6.243-20.92,4.614L46.5,620.88,53.268,605.2l23.38-32.815Z" transform="translate(-18.121 -220.393)"/>
    <path id="Path_513" data-name="Path 513" class="cls-9" d="M219.863,584.072s13.426.922,8.385,23.99S171.34,632.98,171.34,632.98s11.022-19.565,27.975-33.522c1.9-1.568,3.741-3.21,5.492-4.949C208.726,590.6,216.165,583.737,219.863,584.072Z" transform="translate(-136.193 -248.176)"/>
    <path id="Path_514" data-name="Path 514" class="cls-7" d="M270.64,612.56s18.2,16.551,16.477,42.036" transform="translate(-174.893 -259.283)"/>
    <path id="Path_515" data-name="Path 515" class="cls-7" d="M307.232,527.12S288.142,552.507,286,591.565" transform="translate(-180.879 -225.985)"/>
    <path id="Path_516" data-name="Path 516" class="cls-7" d="M204.6,509.49s9.264,41.956-13.829,73.575" transform="translate(-143.765 -219.115)"/>
    <path id="Path_517" data-name="Path 517" class="cls-4" d="M339.451,680.077a8.926,8.926,0,0,1-2.954-4.455c-.384-1.77.372-3.894,2.063-4.541,1.892-.72,3.918.61,5.45,1.916s3.3,2.838,5.3,2.557a8.074,8.074,0,0,1-2.5-7.555,3.119,3.119,0,0,1,.7-1.532c1.05-1.123,2.96-.61,4.217.244,4,2.813,5.12,8.257,5.145,13.151.4-1.764.061-3.607.073-5.419s.507-3.82,2.032-4.791a6.145,6.145,0,0,1,3.106-.732c1.8-.061,3.8.116,5.029,1.434,1.532,1.636,1.135,4.382-.2,6.182s-3.35,2.929-5.212,4.168a11.639,11.639,0,0,0-3.723,3.552,3.753,3.753,0,0,0-.275.61H346.427a31.225,31.225,0,0,1-6.975-4.791Z" transform="translate(-200.521 -280.041)"/>
    <path id="Path_518" data-name="Path 518" class="cls-4" d="M225.052,685.782a8.887,8.887,0,0,1-2.954-4.455c-.378-1.77.372-3.887,2.063-4.534,1.892-.726,3.918.61,5.45,1.916s3.3,2.838,5.3,2.557a8.074,8.074,0,0,1-2.5-7.555,3.119,3.119,0,0,1,.7-1.532c1.05-1.129,2.96-.647,4.217.244,4,2.813,5.12,8.251,5.145,13.145.4-1.764.061-3.6.073-5.413s.507-3.82,2.032-4.791a6.145,6.145,0,0,1,3.106-.732c1.794-.067,3.8.116,5.029,1.428,1.532,1.635,1.135,4.382-.2,6.182s-3.35,2.929-5.212,4.174a11.6,11.6,0,0,0-3.723,3.552,3.559,3.559,0,0,0-.275.61h-11.3A31.457,31.457,0,0,1,225.052,685.782Z" transform="translate(-155.938 -282.262)"/>
    <path id="Path_519" data-name="Path 519" class="cls-4" d="M116.8,670.167a8.915,8.915,0,0,1-2.948-4.455c-.378-1.77.372-3.894,2.063-4.54,1.892-.72,3.918.61,5.45,1.916s3.3,2.838,5.3,2.557a8.062,8.062,0,0,1-2.5-7.549,3.119,3.119,0,0,1,.72-1.513c1.05-1.123,2.954-.641,4.217.244,4,2.819,5.12,8.257,5.145,13.151.4-1.764.061-3.607.073-5.419s.507-3.814,2.032-4.791a6.1,6.1,0,0,1,3.1-.726c1.8-.067,3.808.11,5.035,1.428,1.532,1.636,1.135,4.382-.2,6.182s-3.35,2.929-5.212,4.174a11.5,11.5,0,0,0-3.723,3.552,3.552,3.552,0,0,0-.275.61H123.778a31.494,31.494,0,0,1-6.982-4.821Z" transform="translate(-113.75 -276.185)"/>
    <path id="Path_520" data-name="Path 520" class="cls-10" d="M650.813,488.169c-.738-3.149-2.758-4.272-7.2-3.735-4.815.61-9.636,1.178-15.532-2.972-3.125-2.2-5.553-4.138-7.159-5.492l.262-.067s-11.943-14.958-11.15-23.551-5.554-30.831-5.554-30.831-.342-14.518-3.662-22.94a37.33,37.33,0,0,1-2.014-6.847c-2-10.637-7.921-38.71-17.515-51.117l-.58-24.777v-.952l.244.25a11.273,11.273,0,0,0,2.136-3.271c2.813,1.446,8.88,4.443,12.163,5.084,4.37.848,9.764,4.534,9.764,4.534s12.419,14.476,21.933,8.056-17.79-16.728-17.79-16.728-9.3-5.023-13.194-6.359c-2.758-.946-8.489-4.687-11.6-6.792-.055-.342-.11-.684-.177-1.031-1.831-9.288-4.424-12.846-3.338-18.546a21.289,21.289,0,0,1,1.349-4.272c3.662-8.66-11.6-20.682-11.6-20.682s-10.375-8.806-6.6-13.658c0,0,5.785-.61.842-5.261-.848-.8-1.727-1.544-2.594-2.221.037-.128.073-.25.116-.378a26.723,26.723,0,0,1,4.748-8.727c.33-.409.683-.812,1.05-1.221a18.626,18.626,0,0,0,13.792-18.327,18.308,18.308,0,0,0-4.986-12.157,4.882,4.882,0,0,0,1.581-4.168c.507-6.042-11.626-12.138-16.691-11.247-2.887.507-5.492,2.063-8.385,2.588-3,.549-6.1-.049-9.154,0a22.293,22.293,0,0,0-11.528,3.369,5.847,5.847,0,0,0-2.142,2.008,7.683,7.683,0,0,0-.61,3.137c-.854,11.113-8.9,20.365-17.442,27.664a8.432,8.432,0,0,0-3.759,8.556c-.134,18.418-6.664,37.758-21.476,48.993a8.151,8.151,0,0,0,.7.415l-.683.537a11.637,11.637,0,0,0,15.257-3.051,45.16,45.16,0,0,1-6.1,14.329,3.928,3.928,0,0,0,.61-.031c-.2.33-.4.659-.61.983,6.695-.189,11.577-5.944,15.483-11.193.043.513.067,1.019.085,1.532a30.751,30.751,0,0,1-4.522,16.13l.61-.055c-.189.342-.384.677-.61,1.007.97-.079,1.947-.183,2.917-.293-3.894,7.934-10,22.4-10,22.4l-2.307,5.669a25.821,25.821,0,0,1-5.267,8.123c-2.472,2.588-5.59,5.718-6.927,6.554-2.38,1.483-8.214,20.676,2.344,17.57s14.561-17.967,14.561-17.967a14.36,14.36,0,0,1,2.74-6.713,18.188,18.188,0,0,0,2-3.594,190.82,190.82,0,0,1,9.831-18.827,65.841,65.841,0,0,0,5.285-10.863,32.029,32.029,0,0,1,3.106-6.1,34.169,34.169,0,0,0,6.713-3.741,17.856,17.856,0,0,0,4.534-4.577,86.479,86.479,0,0,0,2.734,8.867c2.563,6.933,7.244,22.983.464,33.718-6.219,9.85-6.353,14.616-5.889,16.581a1.639,1.639,0,0,1-.085.317,17.808,17.808,0,0,0,1.575,13.054,16.777,16.777,0,0,1,1.91,7.268v.726a16.29,16.29,0,0,1-.659,4.968c-1.324,4.5-4.083,14.39-5,21.561-1.221,9.557-9.221,18.8-9.221,18.8s-21.207,22.879-29.293,49.744c0,0-4.559,11.54-7.885,14,0,0-6.329,3.765-7.384,10.985-.031.2-.055.391-.073.61L477,486.906s11.748,6.4,14.164,6.341l1.379-2.893,12.3,9.24,18.351-.433a5.646,5.646,0,0,0,1.324-1.221c.879-1.147,1.4-2.942-1.385-4.809a6.67,6.67,0,0,0-4.675-.976c-2.362.342-6.878-.439-11.107-9.276l-2.331-4.339.3.1s-4.022-6.573,3.991-15.336,19.529-31.893,19.529-31.893,15.648-12.755,18.351-20.914c0,0,10.436-17.619,16.477-28.073,1.013,2.185,1.831,3.839,1.831,3.839s12.474,16.856,14.226,29.678,13.6,44.452,18.638,52.911,5.108,11.784,5.108,11.784-3.192,7.976-1.208,14.579a.812.812,0,0,0,.061.208l.092,3.808,14.036.153-.043-1.9,17.893.531s17.271-5.169,16.7-8.965C650.929,488.724,650.874,488.438,650.813,488.169Z" transform="translate(-255.316 -89.799)"/>
    <path id="Path_521" data-name="Path 521" class="cls-11" d="M613.252,249.738a28.323,28.323,0,0,0-5.834,5.438,26.388,26.388,0,0,0-4.589,8.544,23.527,23.527,0,0,0-1.221,7.775l-9.032-7.714-11.626,2.606a36.35,36.35,0,0,0,6.231-7.836,39.345,39.345,0,0,0,3.662-8.22,30.514,30.514,0,0,0,1.282-5.7S625.671,241.036,613.252,249.738Z" transform="translate(-295.828 -115.606)"/>
    <path id="Path_522" data-name="Path 522" class="cls-12" d="M527.57,684.4a5.693,5.693,0,0,1-1.282,1.221l-17.747.415-11.9-9.069L495.3,679.8c-2.331.049-13.695-6.225-13.695-6.225l1.324-3.3a5.828,5.828,0,0,1,.067-.61c1.019-7.116,7.14-10.808,7.14-10.808l2.313-.989,14.1,3.411,4.4,8.306c4.095,8.666,8.465,9.441,10.747,9.1a6.4,6.4,0,0,1,4.522.964C528.925,681.512,528.418,683.276,527.57,684.4Z" transform="translate(-257.113 -276.942)"/>
    <path id="Path_523" data-name="Path 523" class="cls-12" d="M726.9,677.708c.555,3.729-16.154,8.794-16.154,8.794l-17.307-.531.049,1.867-13.56-.146-.085-3.741a.846.846,0,0,0-.061-.2c-1.9-6.457,1.123-14.311,1.123-14.311l1.343-2.368L695.708,663a90.191,90.191,0,0,0,9.05,7.262c5.7,4.077,10.375,3.5,15.025,2.923,4.272-.531,6.243.58,6.951,3.662C726.8,677.14,726.851,677.415,726.9,677.708Z" transform="translate(-334.1 -278.941)"/>
    <path id="Path_524" data-name="Path 524" class="cls-13" d="M574.7,476.476c-.445.952-1.916,3.6-3.857,7.03-5.81,10.265-15.867,27.554-15.867,27.554-2.618,8.007-17.747,20.511-17.747,20.511s-11.156,22.7-18.919,31.289-3.851,15.043-3.851,15.043l-18.851-6.567c3.216-2.411,7.628-13.731,7.628-13.731,7.793-26.358,28.3-48.822,28.3-48.822s7.732-9.063,8.916-18.436c.885-7.036,3.552-16.746,4.833-21.152a16.051,16.051,0,0,0,.61-4.882V463.6a16.733,16.733,0,0,0-1.831-7.128,17.7,17.7,0,0,1-1.513-12.816,14.647,14.647,0,0,1,1.831-4.333l4.608-1.343,16.282-4.76s1.007,3.552,2.368,8.617C570.82,453.689,575.947,473.834,574.7,476.476Z" transform="translate(-262.569 -189.39)"/>
    <path id="Path_525" data-name="Path 525" class="cls-7" d="M574.187,475.6c-.445.952-1.91,3.6-3.857,7.03-5.81,10.265-15.9,27.554-15.9,27.554C551.8,518.2,536.686,530.7,536.686,530.7s-11.15,22.7-18.919,31.289-3.8,15.043-3.8,15.043l-18.845-6.567c3.21-2.411,7.622-13.731,7.622-13.731,7.793-26.358,28.3-48.822,28.3-48.822s7.7-9.044,8.886-18.394c.885-7.036,3.552-16.746,4.833-21.152a16.252,16.252,0,0,0,.61-4.882v-.714a16.673,16.673,0,0,0-1.831-7.134,17.7,17.7,0,0,1-1.514-12.816,14.945,14.945,0,0,1,1.831-4.339l4.608-1.337,16.282-4.76s1.013,3.546,2.368,8.617C570.312,452.812,575.432,472.957,574.187,475.6Z" transform="translate(-262.378 -189.063)"/>
    <path id="Path_526" data-name="Path 526" class="cls-13" d="M658.21,559.625l-17.2,4.608s-.079-3.265-4.943-11.565-16.349-39.344-18.046-51.922-13.768-29.122-13.768-29.122-.793-1.623-1.77-3.771c-.9-1.983-1.953-4.406-2.673-6.408-1.5-4.168-8.184-10.088-8.184-10.088-12.236-6.786-14.647-14.915-14.787-19.993a14.261,14.261,0,0,1,.653-4.919l3.137-4.107,5.932-7.787,20.06-21.5,12.206,2.514.738,31.3c9.282,12.151,15.013,39.729,16.923,50.165a36.263,36.263,0,0,0,1.947,6.713c3.216,8.269,3.552,22.513,3.552,22.513s6.1,21.823,5.383,30.251S658.21,559.625,658.21,559.625Z" transform="translate(-294.222 -173.735)"/>
    <path id="Path_527" data-name="Path 527" class="cls-11" d="M647.935,380.26s9.508,6.792,13.28,8.1,12.755,6.243,12.755,6.243,26.413,10.131,17.21,16.423-21.213-7.934-21.213-7.934-5.23-3.619-9.453-4.455-13.212-5.724-13.212-5.724Z" transform="translate(-321.686 -168.751)"/>
    <path id="Path_528" data-name="Path 528" class="cls-7" d="M620.376,249.738a28.323,28.323,0,0,0-5.834,5.438,19.041,19.041,0,0,1-3.375.391c-5.138.122-7.8-5.492-11.193-8.855,1.068-3.393-.745-2.081-.745-2.081S632.8,241.036,620.376,249.738Z" transform="translate(-302.952 -115.606)"/>
    <circle id="Ellipse_57" data-name="Ellipse 57" class="cls-11" cx="18.223" cy="18.223" r="18.223" transform="translate(289.547 102.581)"/>
    <path id="Path_529" data-name="Path 529" class="cls-7" d="M601.614,280.7l-9.038-7.732-11.626,2.606a36.35,36.35,0,0,0,6.231-7.836h.079a15.6,15.6,0,0,1,11.284,2.16,45.167,45.167,0,0,1,4.309,3.051A23.527,23.527,0,0,0,601.614,280.7Z" transform="translate(-295.828 -124.79)"/>
    <path id="Path_530" data-name="Path 530" class="cls-7" d="M617.142,395.564l.165,6.988c-1.4-1.41-8.416-8.062-6.506,1.575,2.124,10.7-10.314,18.473-10.314,18.473q-1.465,2-2.893,3.595c-9.862,10.93-18.6,7.6-22.44,5.169a13.375,13.375,0,0,1-2.075-1.581,3.3,3.3,0,0,1-.61-1.77,14.649,14.649,0,0,1,1.831-4.333l4.608-1.343,5.932-7.787,20.06-21.5Z" transform="translate(-292.523 -173.735)"/>
    <path id="Path_531" data-name="Path 531" class="cls-12" d="M616.789,353.206s-8.867-9.374-6.713,1.324S599.756,373,599.756,373c-14.488,19.968-27.407,7.183-27.407,7.183s-3.357-3.662,5.2-17.417c6.554-10.527,2.026-26.278-.458-33.083a86.886,86.886,0,0,1-2.716-8.977l-.61-2.441-1.4-5.712a61.368,61.368,0,0,1-1.526-20.4,58.5,58.5,0,0,1,2.844-13.426,23.344,23.344,0,0,1,3.131-6.6,10.6,10.6,0,0,1,6.408-3.662,15.581,15.581,0,0,1,11.284,2.154,42.688,42.688,0,0,1,6.713,5.132c4.785,4.559-.812,5.157-.812,5.157-3.625,4.76,6.39,13.426,6.39,13.426s14.763,11.8,11.223,20.3-.2,11.223,1.928,22.391S616.789,353.206,616.789,353.206Z" transform="translate(-291.785 -125.072)"/>
    <path id="Path_532" data-name="Path 532" class="cls-7" d="M570.089,188.066c-2.8.5-5.322,2.026-8.111,2.545-2.9.531-5.883-.049-8.831,0a21.287,21.287,0,0,0-11.15,3.3,5.749,5.749,0,0,0-2.075,1.971,7.579,7.579,0,0,0-.61,3.051c-.824,10.906-8.6,19.974-16.862,27.139a11.211,11.211,0,0,0-2.8,3.051,11.456,11.456,0,0,0-.83,5.309c-.128,18.07-6.432,37.05-20.749,48.065a11.117,11.117,0,0,0,15.117-3.546,44.587,44.587,0,0,1-6.194,15.532c6.383-.134,11.089-5.779,14.872-10.924a30.434,30.434,0,0,1-4.272,18.26c8.544-.738,17.271-2.582,24.179-7.635,3.167-2.313,6.036-5.682,5.969-9.6-.037-2.24-1.037-4.339-1.752-6.469-1.861-5.541-1.416-12.529,3.2-16.123a17.4,17.4,0,0,0,2.441-1.922,8.094,8.094,0,0,0,1.642-4.388A31.227,31.227,0,0,0,552.7,244.2a8.45,8.45,0,0,1-.372-2.441,5.458,5.458,0,0,1,2.88-4.064,50.7,50.7,0,0,1,4.73-2.118,16.24,16.24,0,0,0,9.081-14.341c0-1.751-.226-3.7.879-5.053,1.642-2,5.059-1.318,7.024-3,1.861-1.593,1.654-4.559,2.954-6.64,1.068-1.709,3.051-2.618,4.5-3.991C591.625,195.822,575.953,187.022,570.089,188.066Z" transform="translate(-263.528 -93.815)"/>
    <path id="Path_533" data-name="Path 533" class="cls-7" d="M596.8,294.72v.116l-11.51,15.6-7.061,9.575s-1.916,1.831-4.492,4.583l-1.4-5.712a61.37,61.37,0,0,1-1.526-20.4,37.084,37.084,0,0,1,8.22-11.284A10.686,10.686,0,0,1,596.8,294.72Z" transform="translate(-291.774 -131.435)"/>
    <path id="Path_534" data-name="Path 534" class="cls-14" d="M570.02,186.536c-2.8.5-5.322,2.026-8.111,2.539-2.9.537-5.877-.049-8.831,0a21.3,21.3,0,0,0-11.131,3.283,5.749,5.749,0,0,0-2.075,1.971,7.579,7.579,0,0,0-.61,3.051c-.818,10.906-8.6,19.974-16.862,27.139a11.309,11.309,0,0,0-2.8,3.051,11.523,11.523,0,0,0-.83,5.309c-.122,18.07-6.432,37.05-20.749,48.065a11.116,11.116,0,0,0,15.11-3.546,44.551,44.551,0,0,1-6.182,15.574c6.383-.134,11.089-5.785,14.872-10.93a30.447,30.447,0,0,1-4.284,18.253c8.544-.738,17.271-2.582,24.185-7.635,3.161-2.313,6.036-5.682,5.969-9.6-.043-2.24-1.037-4.339-1.751-6.469-1.867-5.541-1.422-12.529,3.192-16.123a17.407,17.407,0,0,0,2.441-1.928,8.057,8.057,0,0,0,1.642-4.382,31.4,31.4,0,0,0-.574-11.491,8.373,8.373,0,0,1-.366-2.441,5.45,5.45,0,0,1,2.874-4.064,51.438,51.438,0,0,1,4.73-2.118,16.233,16.233,0,0,0,9.105-14.3c0-1.751-.232-3.7.879-5.059,1.642-2,5.053-1.312,7.018-3,1.867-1.593,1.654-4.559,2.954-6.64,1.068-1.709,3.051-2.618,4.5-3.991C591.581,194.286,575.91,185.492,570.02,186.536Z" transform="translate(-263.508 -93.218)"/>
    <path id="Path_535" data-name="Path 535" class="cls-11" d="M564.422,293.251v.116L552.906,308.99l-7.055,9.581s-13.261,12.462-16.77,22.36a65.335,65.335,0,0,1-5.09,10.643,187.606,187.606,0,0,0-9.5,18.467,17.889,17.889,0,0,1-1.935,3.521,14.262,14.262,0,0,0-2.649,6.609s-3.869,14.58-14.079,17.619-4.577-15.782-2.27-17.24c1.294-.818,4.3-3.887,6.713-6.426a25.327,25.327,0,0,0,5.1-7.97l2.228-5.56s10.619-25.485,12.456-26.931a6.266,6.266,0,0,0,1.343-1.623c1.471-2.392,2.966-4.778,4.5-7.128,2.02-3.088,5.218-9.246,9.8-21.524.323-.867.647-1.69.983-2.49,3.137-7.519,6.713-12.206,10-15.147a10.686,10.686,0,0,1,17.747,7.5Z" transform="translate(-260.351 -130.875)"/>
    <path id="Path_536" data-name="Path 536" class="cls-12" d="M594.358,293.035v.122l-11.723,15.91-16.545-8.239c3.192-7.659,6.829-12.444,10.179-15.428a10.881,10.881,0,0,1,18.089,7.635Z" transform="translate(-290.037 -130.714)"/>
    <path id="Path_537" data-name="Path 537" class="cls-7" d="M588.63,279.4s12.431,5.334,18.534,5.657" transform="translate(-298.821 -129.443)"/>
    <path id="Path_538" data-name="Path 538" class="cls-7" d="M727.3,686.566c.555,3.729-16.154,8.794-16.154,8.794l-17.307-.531.049,1.867-13.56-.146-.085-3.741a.846.846,0,0,0-.061-.2l31.124.647,15.806-7.525A5.234,5.234,0,0,1,727.3,686.566Z" transform="translate(-334.5 -287.799)"/>
    <path id="Path_539" data-name="Path 539" class="cls-7" d="M527.57,691.932a5.693,5.693,0,0,1-1.282,1.221l-17.747.415-11.9-9.069-1.337,2.838c-2.331.049-13.695-6.225-13.695-6.225l1.324-3.3a5.831,5.831,0,0,1,.067-.61l13.847,6.1,11.888,8.6Z" transform="translate(-257.113 -284.475)"/>
    <path id="Path_540" data-name="Path 540" class="cls-7" d="M576.78,435.565s6.676-14.177,13.56-18.565" transform="translate(-294.203 -183.069)"/>
    <path id="Path_541" data-name="Path 541" class="cls-7" d="M620.3,343.78s3.912,7.287,15.763,4.492" transform="translate(-311.164 -154.533)"/>
    <path id="Path_542" data-name="Path 542" class="cls-2" d="M466.133,135.832H462.3a2.685,2.685,0,0,0,0-5.364H431.225a2.685,2.685,0,1,0,0,5.364h3.833a2.685,2.685,0,0,0,0,5.37h-5.364a2.685,2.685,0,1,0,0,5.364h31.069a2.685,2.685,0,1,0,0-5.364h5.37a2.685,2.685,0,1,0,0-5.37Z" transform="translate(-235.783 -71.399)"/>
    <path id="Path_543" data-name="Path 543" class="cls-2" d="M933.729,288.39H929.9a2.685,2.685,0,0,0,0-5.37H898.845a2.685,2.685,0,0,0,0,5.37h3.833a2.685,2.685,0,1,0,0,5.364h-5.364a2.685,2.685,0,1,0,0,5.364H928.37a2.685,2.685,0,1,0,0-5.364h5.37a2.685,2.685,0,0,0,0-5.364Z" transform="translate(-418.026 -130.854)"/>
    <path id="Path_544" data-name="Path 544" class="cls-2" d="M370.945,262.01h-3.833a2.685,2.685,0,0,0,0-5.37H336.055a2.685,2.685,0,1,0,0,5.37h3.833a2.685,2.685,0,0,0,0,5.364h-5.364a2.685,2.685,0,1,0,0,5.364h31.051a2.685,2.685,0,0,0,0-5.364h5.37a2.685,2.685,0,1,0,0-5.364Z" transform="translate(-198.693 -120.573)"/>
  </g>
</svg>
