<svg xmlns="http://www.w3.org/2000/svg" xmlns:xlink="http://www.w3.org/1999/xlink" viewBox="0 0 736.341 534.108">
  <defs>
    <style>
      .cls-1, .cls-2 {
        fill: #6c63ff;
      }

      .cls-1, .cls-17, .cls-18 {
        opacity: 0.1;
      }

      .cls-3 {
        fill: #444053;
      }

      .cls-4 {
        fill: rgba(29,23,64,0.9);
      }

      .cls-5 {
        fill: #fff;
      }

      .cls-6 {
        fill: #fa5959;
      }

      .cls-6, .cls-7, .cls-8 {
        opacity: 0.8;
      }

      .cls-7 {
        fill: #fed253;
      }

      .cls-8 {
        fill: #8ccf4d;
      }

      .cls-9 {
        opacity: 0.05;
      }

      .cls-10, .cls-16 {
        fill: #5c4abe;
      }

      .cls-10 {
        opacity: 0.953;
      }

      .cls-11 {
        fill: rgba(255,255,255,0.9);
      }

      .cls-12 {
        fill: #2c2360;
      }

      .cls-13 {
        fill: url(#linear-gradient);
      }

      .cls-14 {
        fill: #fbbebe;
      }

      .cls-15 {
        fill: #3f3d56;
      }
    </style>
    <linearGradient id="linear-gradient" y1="0.5" x2="1" y2="0.5" gradientUnits="objectBoundingBox">
      <stop offset="0" stop-color="gray" stop-opacity="0.251"/>
      <stop offset="0.54" stop-color="gray" stop-opacity="0.122"/>
      <stop offset="1" stop-color="gray" stop-opacity="0.102"/>
    </linearGradient>
  </defs>
  <g id="Group_167" data-name="Group 167" transform="translate(-184 -291.934)">
    <path id="Path_593" data-name="Path 593" class="cls-1" d="M433.4,120.78c-47.2.067-92.629-14.108-136.083-29.855s-86.573-33.38-132.894-40.852c-29.79-4.8-63.666-4.361-86.952,13.078C55.06,79.928,48.569,107.7,45.437,133.35c-2.355,19.3-3.441,39.554,5.38,57.208,6.125,12.255,16.606,22.356,23.994,34.036C100.6,265.224,85.09,317.127,60.029,358.7c-11.751,19.506-25.515,38.2-34.4,58.826S13.1,461.537,22.163,481.893c8.979,20.175,29.26,34.818,51.025,44.819,44.2,20.349,95.659,24.711,145.737,26.39,110.851,3.726,221.917-3.873,332.686-11.472,40.991-2.81,82.166-5.639,122.311-13.78,22.289-4.515,45.241-11.218,61.045-25.908,20.06-18.65,24.164-49.1,9.566-70.988-24.48-36.711-89.03-43.635-106.583-83.356-9.68-21.868-1.332-46.946,10.961-68.024,26.368-45.227,71.754-85.738,72.518-136.323.524-34.738-23.078-68.626-58.33-83.724C626.15,43.712,575.769,47.779,549.881,77.253,523.261,107.616,475.078,120.733,433.4,120.78Z" transform="translate(167.09 244.48)"/>
    <path id="Path_594" data-name="Path 594" class="cls-2" d="M999.073,690.951s-7.083-4.674-14.1-1.349c0,0,2.161,4.161,11.049,3.769Z" transform="translate(-178.813 29.376)"/>
    <path id="Path_595" data-name="Path 595" class="cls-2" d="M1007.549,693.25s2.156,8.207-3.251,13.792c0,0-3.251-3.383,0-11.671Z" transform="translate(-186.389 41.01)"/>
    <path id="Path_596" data-name="Path 596" class="cls-2" d="M1014.308,675.806s-.524-6.98-16.288-4.663c0,0-.075,4.5,5.458,6.634S1011.547,678.112,1014.308,675.806Z" transform="translate(-184.342 35.697)"/>
    <path id="Path_597" data-name="Path 597" class="cls-2" d="M1024.6,679.5s6.663,2.138.72,16.922c0,0-4.4-.98-5.187-6.864S1021.686,681.644,1024.6,679.5Z" transform="translate(-193.646 33.851)"/>
    <path id="Path_598" data-name="Path 598" class="cls-2" d="M1032.246,654.679s.9-11.487-15.2-10.311c0,0-1.153,10.374,12.363,13.072Z" transform="translate(-192.39 45.136)"/>
    <path id="Path_599" data-name="Path 599" class="cls-2" d="M1048.451,632.57s-2.207-13.02-18.311-9.141c0,0-.058,11.256,15.682,12.242Z" transform="translate(-197.949 52.321)"/>
    <path id="Path_600" data-name="Path 600" class="cls-2" d="M1060.964,609.507s-3.7-12.68-19.654-8.887c0,0,3.8,11.406,18.593,11.227Z" transform="translate(-202.682 59.823)"/>
    <path id="Path_601" data-name="Path 601" class="cls-2" d="M1074.25,586.521s-3.614-13.158-19.02-9.222c0,0,5.141,12.5,18,11.446Z" transform="translate(-208.579 67.659)"/>
    <path id="Path_602" data-name="Path 602" class="cls-2" d="M1083.891,562.672s-2.778-16.092-17.141-12.53c0,0,4.173,14.639,16.086,14.876Z" transform="translate(-213.459 76.976)"/>
    <path id="Path_603" data-name="Path 603" class="cls-2" d="M1091.107,537.091s-3.337-16.219-17.867-11.527c0,0,5.694,15.331,16.835,13.746Z" transform="translate(-216.209 85.222)"/>
    <path id="Path_604" data-name="Path 604" class="cls-2" d="M1096.85,510.32s-5.3-16.224-16.53-15.786c0,0,5.412,17.135,15.59,19.02Z" transform="translate(-219.208 95.685)"/>
    <path id="Path_605" data-name="Path 605" class="cls-2" d="M1101.124,484.942s-5.764-19.527-14.9-18.022c0,0,3.988,14.927,14.582,21.066Z" transform="translate(-221.708 105.083)"/>
    <path id="Path_606" data-name="Path 606" class="cls-2" d="M1103.229,457.562s-5.406-16.27-14.409-16.922c0,0,3.677,16.011,14.23,21.152Z" transform="translate(-222.809 113.791)"/>
    <path id="Path_607" data-name="Path 607" class="cls-2" d="M1106.39,431.4s-6.738-16.288-12.68-16.657c0,0,2.928,16.04,12.1,19.331Z" transform="translate(-224.881 122.262)"/>
    <path id="Path_608" data-name="Path 608" class="cls-2" d="M1109.578,405.038s-4.144-17.688-10.1-19.158c0,0,.813,14.472,9.5,20.484Z" transform="translate(-227.325 131.945)"/>
    <path id="Path_609" data-name="Path 609" class="cls-2" d="M1114.151,375.053s-4.357-14.1-9.181-16.253c0,0,.951,16.628,8.069,19.7Z" transform="translate(-229.651 140.9)"/>
    <path id="Path_610" data-name="Path 610" class="cls-2" d="M1121.464,347.724l.876-24.864s-9.02,18.743-1.527,29.227Z" transform="translate(-235.102 153.406)"/>
    <path id="Path_611" data-name="Path 611" class="cls-2" d="M1133.631,309s6.5-18.155,8.069-19.169c0,0-12.737,11.781-11.492,26.933Z" transform="translate(-240.306 164.21)"/>
    <path id="Path_612" data-name="Path 612" class="cls-2" d="M1042.281,662.143s11.423-1.493,11.083,14.651c0,0-10.323,1.683-13.694-11.671Z" transform="translate(-201.987 39.379)"/>
    <path id="Path_613" data-name="Path 613" class="cls-2" d="M1060.914,639.06s13.2-.04,12.1,16.484c0,0-11.083,1.983-14.737-13.36Z" transform="translate(-209.871 47.285)"/>
    <path id="Path_614" data-name="Path 614" class="cls-2" d="M1074.85,617.623s11.982-5.619,19.648,8.887c0,0-11.066,4.68-20.708-6.542Z" transform="translate(-216.442 54.148)"/>
    <path id="Path_615" data-name="Path 615" class="cls-2" d="M1087.944,593.13s12.271-5.977,19.475,8.19c0,0-12.783,4.4-20.489-5.948Z" transform="translate(-222.008 62.34)"/>
    <path id="Path_616" data-name="Path 616" class="cls-2" d="M1095.822,569.213s11.809-11.279,21.233.127c0,0-12.063,9.285-21.775,2.386Z" transform="translate(-225.546 71.554)"/>
    <path id="Path_617" data-name="Path 617" class="cls-2" d="M1102.766,541.867s11.879-11.527,21.227.53c0,0-13.331,9.469-21.653,1.891Z" transform="translate(-228.537 80.73)"/>
    <path id="Path_618" data-name="Path 618" class="cls-2" d="M1106.93,512.559s9.152-14.409,19.93-11.193c0,0-9.5,15.256-19.827,14.576Z" transform="translate(-230.481 93.201)"/>
    <path id="Path_619" data-name="Path 619" class="cls-2" d="M1111.436,486.8s9.222-18.144,17.948-14.985c0,0-6.651,13.948-18.184,18.046Z" transform="translate(-232.29 103.312)"/>
    <path id="Path_620" data-name="Path 620" class="cls-2" d="M1112.042,459.037s9.481-14.282,18.363-12.536c0,0-7.752,14.484-19.285,16.668Z" transform="translate(-232.256 111.539)"/>
    <path id="Path_621" data-name="Path 621" class="cls-2" d="M1114,431.228s7.349-16.028,13.319-16.138c0,0-3.527,15.913-12.824,18.858Z" transform="translate(-233.477 122.11)"/>
    <path id="Path_622" data-name="Path 622" class="cls-2" d="M1116.5,406.565s8.167-16.23,14.3-16.265c0,0-4.178,13.879-14.034,17.688Z" transform="translate(-234.536 130.28)"/>
    <path id="Path_623" data-name="Path 623" class="cls-2" d="M1118.63,377.771s6.109-13.429,11.17-14.951c0,0-3.055,16.368-10.5,18.512Z" transform="translate(-235.438 139.486)"/>
    <path id="Path_624" data-name="Path 624" class="cls-2" d="M1123.924,349.861l13.654-20.8s-3.5,20.518-15.648,24.783Z" transform="translate(-236.836 151.091)"/>
    <path id="Path_625" data-name="Path 625" class="cls-2" d="M1136.791,316.65s15.867-10.951,16.443-12.72c0,0-8.069,15.337-23.054,18.046Z" transform="translate(-240.331 159.068)"/>
    <path id="Path_627" data-name="Path 627" class="cls-3" d="M1118.94,360.09l.663.086c3.423-26.795,8.415-42.65,14.051-44.592l-.219-.634C1127.458,317.025,1122.433,332.638,1118.94,360.09Z" transform="translate(-235.569 156.972)"/>
    <path id="Path_628" data-name="Path 628" class="cls-3" d="M1110.2,455.887l1,.081c.213-2.5.375-5.06.484-7.614.957-22.178,2.438-42.546,4.386-57.814l-.576-.72c-1.954,15.3-3.856,36.281-4.812,58.494C1110.575,450.85,1110.413,453.4,1110.2,455.887Z" transform="translate(-231.867 134.216)"/>
    <path id="Path_629" data-name="Path 629" class="cls-3" d="M976.6,624.394c.173-.075,17.827-7.959,36.149-26.76a145.365,145.365,0,0,0,26.426-37.463c8.472-17.25,13.637-38.448,15.366-59.041l-1.043.49c-3.89,46.223-24.933,77.807-41.664,95.011-18.144,18.633-35.6,26.437-35.774,26.512Z" transform="translate(-175.038 106.093)"/>
    <path id="Path_630" data-name="Path 630" class="cls-4" d="M709.26,132.69H92.366a5.237,5.237,0,0,0-5.5,4.934V152H714.756V137.624A5.237,5.237,0,0,0,709.26,132.69Z" transform="translate(137.452 208.37)"/>
    <path id="Path_631" data-name="Path 631" class="cls-5" d="M86.87,166.19v391.5c0,6.65,4.961,12.04,11.081,12.04H703.675c6.12,0,11.081-5.39,11.081-12.04V166.19Z" transform="translate(137.452 194.178)"/>
    <circle id="Ellipse_63" data-name="Ellipse 63" class="cls-6" cx="2.305" cy="2.305" r="2.305" transform="translate(230.944 348.264)"/>
    <circle id="Ellipse_64" data-name="Ellipse 64" class="cls-7" cx="2.305" cy="2.305" r="2.305" transform="translate(237.284 348.264)"/>
    <circle id="Ellipse_65" data-name="Ellipse 65" class="cls-8" cx="2.305" cy="2.305" r="2.305" transform="translate(243.624 348.264)"/>
    <rect id="Rectangle_139" data-name="Rectangle 139" class="cls-9" width="453.012" height="199.198" transform="translate(276.718 446.708)"/>
    <rect id="Rectangle_140" data-name="Rectangle 140" class="cls-10" width="446.096" height="194.807" transform="translate(280.176 448.083)"/>
    <path id="Path_632" data-name="Path 632" class="cls-2" d="M362.159,349.38a44.379,44.379,0,1,0,44.379,44.379,44.379,44.379,0,0,0-44.379-44.379Zm7.959,45.445v21.014H354.43V394.825a13,13,0,1,1,15.688,0Z" transform="translate(58.715 149.089)"/>
    <path id="Path_633" data-name="Path 633" class="cls-9" d="M362.159,349.38a44.379,44.379,0,1,0,44.379,44.379,44.379,44.379,0,0,0-44.379-44.379Zm7.959,45.445v21.014H354.43V394.825a13,13,0,1,1,15.688,0Z" transform="translate(58.715 149.089)"/>
    <path id="Path_634" data-name="Path 634" class="cls-11" d="M352.839,327.38A57.059,57.059,0,1,0,409.9,384.439a57.059,57.059,0,0,0-57.059-57.059Zm10.23,58.43v27.014H342.9V385.81a16.714,16.714,0,1,1,20.172,0Z" transform="translate(67.443 158.225)"/>
    <rect id="Rectangle_141" data-name="Rectangle 141" class="cls-5" width="184.432" height="19.596" transform="translate(521.775 536.121)"/>
    <rect id="Rectangle_142" data-name="Rectangle 142" class="cls-12" width="39.768" height="19.596" transform="translate(672.139 577.493)"/>
    <path id="Path_635" data-name="Path 635" class="cls-2" d="M560.137,426.914H556.8l2.968-2.962a.294.294,0,0,0,0-.409.288.288,0,0,0-.409,0l-2.968,2.968v-3.343a.288.288,0,0,0-.288-.288.294.294,0,0,0-.288.288v3.343l-2.962-2.986a.288.288,0,0,0-.409,0,.294.294,0,0,0,0,.409l2.968,2.962h-3.343a.294.294,0,0,0-.288.288.288.288,0,0,0,.288.288h3.343l-2.968,2.968a.294.294,0,0,0,0,.409.3.3,0,0,0,.409,0l2.962-2.968v3.337a.288.288,0,1,0,.576,0v-3.337l2.968,2.968a.3.3,0,0,0,.409,0,.294.294,0,0,0,0-.409l-2.968-2.968h3.337a.28.28,0,1,0,0-.559Z" transform="translate(-29.671 118.751)"/>
    <path id="Path_636" data-name="Path 636" class="cls-2" d="M581.137,426.914H577.8l2.968-2.962a.294.294,0,0,0,0-.409.288.288,0,0,0-.409,0l-2.968,2.968v-3.343a.288.288,0,0,0-.288-.288.294.294,0,0,0-.288.288v3.343l-2.962-2.986a.288.288,0,0,0-.409,0,.294.294,0,0,0,0,.409l2.968,2.962h-3.343a.294.294,0,0,0-.288.288.288.288,0,0,0,.288.288h3.343l-2.968,2.968a.294.294,0,0,0,0,.409.3.3,0,0,0,.409,0l2.962-2.968v3.337a.288.288,0,1,0,.576,0v-3.337l2.968,2.968a.3.3,0,0,0,.409,0,.294.294,0,0,0,0-.409l-2.968-2.968h3.337a.28.28,0,1,0,0-.559Z" transform="translate(-37.396 118.751)"/>
    <path id="Path_637" data-name="Path 637" class="cls-2" d="M602.137,426.914H598.8l2.968-2.962a.294.294,0,0,0,0-.409.288.288,0,0,0-.409,0l-2.968,2.968v-3.343a.288.288,0,0,0-.288-.288.294.294,0,0,0-.288.288v3.343l-2.962-2.986a.288.288,0,0,0-.409,0,.294.294,0,0,0,0,.409l2.968,2.962h-3.343a.294.294,0,0,0-.288.288.288.288,0,0,0,.288.288h3.343l-2.968,2.968a.294.294,0,0,0,0,.409.3.3,0,0,0,.409,0l2.962-2.968v3.337a.288.288,0,1,0,.576,0v-3.337l2.968,2.968a.3.3,0,0,0,.409,0,.294.294,0,0,0,0-.409l-2.968-2.968h3.337a.28.28,0,1,0,0-.559Z" transform="translate(-45.122 118.751)"/>
    <path id="Path_638" data-name="Path 638" class="cls-2" d="M623.137,426.914H619.8l2.968-2.962a.294.294,0,0,0,0-.409.288.288,0,0,0-.409,0l-2.968,2.968v-3.343a.288.288,0,0,0-.288-.288.294.294,0,0,0-.288.288v3.343l-2.962-2.986a.288.288,0,0,0-.409,0,.294.294,0,0,0,0,.409l2.968,2.962h-3.343a.294.294,0,0,0-.288.288.288.288,0,0,0,.288.288h3.343l-2.968,2.968a.294.294,0,0,0,0,.409.3.3,0,0,0,.409,0l2.962-2.968v3.337a.288.288,0,1,0,.576,0v-3.337l2.968,2.968a.3.3,0,0,0,.409,0,.294.294,0,0,0,0-.409l-2.968-2.968h3.337a.28.28,0,1,0,0-.559Z" transform="translate(-52.847 118.751)"/>
    <path id="Path_639" data-name="Path 639" class="cls-2" d="M644.137,426.914H640.8l2.968-2.962a.294.294,0,0,0,0-.409.288.288,0,0,0-.409,0l-2.968,2.968v-3.343a.288.288,0,0,0-.288-.288.294.294,0,0,0-.288.288v3.343l-2.962-2.986a.288.288,0,0,0-.409,0,.294.294,0,0,0,0,.409l2.968,2.962h-3.343a.294.294,0,0,0-.288.288.288.288,0,0,0,.288.288h3.343l-2.968,2.968a.294.294,0,0,0,0,.409.3.3,0,0,0,.409,0l2.962-2.968v3.337a.288.288,0,1,0,.576,0v-3.337l2.968,2.968a.3.3,0,0,0,.409,0,.294.294,0,0,0,0-.409l-2.968-2.968h3.337a.28.28,0,1,0,0-.559Z" transform="translate(-60.572 118.751)"/>
    <path id="Path_640" data-name="Path 640" class="cls-2" d="M665.137,426.914H661.8l2.968-2.962a.294.294,0,0,0,0-.409.288.288,0,0,0-.409,0l-2.968,2.968v-3.343a.288.288,0,0,0-.288-.288.294.294,0,0,0-.288.288v3.343l-2.962-2.986a.288.288,0,0,0-.409,0,.294.294,0,0,0,0,.409l2.968,2.962h-3.343a.294.294,0,0,0-.288.288.288.288,0,0,0,.288.288h3.343l-2.968,2.968a.294.294,0,0,0,0,.409.3.3,0,0,0,.409,0l2.962-2.968v3.337a.288.288,0,1,0,.576,0v-3.337l2.968,2.968a.3.3,0,0,0,.409,0,.294.294,0,0,0,0-.409l-2.968-2.968h3.337a.28.28,0,1,0,0-.559Z" transform="translate(-68.297 118.751)"/>
    <path id="Path_641" data-name="Path 641" class="cls-2" d="M686.137,426.914H682.8l2.968-2.962a.294.294,0,0,0,0-.409.288.288,0,0,0-.409,0l-2.968,2.968v-3.343a.288.288,0,0,0-.288-.288.294.294,0,0,0-.288.288v3.343l-2.962-2.986a.288.288,0,0,0-.409,0,.294.294,0,0,0,0,.409l2.968,2.962h-3.343a.294.294,0,0,0-.288.288.288.288,0,0,0,.288.288h3.343l-2.968,2.968a.294.294,0,0,0,0,.409.3.3,0,0,0,.409,0l2.962-2.968v3.337a.288.288,0,1,0,.576,0v-3.337l2.968,2.968a.3.3,0,0,0,.409,0,.294.294,0,0,0,0-.409l-2.968-2.968h3.337a.28.28,0,1,0,0-.559Z" transform="translate(-76.022 118.751)"/>
    <path id="Path_642" data-name="Path 642" class="cls-2" d="M707.137,426.914H703.8l2.968-2.962a.294.294,0,0,0,0-.409.288.288,0,0,0-.409,0l-2.968,2.968v-3.343a.288.288,0,0,0-.288-.288.294.294,0,0,0-.288.288v3.343l-2.962-2.986a.288.288,0,0,0-.409,0,.294.294,0,0,0,0,.409l2.968,2.962h-3.343a.294.294,0,0,0-.288.288.288.288,0,0,0,.288.288h3.343l-2.968,2.968a.294.294,0,0,0,0,.409.3.3,0,0,0,.409,0l2.962-2.968v3.337a.288.288,0,1,0,.576,0v-3.337l2.968,2.968a.3.3,0,0,0,.409,0,.294.294,0,0,0,0-.409l-2.968-2.968h3.337a.28.28,0,1,0,0-.559Z" transform="translate(-83.748 118.751)"/>
    <path id="Path_643" data-name="Path 643" class="cls-2" d="M728.137,426.914H724.8l2.968-2.962a.294.294,0,0,0,0-.409.288.288,0,0,0-.409,0l-2.968,2.968v-3.343a.288.288,0,0,0-.288-.288.294.294,0,0,0-.288.288v3.343l-2.962-2.986a.288.288,0,0,0-.409,0,.294.294,0,0,0,0,.409l2.968,2.962h-3.343a.294.294,0,0,0-.288.288.288.288,0,0,0,.288.288h3.343l-2.968,2.968a.294.294,0,0,0,0,.409.3.3,0,0,0,.409,0l2.962-2.968v3.337a.288.288,0,1,0,.576,0v-3.337l2.968,2.968a.3.3,0,0,0,.409,0,.294.294,0,0,0,0-.409l-2.968-2.968h3.337a.28.28,0,1,0,0-.559Z" transform="translate(-91.473 118.751)"/>
    <path id="Path_644" data-name="Path 644" class="cls-2" d="M749.137,426.914H745.8l2.968-2.962a.294.294,0,0,0,0-.409.288.288,0,0,0-.409,0l-2.968,2.968v-3.343a.288.288,0,0,0-.288-.288.294.294,0,0,0-.288.288v3.343l-2.962-2.986a.288.288,0,0,0-.409,0,.294.294,0,0,0,0,.409l2.968,2.962h-3.343a.294.294,0,0,0-.288.288.288.288,0,0,0,.288.288h3.343l-2.968,2.968a.294.294,0,0,0,0,.409.3.3,0,0,0,.409,0l2.962-2.968v3.337a.288.288,0,1,0,.576,0v-3.337l2.968,2.968a.3.3,0,0,0,.409,0,.294.294,0,0,0,0-.409l-2.968-2.968h3.337a.28.28,0,1,0,0-.559Z" transform="translate(-99.198 118.751)"/>
    <path id="Path_645" data-name="Path 645" class="cls-2" d="M770.137,426.914H766.8l2.968-2.962a.294.294,0,0,0,0-.409.288.288,0,0,0-.409,0l-2.968,2.968v-3.343a.288.288,0,0,0-.288-.288.294.294,0,0,0-.288.288v3.343l-2.962-2.986a.288.288,0,0,0-.409,0,.294.294,0,0,0,0,.409l2.968,2.962h-3.343a.294.294,0,0,0-.288.288.288.288,0,0,0,.288.288h3.343l-2.968,2.968a.294.294,0,0,0,0,.409.3.3,0,0,0,.409,0l2.962-2.968v3.337a.288.288,0,1,0,.576,0v-3.337l2.968,2.968a.3.3,0,0,0,.409,0,.294.294,0,0,0,0-.409l-2.968-2.968h3.337a.28.28,0,1,0,0-.559Z" transform="translate(-106.923 118.751)"/>
    <path id="Path_646" data-name="Path 646" class="cls-13" d="M872.949,515.869a10.312,10.312,0,0,0-.259-2.069c-.519-1.948-1.689-4.305-3.614-4.893a30.337,30.337,0,0,1-5.729-2.421c-.346-6.178,1.072-12.5-.473-18.489-.576-2.19-1.527-4.288-1.781-6.53-.317-2.79.444-5.764-.669-8.334a8.225,8.225,0,0,0-4.87-4.207,25.951,25.951,0,0,0-6.5-1.153c-2.766-.225-11.723-1.285-14.847,1.187h0a3.263,3.263,0,0,0-.576.576h0a2.3,2.3,0,0,0-.184.3l-.029.046a2.347,2.347,0,0,0-.156.375h0a2.911,2.911,0,0,0-.1.432v1.037c.04.519.115,1.037.115,1.55a3.342,3.342,0,0,1-.069.761,5.326,5.326,0,0,1-.957,1.867h0l-.1.15c-.063.092-.127.179-.184.271s-.1.161-.15.242-.092.133-.133.207a2.807,2.807,0,0,0-.15.294c0,.058-.063.109-.086.167a2.843,2.843,0,0,0-.173.484,3.216,3.216,0,0,0-.035,1.533,5.708,5.708,0,0,0,.79,1.816c.144.236.3.467.461.7l.4.548a12.448,12.448,0,0,0-.121,1.614,11.924,11.924,0,0,0,4.552,9.37,35.3,35.3,0,0,1-.073,7.315c-.052.507-.115,1.02-.184,1.527s-.121.841-.19,1.262a5.85,5.85,0,0,1-2.519-.19,11.873,11.873,0,0,0-1.153-.444c-1.677-.421-3.389,1.251-5.049.743a.677.677,0,0,1-.075.231,2.259,2.259,0,0,0-1.153-.34,4.2,4.2,0,0,1-2.5-1.435l-2.2-2.069a2.423,2.423,0,0,1-.38-.427,2.992,2.992,0,0,1-.265-.709,8.168,8.168,0,0,0-2.127-3.049,1.441,1.441,0,0,0-.628-.455.97.97,0,0,0-.288,0,2.541,2.541,0,0,0-.19-.231,5.422,5.422,0,0,0-.478-.484c-1.049-.968-1.153-1.8-2.063-2.882a27.7,27.7,0,0,1-2.156-3.256c-.075-.605-.179-1.228-.306-1.856a23.872,23.872,0,0,0-1.262-4.207l-1.153-2.553-.133.133c-.836-1.245-1.729-1.925-2.53-1.764-1.343.277-2.006,2.882-1.792,6.288l.461,3.458a1.064,1.064,0,0,0,.063.259,6.388,6.388,0,0,0-.127,1.245c0,.484.45.841.686,1.274a3.6,3.6,0,0,1,.576,1.965c-.029.248-.1.484-.115.726a2.8,2.8,0,0,0,.542,1.5l2.882,4.841.576,1.014.035.046a2.462,2.462,0,0,0,.772.888,10.558,10.558,0,0,0,.951,3.5c.1.219.208.426.323.634a20.386,20.386,0,0,0,2.72,3.533l1.372,1.539c1.354,1.51,2.709,3.026,4.179,4.421a5.6,5.6,0,0,0,1.867,1.308,2.115,2.115,0,0,0,2.1-.305q0,1.072,0,2.144a1.2,1.2,0,0,1,.911,1.9,47.537,47.537,0,0,1-4.265,9.026,19.21,19.21,0,0,1,3.573,2.726,16.068,16.068,0,0,1,1.862,2.519c.052.427.092.847.115,1.268.427,6.87-2.23,13.688-4.611,20.236a15.767,15.767,0,0,0-1.378,5.729,11.261,11.261,0,0,0-1.291.928,8.547,8.547,0,0,1,.236,3.654,6.475,6.475,0,0,1-.478,2.305,16.21,16.21,0,0,1-.83,1.481c-1.493,2.634-1.821,5.763-2.121,8.772-.179,1.816.524,4.034-.3,5.66a23.154,23.154,0,0,0-2.882,8.864,8.888,8.888,0,0,1-.265,2.069c-.179.576-.5,1.066-.657,1.631a6.979,6.979,0,0,0-.115,2.305,22.062,22.062,0,0,1-1.21,8.132c-.72,2.058-1.516,4.259-.951,6.374a8.985,8.985,0,0,0-2.438,5.354,8.438,8.438,0,0,1-.184,1.527,7.425,7.425,0,0,1-.692,1.47,12.864,12.864,0,0,0-1.568,6.916,19.239,19.239,0,0,0-3.107,8.115c-.513,2.876-.738,5.8-1.395,8.645-.876,3.758-2.461,7.556-2.772,11.406-1.867,1.193-2.674,3.5-3.032,5.689s-.415,4.478-1.331,6.5c-.473,1.049-1.153,1.988-1.6,3.06a14.053,14.053,0,0,0-.692,2.634,10.279,10.279,0,0,0-.179,4.323,6.514,6.514,0,0,1-1.689,1.285c.092-.357.167-.715.23-1.078-1.487,1.349-4.184.876-5.372,2.5a2.432,2.432,0,0,0,.576,3.337,4.613,4.613,0,0,0,1.193.513c2.882.922,5.844,1.85,8.807,1.36a2.63,2.63,0,0,0,1-.317,3.208,3.208,0,0,0,.928-1.072c.444-.7.888-1.406,1.326-2.109a27.375,27.375,0,0,0,3.233.755c.109.922.19,1.844.23,2.766.576.115,1.349.15,1.62-.386a1.4,1.4,0,0,0,.1-.64c0-.409.058-.951.092-1.5h.115a10.95,10.95,0,0,0,5.1-1.032c-.617-5.107,1.418-10.1,3.181-14.928,1.862-5.083,3.458-10.259,5.066-15.435,1.153-3.643,2.426-7.17,3.556-10.818q2.133-6.916,4.282-13.832c.622-2.029,1.251-4.034,1.965-6.052a94.281,94.281,0,0,1,5.343-11.89c.576-1.089,1.153-2.167,1.625-3.3.576-1.378.986-2.818,1.447-4.242a65.71,65.71,0,0,1,3.62-8.518c.04-.075.069-.144.109-.213.467,1.908.934,3.844,1.245,5.763a21.9,21.9,0,0,1,.1,7.124,23.489,23.489,0,0,0-.738,4.83c.086,2.253,1.291,4.3,1.885,6.472a24.629,24.629,0,0,1,.646,4.957c.161,2.594,1.568,5.5.576,7.907-3.083,7.614-1.591,16.213-3.349,24.207-.9,4.1-3.677,7.959-3.458,12.155q.231,4.467.784,8.91a8.481,8.481,0,0,0,.721,2.7,9.926,9.926,0,0,0,.79,1.291c-.254.1-.467.357-.651.9a3.556,3.556,0,0,0,1.279,4.034,5.6,5.6,0,0,0,1.666.576,8.77,8.77,0,0,0,2.409.334,5.617,5.617,0,0,0,.755-.092,27.465,27.465,0,0,0,2.726.98,5.917,5.917,0,0,0,.075.709.882.882,0,0,0,.3.651.9.9,0,0,0,.461.081h3.13v-.784a2.576,2.576,0,0,0,1.988-.646,3.077,3.077,0,0,0,.576-1.2q1.279-4.34,2.542-8.686a27.769,27.769,0,0,0,1.239-9.913c-1.112-10.622,1.331-21.279.536-31.93a76.485,76.485,0,0,1,.98-19.158c.259-1.429.576-2.882.692-4.305.254-2.686-.058-5.4.133-8.069.063-.934.19-1.862.305-2.79a133.958,133.958,0,0,0,1.239-17.377,54.737,54.737,0,0,0-.357-5.763,3.291,3.291,0,0,0,1.573-.922,3.919,3.919,0,0,0,.375-2.461c0-2.04.859-3.965,1.55-5.89a69.989,69.989,0,0,0,2.179-8.1,28.288,28.288,0,0,0,.968-6.772q0-.346-.035-.692a1.786,1.786,0,0,0,.53-.576,3.348,3.348,0,0,0,.277-1.066c.208-1.47.421-2.945.628-4.421q.231-1.585.455-3.164l1.833-12.789c.156-1.112.317-2.219.473-3.326l.478-3.308c.052-.392.109-.784.15-1.153C874.442,521.679,873.1,518.543,872.949,515.869Zm-15.291,47.883a10.535,10.535,0,0,1-1.153-5.008h-.063a2.57,2.57,0,0,0-.075-1.625c-.179-.421-.49-.778-.68-1.2a4.392,4.392,0,0,1-.311-1.614,43.994,43.994,0,0,1,.824-10.455c.075-.4.156-.813.231-1.216a3.009,3.009,0,0,0,.657-.513,4.675,4.675,0,0,0,.743-1.153c.651-1.308,1.245-2.64,1.792-3.994.179-.438.438-.945.882-1.055-.092,3.372.254,6.813-1.118,9.856a6.238,6.238,0,0,0-.576,1.556c-.127.859.231,1.729.1,2.582-.063.444-.254.853-.329,1.291a1.262,1.262,0,0,0,.334,1.222,1.008,1.008,0,0,0,.248.127c-.035.23-.063.467-.086.692-.046.473-.069.916-.1,1.193a37.179,37.179,0,0,0-.156,4.242c0,1.527.058,3.055.035,4.611a3.13,3.13,0,0,1-.219,1.308,2.271,2.271,0,0,1-.438.576A14.968,14.968,0,0,0,857.659,563.752Z" transform="translate(-109.786 136.711)"/>
    <ellipse id="Ellipse_66" data-name="Ellipse 66" class="cls-14" cx="3.251" cy="9.204" rx="3.251" ry="9.204" transform="matrix(0.98, -0.201, 0.201, 0.98, 691.674, 585.96)"/>
    <path id="Path_647" data-name="Path 647" class="cls-15" d="M878.268,838.139a3.49,3.49,0,0,0,1.28,3.994,5.7,5.7,0,0,0,1.654.576,8.724,8.724,0,0,0,2.4.329c1-.046,1.954-.438,2.951-.576a.462.462,0,0,1,.34.046.49.49,0,0,1,.127.4,15.234,15.234,0,0,0,.127,1.694.871.871,0,0,0,.3.651.9.9,0,0,0,.461.081h3.124a30.466,30.466,0,0,0-.893-8.15,1.823,1.823,0,0,0-.231-.576,1.908,1.908,0,0,0-1-.576,5.572,5.572,0,0,0-2.415-.421,7.074,7.074,0,0,0-2.709,1.326,4.127,4.127,0,0,1-3.072.743C879.674,837.407,878.8,836.537,878.268,838.139Z" transform="translate(-149.395 -19.3)"/>
    <path id="Path_648" data-name="Path 648" class="cls-14" d="M795.976,834.739a8.645,8.645,0,0,1-3.153,2.144l-.53.254a.368.368,0,0,0-.179.144.311.311,0,0,0,.058.259,3.729,3.729,0,0,0,4.23,1.539,2.243,2.243,0,0,0,.928-.484,3.042,3.042,0,0,0,.715-1.856,3.8,3.8,0,0,0-.086-2.127C797.157,832.808,796.864,833.627,795.976,834.739Z" transform="translate(-118.248 -18.43)"/>
    <path id="Path_649" data-name="Path 649" class="cls-15" d="M805.358,842.084a1.4,1.4,0,0,1-.1.64c-.271.53-1.026.5-1.614.386a38.8,38.8,0,0,0-.709-5.821c-1.118-.052-1.925,1.009-2.524,1.96l-1.545,2.449a3.193,3.193,0,0,1-.922,1.072,2.731,2.731,0,0,1-1,.317c-2.951.49-5.931-.438-8.778-1.36a4.652,4.652,0,0,1-1.193-.507,2.438,2.438,0,0,1-.576-3.331c1.193-1.614,3.873-1.153,5.36-2.49a13.419,13.419,0,0,1-.761,2.749c1.988-.3,3.326-2.121,4.928-3.337a3.032,3.032,0,0,1,1.406-.669,3.1,3.1,0,0,1,1.153.121,13.522,13.522,0,0,1,5.072,2.5,5.467,5.467,0,0,1,1.816,1.89A14,14,0,0,1,805.358,842.084Z" transform="translate(-115.112 -18.674)"/>
    <circle id="Ellipse_67" data-name="Ellipse 67" class="cls-14" cx="11.907" cy="11.907" r="11.907" transform="translate(722.942 578.722)"/>
    <path id="Path_650" data-name="Path 650" class="cls-15" d="M920.014,616.552a28.238,28.238,0,0,1-.963,6.738,69.526,69.526,0,0,1-2.179,8.069c-.686,1.919-1.545,3.844-1.539,5.879a3.909,3.909,0,0,1-.38,2.455,3.585,3.585,0,0,1-1.683.962,2.1,2.1,0,0,0-1.418,1.262,8.9,8.9,0,0,1-1.2-2.64q-1.55-4.749-2.882-9.55a1.239,1.239,0,0,1,.081-1.153,1.431,1.431,0,0,1,.5-.282,5.185,5.185,0,0,0,1.6-1.026,2.335,2.335,0,0,0,.53-.686,3.106,3.106,0,0,0,.225-1.3c0-1.527,0-3.049-.04-4.576a38.221,38.221,0,0,1,.161-4.225c0-.277.052-.72.1-1.193.086-.9.259-1.954.749-2.305.732-.49,2.922.167,3.752.282,1.429.2,2.882.426,4.277.7A11.419,11.419,0,0,1,920.014,616.552Z" transform="translate(-160.312 57.512)"/>
    <path id="Path_651" data-name="Path 651" class="cls-15" d="M836.085,511.692c-.461.922-1.568,1.366-2.421,1.948l-2.922,2.006a1.948,1.948,0,0,1-1.447.5,1.9,1.9,0,0,1-1.078-1.009.194.194,0,0,0,0-.046l-.605-1.014-2.882-4.83a2.75,2.75,0,0,1-.536-1.487c0-.248.087-.478.11-.726a3.487,3.487,0,0,0-.576-1.96c-.231-.432-.692-.79-.68-1.274a4.61,4.61,0,0,1,.323-1.862,3.769,3.769,0,0,1,1.262-1.349c.271-.2.547-.38.836-.576a1.649,1.649,0,0,1,.5-.231c.478-.1.951.3,1.435.317,2.081,1.395,2.882,4.034,4.519,5.936.922,1.084,1.014,1.913,2.058,2.882.167.15.328.311.484.478a3.349,3.349,0,0,1,.519.749C835.174,510.637,836.321,511.219,836.085,511.692Z" transform="translate(-129.159 93.699)"/>
    <path id="Path_652" data-name="Path 652" class="cls-14" d="M877.184,511.559a10.73,10.73,0,0,1,1.279,5.8,3.625,3.625,0,0,1-.5,1.527c-.83,1.274-2.571,1.5-4.086,1.579a2.409,2.409,0,0,0-1.775.576,1.614,1.614,0,0,0,.109,1.971,4.449,4.449,0,0,0,1.764,1.153,15.615,15.615,0,0,0,7.591,1.683c1.21-.115,2.386-.467,3.591-.646a37.694,37.694,0,0,1,3.954-.219c1.568-.058,3.13-.213,4.692-.369l4.138-.409a.922.922,0,0,0,.617-.225c.306-.357-.086-.882-.467-1.153-2.2-1.625-4.991-2.743-6.242-5.187a30.535,30.535,0,0,1-1.182-3.769,31.669,31.669,0,0,1-1.372-3.637,24.091,24.091,0,0,1-.19-3.354,4.5,4.5,0,0,0-1.153-3.066,4.806,4.806,0,0,0-3.135-1.009,10.149,10.149,0,0,0-7.642,2.478c-.524.524-.974,1.153-1.516,1.625s-1.279.611-.922,1.233,1.06,1.009,1.441,1.556a13.261,13.261,0,0,1,1.009,1.856Z" transform="translate(-146.057 93.314)"/>
    <path id="Path_653" data-name="Path 653" class="cls-16" d="M891.487,536.2a65.478,65.478,0,0,1-3.527,12.985,48.9,48.9,0,0,0-2.075,5.821c-.444,1.787-.357,3.7-.767,5.493-.507,2.23-1.014,4.467-1.424,6.714a44.03,44.03,0,0,0-.818,10.432,4.363,4.363,0,0,0,.311,1.608c.19.415.5.772.674,1.2a2.881,2.881,0,0,1-.161,2.305,6.676,6.676,0,0,1-1.187,1.8c-5.372,1.6-11.118,1.078-16.714,1.418-5.158.311-10.374,1.372-15.458.49-.576-2.305.386-4.72,1.21-6.968,2.392-6.53,5.037-13.331,4.611-20.172a20.906,20.906,0,0,0-.271-2.38c-.836-4.847.075-9.867,1.533-14.564a25,25,0,0,0,.657-9.095,16.6,16.6,0,0,1-.04-2.98,5.239,5.239,0,0,1,1.084-2.784c0-.04.052-.081.081-.121a.791.791,0,0,1,.432,0h0a.369.369,0,0,0,.288,0l.063-.04a.144.144,0,0,1,.167,0c.133.081.207.357.5.409a11.5,11.5,0,0,0,1.285.121,6.918,6.918,0,0,1,1.533.219h.069a4.5,4.5,0,0,0,2.236-.19,5.944,5.944,0,0,0,1.372-.53c.127-.138.922-.265,1.084-.363.524-.317.409-1.8.519-2.415a6.641,6.641,0,0,1,.432-1.787,3.043,3.043,0,0,1,2.467-1.435,13.135,13.135,0,0,1,2.957.265c2.15.305,4.351.254,6.461.749,1.061.248,2.219.622,3.193.138.265.063.305.294.305.576a3.692,3.692,0,0,1-.161.79c-.369,1.591.882,3.055,2.034,4.207a6.528,6.528,0,0,0,1.7,1.354c.576.265,1.153.375,1.729.663a3.147,3.147,0,0,1,1.153,1.055,4.4,4.4,0,0,1,.657,1.677A10.027,10.027,0,0,1,891.487,536.2Z" transform="translate(-137.011 91.757)"/>
    <path id="Path_654" data-name="Path 654" class="cls-17" d="M895.474,540.57a65.478,65.478,0,0,1-3.527,12.985,48.9,48.9,0,0,0-2.075,5.821c-.444,1.787-.357,3.7-.767,5.493-.507,2.23-1.014,4.467-1.424,6.714-.121.069-.248.133-.375.19a8.846,8.846,0,0,1-2.259.726,13.832,13.832,0,0,1-4.219-.138l-8.225-1.1c-3.285-.444-6.784-.98-9.222-3.2a19.678,19.678,0,0,1-3.216-4.392,20.893,20.893,0,0,0-.271-2.38c-.836-4.847.075-9.867,1.533-14.564a25,25,0,0,0,.657-9.095,16.607,16.607,0,0,1-.04-2.98,5.238,5.238,0,0,1,1.084-2.784,4.1,4.1,0,0,1,.513-.115h0a2.562,2.562,0,0,1,.352-.046h.167a2.515,2.515,0,0,1,.576.069,10.424,10.424,0,0,1,1.153.444h.069a4.415,4.415,0,0,0,1.533.219c.761,0,1.545-.121,2.305-.173a4.254,4.254,0,0,1,2.732.49,16.39,16.39,0,0,1,1.522,1.389,6.536,6.536,0,0,0,1.919,1.043,20.4,20.4,0,0,0,15.342-.323,3,3,0,0,1,1.539-.392,2.882,2.882,0,0,1,1.107.473c.346.2.686.4,1.037.576a4.4,4.4,0,0,1,.657,1.677A10.028,10.028,0,0,1,895.474,540.57Z" transform="translate(-140.867 85.586)"/>
    <path id="Path_655" data-name="Path 655" class="cls-12" d="M896.835,535.942a30.763,30.763,0,0,1-6.57-2.882,2.945,2.945,0,0,0-1.107-.473,3.094,3.094,0,0,0-1.545.392,20.386,20.386,0,0,1-15.337.323,6.669,6.669,0,0,1-1.919-1.043,17.224,17.224,0,0,0-1.522-1.389c-1.9-1.228-4.519.213-6.64-.576a11.737,11.737,0,0,0-1.153-.444c-1.677-.421-3.383,1.251-5.032.744a28.038,28.038,0,0,0-1.354,5.141,56.058,56.058,0,0,0-.375,6.063c0,1.216-.058,2.432,0,3.648a1.2,1.2,0,0,1,.911,1.89,47.246,47.246,0,0,1-4.253,9,19.551,19.551,0,0,1,3.562,2.72c2.017,2.133,3.008,5.124,5.187,7.095,2.455,2.219,5.954,2.761,9.222,3.2l8.224,1.1a14.056,14.056,0,0,0,4.225.144,8.893,8.893,0,0,0,2.254-.732,4.036,4.036,0,0,0,1.256-.83,4.614,4.614,0,0,0,.743-1.153c.651-1.3,1.245-2.634,1.792-3.983.19-.478.478-1.037,1-1.078,3.055-2.755,5.936-5.579,8.991-8.334a19.923,19.923,0,0,0,3.28-3.458c1.516-2.242.138-5.418,0-8.127a10.265,10.265,0,0,0-.259-2.058C899.918,538.875,898.754,536.524,896.835,535.942Z" transform="translate(-136.595 86.217)"/>
    <path id="Path_656" data-name="Path 656" class="cls-17" d="M839.884,518.692c-.461.922-1.568,1.366-2.421,1.948l-2.922,2.006a1.948,1.948,0,0,1-1.447.5,1.9,1.9,0,0,1-1.078-1.009v-.415a3.867,3.867,0,0,1,.184-1.378,4.293,4.293,0,0,1,1.291-1.66,10.57,10.57,0,0,1,3.787-2.305,1.3,1.3,0,0,1,.692-.069.914.914,0,0,1,.254.109,3.346,3.346,0,0,1,.519.749C838.973,517.637,840.12,518.219,839.884,518.692Z" transform="translate(-132.81 87.309)"/>
    <path id="Path_657" data-name="Path 657" class="cls-2" d="M847.291,525.041a4.2,4.2,0,0,1-2.5-1.429l-2.184-2.029a2.041,2.041,0,0,1-.38-.427,2.991,2.991,0,0,1-.265-.709,8.132,8.132,0,0,0-2.121-3.043,1.383,1.383,0,0,0-.628-.45,1.263,1.263,0,0,0-.7.069,10.541,10.541,0,0,0-3.787,2.305,4.306,4.306,0,0,0-1.291,1.66,3.834,3.834,0,0,0-.184,1.378,10.581,10.581,0,0,0,1,4.4c.1.213.207.427.323.634a19.958,19.958,0,0,0,2.709,3.522l1.372,1.533c1.349,1.51,2.7,3.02,4.161,4.409a5.5,5.5,0,0,0,1.867,1.3,2.086,2.086,0,0,0,2.144-.346,3.1,3.1,0,0,0,.611-1.1,21.556,21.556,0,0,0,1.781-7.187,27.135,27.135,0,0,0-.127-2.98C849.014,525.513,848.271,525.1,847.291,525.041Z" transform="translate(-132.707 88.455)"/>
    <path id="Path_658" data-name="Path 658" class="cls-12" d="M867.355,651.478a133.172,133.172,0,0,1-1.233,17.331c-.115.928-.242,1.856-.305,2.784-.19,2.692.121,5.395-.133,8.069-.133,1.447-.432,2.882-.686,4.294a76.354,76.354,0,0,0-.98,19.106c.8,10.622-1.642,21.25-.536,31.843a25.739,25.739,0,0,1-.34,6.161,26.108,26.108,0,0,1-.893,3.723q-1.262,4.328-2.536,8.645a3,3,0,0,1-.576,1.2,2.731,2.731,0,0,1-2.161.64c-3.326-.1-6.455-1.539-9.475-2.939a3.3,3.3,0,0,1-.951-.576c-.628-.651-.576-1.677-.853-2.536a24.124,24.124,0,0,0-1.452-2.547,8.314,8.314,0,0,1-.628-2.622q-.577-4.426-.784-8.887c-.219-4.184,2.547-8.034,3.458-12.1,1.729-8,.265-16.576,3.337-24.166.968-2.4-.438-5.3-.576-7.884a25,25,0,0,0-.646-4.945c-.576-2.167-1.792-4.207-1.879-6.455a23.712,23.712,0,0,1,.732-4.812,21.633,21.633,0,0,0-.1-7.106c-.306-1.937-.772-3.873-1.239-5.764l-.1.213a65.125,65.125,0,0,0-3.614,8.5c-.461,1.412-.865,2.853-1.441,4.225-.473,1.153-1.055,2.207-1.625,3.291A94.519,94.519,0,0,0,833.806,690c-.715,1.994-1.343,4.034-1.965,6.034l-4.271,13.832c-1.153,3.637-2.415,7.153-3.545,10.784-1.6,5.187-3.193,10.328-5.049,15.4-1.729,4.813-3.787,9.8-3.17,14.881a10.95,10.95,0,0,1-5.089,1.032,29.8,29.8,0,0,1-8.645-2.1,6.721,6.721,0,0,1-2.986-1.775c-1.279-1.562-.962-3.85-.576-5.838a14.106,14.106,0,0,1,.692-2.628c.438-1.06,1.153-2,1.6-3.049.9-2.011.962-4.288,1.32-6.472s1.153-4.49,3.02-5.677c.317-3.839,1.9-7.625,2.766-11.377.657-2.841.876-5.764,1.395-8.645a18.988,18.988,0,0,1,3.095-8.1,12.836,12.836,0,0,1,1.568-6.916,7.563,7.563,0,0,0,.686-1.47,8.451,8.451,0,0,0,.184-1.522,9,9,0,0,1,2.432-5.343c-.576-2.1.225-4.3.945-6.34a22.027,22.027,0,0,0,1.21-8.109,7.109,7.109,0,0,1,.11-2.305c.161-.576.478-1.066.663-1.62a9.22,9.22,0,0,0,.259-2.069,23.931,23.931,0,0,1,2.882-8.841c.83-1.625.127-3.833.3-5.642.3-3.009.628-6.121,2.121-8.743.277-.5.576-.968.824-1.481a6.412,6.412,0,0,0,.478-2.305,8.489,8.489,0,0,0-.236-3.642c3.083-2.565,7.291-3.285,11.3-3.458s8.069.19,11.994-.663c1.153-.259,2.305-.617,3.521-.79,2.761-.4,5.562.225,8.288.847a9.873,9.873,0,0,0,1.153,5A53.644,53.644,0,0,1,867.355,651.478Z" transform="translate(-115.934 69.959)"/>
    <path id="Path_659" data-name="Path 659" class="cls-17" d="M888.805,673.29l-6.622,14.893c-.305-1.937-.772-3.873-1.239-5.763l-.1.213v-.311l3.608-7.936Z" transform="translate(-150.771 35.665)"/>
    <path id="Path_660" data-name="Path 660" class="cls-17" d="M922.379,616.552a2.49,2.49,0,0,1-1.314.49,6.392,6.392,0,0,1-2.156-.294l-5.187-1.3a2.549,2.549,0,0,1-.473-.167c.086-.9.259-1.954.749-2.305.732-.49,2.922.167,3.752.282,1.429.2,2.882.427,4.277.7a11.424,11.424,0,0,1,.352,2.594Z" transform="translate(-162.608 54.67)"/>
    <path id="Path_661" data-name="Path 661" class="cls-16" d="M926.37,558.458c.109.478.265.951.357,1.435a10.948,10.948,0,0,1-.121,3.568l-.473,3.3-.473,3.314-1.827,12.755-.45,3.158-.634,4.409a3.17,3.17,0,0,1-.277,1.061,2.208,2.208,0,0,1-1.8,1.066,6.538,6.538,0,0,1-2.156-.294l-5.187-1.3a1.627,1.627,0,0,1-.634-.259,1.251,1.251,0,0,1-.334-1.216c.075-.438.265-.847.329-1.285.127-.853-.231-1.729-.1-2.576a6.4,6.4,0,0,1,.576-1.55c1.729-3.821.726-8.282,1.314-12.432a18.846,18.846,0,0,1,4-8.9,25.544,25.544,0,0,1,4.415-4.334,8.884,8.884,0,0,1,2.484-1.729C926.416,556.423,926.2,557.731,926.37,558.458Z" transform="translate(-161.856 76.843)"/>
    <path id="Path_662" data-name="Path 662" class="cls-4" d="M864.637,471.519c-.38,1.21.213,2.542-.058,3.775-.294,1.36-1.573,2.305-1.937,3.671-.576,2.081,1.187,3.977,2.478,5.706,4.784,6.421,4.155,15.308,2.519,23.141a119.487,119.487,0,0,1-5.446,18.443,14.132,14.132,0,0,1-2.934,5.147c2.651-.761,5.47-1.527,8.127-.79,3.366.934,6.271,4.2,9.683,3.458,2.052-.455,3.493-2.277,5.337-3.285,3.458-1.862,7.625-.692,11.481-.092a4.507,4.507,0,0,0,2.507-.127,4.166,4.166,0,0,0,1.521-1.4,14.212,14.212,0,0,0,2.963-7.665,9.832,9.832,0,0,0-2.83-7.568,16.186,16.186,0,0,1-2.427-2.305,7.159,7.159,0,0,1-.951-3.493c-.455-6.34,1.089-12.812-.5-18.945-.576-2.184-1.516-4.277-1.769-6.513-.317-2.784.438-5.764-.669-8.311a8.151,8.151,0,0,0-4.859-4.2,26.617,26.617,0,0,0-6.478-1.153C877.236,468.753,865.957,467.4,864.637,471.519Z" transform="translate(-140.324 108.786)"/>
    <g id="Group_166" data-name="Group 166" class="cls-18" transform="translate(718.889 579.096)">
      <path id="Path_663" data-name="Path 663" d="M869.818,514.11a119.248,119.248,0,0,1-5.418,18.368c.4-.79.732-1.62,1.049-2.444a118.845,118.845,0,0,0,5.447-18.443c1.643-7.838,2.271-16.714-2.513-23.14-1.153-1.533-2.634-3.193-2.582-4.991a6.141,6.141,0,0,0-.98,1.81c-.576,2.081,1.187,3.977,2.478,5.706C872.083,497.39,871.454,506.278,869.818,514.11Z" transform="translate(-861.438 -476.498)"/>
      <path id="Path_664" data-name="Path 664" d="M868.5,475.893a5.609,5.609,0,0,0,1.014-1.942,9.875,9.875,0,0,0-.069-2.57,2.772,2.772,0,0,0-.957,1.32C868.147,473.72,868.539,474.827,868.5,475.893Z" transform="translate(-863.11 -471.38)"/>
      <path id="Path_665" data-name="Path 665" d="M899,567.8a4.149,4.149,0,0,1-1.521,1.395,4.4,4.4,0,0,1-2.507.127c-3.856-.576-8.069-1.764-11.481.1-1.85,1-3.285,2.824-5.343,3.285-3.406.761-6.311-2.507-9.677-3.458-2.386-.663-4.9-.115-7.3.576a10.07,10.07,0,0,1-1.908,2.755c2.651-.761,5.47-1.527,8.127-.79,3.366.934,6.271,4.2,9.683,3.458,2.052-.455,3.493-2.277,5.337-3.285,3.458-1.862,7.625-.692,11.481-.092a4.508,4.508,0,0,0,2.507-.127,4.167,4.167,0,0,0,1.521-1.4,15.49,15.49,0,0,0,2.386-4.565A16.759,16.759,0,0,1,899,567.8Z" transform="translate(-859.26 -511.372)"/>
    </g>
  </g>
</svg>
