<svg xmlns="http://www.w3.org/2000/svg" width="256.147" height="155.6" viewBox="0 0 256.147 155.6">
  <g id="Group_1" data-name="Group 1" transform="translate(-276.229 -217)">
    <path id="Path_2" data-name="Path 2" d="M260.546,7.217V70.028a6.74,6.74,0,1,1-13.446,0V7.217a6.74,6.74,0,1,1,13.447,0Z" transform="translate(150.457 217)" fill="#6952e5"/>
    <path id="Path_3" data-name="Path 3" d="M339.123,178h58.514a7.235,7.235,0,0,1,0,14.434H339.123a7.235,7.235,0,0,1,0-14.434Z" transform="translate(-56.171 180.166)" fill="#6952e5"/>
    <path id="Path_4" data-name="Path 4" d="M154.46,185.217a7.008,7.008,0,0,1-6.723,7.217H89.223a7.235,7.235,0,0,1,0-14.434h58.514A7.009,7.009,0,0,1,154.46,185.217Z" transform="translate(377.917 180.166)" fill="#6952e5"/>
    <path id="Path_5" data-name="Path 5" d="M118.2,57.693a7.483,7.483,0,0,1-.725-8.939,6.349,6.349,0,0,1,8.018-2.535,7.212,7.212,0,0,1,3.9,7.933,6.736,6.736,0,0,1-6.47,5.682A6.5,6.5,0,0,1,118.2,57.693Z" transform="translate(377.887 207.605)" fill="#6952e5"/>
    <path id="Path_6" data-name="Path 6" d="M164.991,84.857a7.611,7.611,0,0,1,0,10.151,6.45,6.45,0,0,1-4.729,2.141,6.331,6.331,0,0,1-4.729-2.141,7.556,7.556,0,0,1,0-10.151,6.368,6.368,0,0,1,9.457,0Z" transform="translate(313.052 199.871)" fill="#6952e5"/>
    <path id="Path_7" data-name="Path 7" d="M136.913,76.408a7.556,7.556,0,0,1,0-10.151,6.368,6.368,0,0,1,9.457,0,7.556,7.556,0,0,1,0,10.151,6.36,6.36,0,0,1-4.729,2.062,6.084,6.084,0,0,1-4.728-2.062Z" transform="translate(345.393 203.72)" fill="#6952e5"/>
    <path id="Path_8" data-name="Path 8" d="M183.753,103.541a7.416,7.416,0,0,1,1.921,5.076,6.705,6.705,0,1,1-6.723-7.217,6.414,6.414,0,0,1,4.8,2.141Z" transform="translate(280.501 196.017)" fill="#6952e5"/>
    <path id="Path_9" data-name="Path 9" d="M380.816,53.361a7.556,7.556,0,0,1,0,10.151,6.368,6.368,0,0,1-9.457,0,7.416,7.416,0,0,1-1.921-5.076,7.783,7.783,0,0,1,1.921-5.076,6.418,6.418,0,0,1,4.729-2.062,6.247,6.247,0,0,1,4.728,2.063Z" transform="translate(-61.958 206.386)" fill="#6952e5"/>
    <path id="Path_10" data-name="Path 10" d="M338.842,102.87a6.667,6.667,0,0,1-4.729-2.062,7.556,7.556,0,0,1,0-10.151,6.368,6.368,0,0,1,9.457,0,7.556,7.556,0,0,1,0,10.151,6.361,6.361,0,0,1-4.728,2.062Z" transform="translate(2.746 198.671)" fill="#6952e5"/>
    <path id="Path_11" data-name="Path 11" d="M362.29,71.957a7.611,7.611,0,0,1,0,10.151,6.291,6.291,0,0,1-9.456,0,7.556,7.556,0,0,1,0-10.151,6.368,6.368,0,0,1,9.457,0Z" transform="translate(-29.767 202.541)" fill="#6952e5"/>
    <path id="Path_12" data-name="Path 12" d="M326.946,114.438a7.159,7.159,0,0,1-4.962,7.019,6.541,6.541,0,0,1-7.587-3.363,7.617,7.617,0,0,1,1.1-8.732,6.418,6.418,0,0,1,4.729-2.062,6.731,6.731,0,0,1,4.729,2.062A7.337,7.337,0,0,1,326.946,114.438Z" transform="translate(35.084 194.796)" fill="#6952e5"/>
  </g>
</svg>
