<svg xmlns="http://www.w3.org/2000/svg" width="311.375" height="382.256" viewBox="0 0 311.375 382.256">
  <g id="like-state" transform="translate(-754.852 -223.006)">
    <g id="Group_1" data-name="Group 1" transform="translate(774.726 223.006)">
      <path id="Path_2" data-name="Path 2" d="M247.1,7.217V70.028a6.549,6.549,0,0,0,3.654,6.234,8.56,8.56,0,0,0,7.971,0,6.549,6.549,0,0,0,3.654-6.234V7.217A6.55,6.55,0,0,0,258.725.989a8.56,8.56,0,0,0-7.966,0A6.55,6.55,0,0,0,247.1,7.217Z" transform="translate(-109.178 -0.006)" fill="#6952e5"/>
      <path id="Path_3" data-name="Path 3" d="M406.531,178H340.04c-4.3.268-7.642,3.419-7.642,7.217s3.337,6.949,7.642,7.217h66.491c4.3-.268,7.642-3.419,7.642-7.217s-3.337-6.949-7.642-7.217Z" transform="translate(-123.098 -36.84)" fill="#6952e5"/>
      <path id="Path_4" data-name="Path 4" d="M82.5,185.217c-.134,3.842,3.275,7.062,7.64,7.217h66.491c4.3-.268,7.642-3.419,7.642-7.217s-3.337-6.949-7.642-7.217H90.141c-4.365.155-7.773,3.375-7.64,7.217Z" transform="translate(-82.498 -36.84)" fill="#6952e5"/>
      <path id="Path_5" data-name="Path 5" d="M129.213,57.693a6.792,6.792,0,0,0,.824-8.939,7.752,7.752,0,0,0-9.111-2.535c-3.361,1.444-5.185,4.708-4.432,7.933.576,3.205,3.666,5.594,7.352,5.682a7.858,7.858,0,0,0,5.367-2.141Z" transform="translate(-87.972 -9.401)" fill="#6952e5"/>
      <path id="Path_6" data-name="Path 6" d="M155.778,84.857a6.946,6.946,0,0,0,0,10.151,7.8,7.8,0,0,0,5.374,2.141,7.651,7.651,0,0,0,5.374-2.141,6.9,6.9,0,0,0,0-10.151,7.916,7.916,0,0,0-10.746,0Z" transform="translate(-94.033 -17.135)" fill="#6952e5"/>
      <path id="Path_7" data-name="Path 7" d="M147.926,76.408a6.9,6.9,0,0,0,0-10.151,7.916,7.916,0,0,0-10.746,0,6.9,6.9,0,0,0,0,10.151,7.715,7.715,0,0,0,5.374,2.062A7.374,7.374,0,0,0,147.926,76.408Z" transform="translate(-91.025 -13.286)" fill="#6952e5"/>
      <path id="Path_8" data-name="Path 8" d="M174.467,103.541a6.933,6.933,0,0,0-2.183,5.076c.315,3.621,3.849,6.363,7.971,6.185s7.333-3.212,7.243-6.843-3.448-6.539-7.575-6.559a7.763,7.763,0,0,0-5.454,2.141Z" transform="translate(-97.053 -20.989)" fill="#6952e5"/>
      <path id="Path_9" data-name="Path 9" d="M371.663,53.361a6.9,6.9,0,0,0,0,10.151,7.916,7.916,0,0,0,10.746,0,6.933,6.933,0,0,0,2.183-5.076,7.271,7.271,0,0,0-2.183-5.076,7.786,7.786,0,0,0-5.374-2.062,7.575,7.575,0,0,0-5.373,2.063Z" transform="translate(-129.031 -10.62)" fill="#6952e5"/>
      <path id="Path_10" data-name="Path 10" d="M339.753,102.87a8.093,8.093,0,0,0,5.374-2.062,6.9,6.9,0,0,0,0-10.151,7.916,7.916,0,0,0-10.746,0,6.9,6.9,0,0,0,0,10.151A7.716,7.716,0,0,0,339.753,102.87Z" transform="translate(-122.95 -18.335)" fill="#6952e5"/>
      <path id="Path_11" data-name="Path 11" d="M353.079,71.957a6.946,6.946,0,0,0,0,10.151,7.811,7.811,0,0,0,10.745,0,6.9,6.9,0,0,0,0-10.151,7.916,7.916,0,0,0-10.746,0Z" transform="translate(-125.976 -14.465)" fill="#6952e5"/>
      <path id="Path_12" data-name="Path 12" d="M313.5,114.438a7.283,7.283,0,0,0,5.638,7.019,7.826,7.826,0,0,0,8.621-3.363,6.922,6.922,0,0,0-1.25-8.732,7.786,7.786,0,0,0-5.374-2.062,8.171,8.171,0,0,0-5.374,2.062,6.882,6.882,0,0,0-2.262,5.076Z" transform="translate(-119.928 -22.21)" fill="#6952e5"/>
    </g>
    <g id="like_no-like-state_" data-name="like(no-like-state)" transform="translate(754.852 339.796)">
      <path id="XMLID_1929_" d="M77.827,348.944H11.773a2.524,2.524,0,0,1-2.673-2.21V206a2.524,2.524,0,0,1,2.673-2.21H77.827A2.524,2.524,0,0,1,80.5,206V346.734A2.478,2.478,0,0,1,77.827,348.944Z" transform="translate(-2.859 -92.999)" fill="#6952e5"/>
      <path id="Path_1" data-name="Path 1" d="M182.709,15.123c-18.1-11.723-43.145-4.985-44.168-4.7a5.213,5.213,0,0,0-4.044,4.872V63.9c0,16.487-8.863,30.424-26.384,41.472a107.782,107.782,0,0,1-27.542,12.12.724.724,0,0,0-.322.114l-3.274.963a11.236,11.236,0,0,0-9.309-4.646H10.849c-6,.021-10.845,4.3-10.848,9.58V259.764c.007,5.274,4.855,9.553,10.849,9.574H67.732c5.027,0,9.389-3.056,10.528-7.365a44.525,44.525,0,0,0,30.567,11.732H243.5c28.636,0,46.93-13.2,50.138-36.265l17.205-96.428c2.5-14-3.984-28.158-16.563-36.09a45.175,45.175,0,0,0-24.33-6.914h-70.04V52.913C199.913,35.236,194.136,22.545,182.709,15.123ZM66.9,259.023H11.625V124.187H66.9ZM269.953,108.265a32.322,32.322,0,0,1,17.529,4.986c9.187,6.1,13.744,16.193,11.812,26.175l-17.142,96.485v.17c-3.146,22.549-22.727,27.308-38.647,27.308H108.824C92.1,263.363,78.566,251.416,78.587,236.7V128.948l5.328-1.586A115.539,115.539,0,0,0,114.6,113.934c20.6-12.918,31.521-30.2,31.521-49.971V19.429c6.676-1.133,20.094-2.266,29.787,4.018,8.217,5.324,12.386,15.24,12.386,29.461v50.254c.007,2.839,2.616,5.141,5.842,5.155h75.825Z" transform="translate(-0.001 -8.239)"/>
    </g>
  </g>
</svg>
