<svg xmlns="http://www.w3.org/2000/svg" width="294.836" height="382.257" viewBox="0 0 294.836 382.257">
  <g id="like_no-like-state_" data-name="like(no-like-state)" transform="translate(-754.851 -223.006)">
    <g id="Group_1" data-name="Group 1" transform="translate(772.649 223.006)">
      <path id="Path_2" data-name="Path 2" d="M247.1,7.217V70.028a6.707,6.707,0,0,0,3.272,6.234,6.962,6.962,0,0,0,7.138,0,6.708,6.708,0,0,0,3.272-6.234V7.217A6.708,6.708,0,0,0,257.509.989a6.962,6.962,0,0,0-7.134,0A6.708,6.708,0,0,0,247.1,7.217Z" transform="translate(-115.584 -0.006)" fill="#fff"/>
      <path id="Path_3" data-name="Path 3" d="M398.786,178H339.241a7.227,7.227,0,0,0,0,14.434h59.544a7.227,7.227,0,0,0,0-14.434Z" transform="translate(-128.965 -36.84)" fill="#fff"/>
      <path id="Path_4" data-name="Path 4" d="M82.5,185.217a7.06,7.06,0,0,0,6.841,7.217h59.544a7.227,7.227,0,0,0,0-14.434H89.343a7.061,7.061,0,0,0-6.841,7.217Z" transform="translate(-82.498 -36.84)" fill="#fff"/>
      <path id="Path_5" data-name="Path 5" d="M127.866,57.693a7.382,7.382,0,0,0,.738-8.939,6.521,6.521,0,0,0-8.159-2.535,7.177,7.177,0,0,0-3.969,7.933,6.816,6.816,0,0,0,6.584,5.682,6.666,6.666,0,0,0,4.806-2.141Z" transform="translate(-90.934 -9.401)" fill="#fff"/>
      <path id="Path_6" data-name="Path 6" d="M155.548,84.857a7.513,7.513,0,0,0,0,10.151,6.614,6.614,0,0,0,4.812,2.141,6.492,6.492,0,0,0,4.812-2.141,7.459,7.459,0,0,0,0-10.151,6.557,6.557,0,0,0-9.624,0Z" transform="translate(-96.801 -17.135)" fill="#fff"/>
      <path id="Path_7" data-name="Path 7" d="M146.571,76.408a7.459,7.459,0,0,0,0-10.151,6.557,6.557,0,0,0-9.624,0,7.459,7.459,0,0,0,0,10.151,6.525,6.525,0,0,0,4.812,2.062,6.241,6.241,0,0,0,4.812-2.062Z" transform="translate(-93.067 -13.286)" fill="#fff"/>
      <path id="Path_8" data-name="Path 8" d="M174.239,103.541a7.343,7.343,0,0,0-1.955,5.076,6.821,6.821,0,1,0,6.841-7.217,6.578,6.578,0,0,0-4.885,2.141Z" transform="translate(-100.55 -20.989)" fill="#fff"/>
      <path id="Path_9" data-name="Path 9" d="M371.43,53.361a7.459,7.459,0,0,0,0,10.151,6.557,6.557,0,0,0,9.624,0,7.343,7.343,0,0,0,1.955-5.076,7.706,7.706,0,0,0-1.955-5.076,6.585,6.585,0,0,0-4.812-2.062,6.409,6.409,0,0,0-4.811,2.063Z" transform="translate(-138.148 -10.62)" fill="#fff"/>
      <path id="Path_10" data-name="Path 10" d="M338.959,102.87a6.841,6.841,0,0,0,4.812-2.062,7.459,7.459,0,0,0,0-10.151,6.557,6.557,0,0,0-9.624,0,7.459,7.459,0,0,0,0,10.151,6.526,6.526,0,0,0,4.812,2.062Z" transform="translate(-132.673 -18.335)" fill="#fff"/>
      <path id="Path_11" data-name="Path 11" d="M352.849,71.957a7.513,7.513,0,0,0,0,10.151,6.476,6.476,0,0,0,9.623,0,7.459,7.459,0,0,0,0-10.151,6.557,6.557,0,0,0-9.624,0Z" transform="translate(-136.43 -14.465)" fill="#fff"/>
      <path id="Path_12" data-name="Path 12" d="M313.5,114.438a7.168,7.168,0,0,0,5.049,7.019,6.7,6.7,0,0,0,7.721-3.363,7.515,7.515,0,0,0-1.119-8.732,6.585,6.585,0,0,0-4.812-2.062,6.907,6.907,0,0,0-4.812,2.062,7.268,7.268,0,0,0-2.026,5.076Z" transform="translate(-128.921 -22.21)" fill="#fff"/>
    </g>
    <g id="like_no-like-state_2" data-name="like(no-like-state)" transform="translate(754.852 339.796)">
      <path id="XMLID_1929_" d="M70.647,348.944H11.493a2.35,2.35,0,0,1-2.393-2.21V206a2.35,2.35,0,0,1,2.393-2.21H70.647A2.35,2.35,0,0,1,73.041,206V346.734a2.307,2.307,0,0,1-2.394,2.21Z" transform="translate(-3.511 -92.999)" fill="#4d4f59"/>
      <path id="Path_1" data-name="Path 1" d="M173.009,15.123c-17.137-11.723-40.855-4.985-41.823-4.7a5.153,5.153,0,0,0-3.83,4.872V63.9c0,16.487-8.393,30.424-24.984,41.472a99.405,99.405,0,0,1-26.08,12.12.662.662,0,0,0-.3.114l-3.1.963a10.467,10.467,0,0,0-8.815-4.646h-53.8C4.6,113.944,0,118.226,0,123.5V259.764c.007,5.274,4.6,9.553,10.273,9.574H64.136a10.118,10.118,0,0,0,9.969-7.365,40.939,40.939,0,0,0,28.944,11.732H230.575c27.115,0,44.439-13.2,47.476-36.265l16.292-96.428a36.183,36.183,0,0,0-15.684-36.09,41.112,41.112,0,0,0-23.038-6.914H189.3v-45.1C189.3,35.236,183.829,22.545,173.009,15.123ZM63.347,259.023H11.008V124.187H63.347ZM255.621,108.265a29.417,29.417,0,0,1,16.6,4.986c8.7,6.1,13.014,16.193,11.185,26.175l-16.231,96.485v.17c-2.979,22.549-21.52,27.308-36.6,27.308H103.046C87.211,263.363,74.4,251.416,74.415,236.7V128.948l5.045-1.586a106.535,106.535,0,0,0,29.052-13.428c19.509-12.918,29.847-30.2,29.847-49.971V19.429c6.322-1.133,19.027-2.266,28.205,4.018,7.781,5.324,11.728,15.24,11.728,29.461v50.254a5.373,5.373,0,0,0,5.532,5.155h71.8Z" transform="translate(-0.001 -8.239)"/>
    </g>
  </g>
</svg>
