<svg xmlns="http://www.w3.org/2000/svg" width="205.149" height="198.751" viewBox="0 0 205.149 198.751">
  <g id="like_no-like-state_" data-name="like(no-like-state)" transform="translate(0 0)">
    <path id="XMLID_1929_" d="M10.861,312.463h43.52a1.741,1.741,0,0,0,1.761-1.655V205.44a1.741,1.741,0,0,0-1.761-1.655H10.861A1.741,1.741,0,0,0,9.1,205.44V310.808A1.71,1.71,0,0,0,10.861,312.463Z" transform="translate(144.898 -120.84)" fill="#6952e5"/>
    <path id="Path_1" data-name="Path 1" d="M84.774,13.393C96.7,4.612,113.2,9.66,113.872,9.872a3.817,3.817,0,0,1,2.665,3.648V49.914c0,12.343,5.837,22.778,17.384,31.049a67.035,67.035,0,0,0,18.146,9.074c.085,0,.127.042.212.085l2.157.721a7.156,7.156,0,0,1,6.133-3.478H198a7.177,7.177,0,0,1,7.148,7.172V196.55A7.177,7.177,0,0,1,198,203.718H160.527a7.129,7.129,0,0,1-6.936-5.514,27.48,27.48,0,0,1-20.137,8.783H44.719c-18.864,0-30.919-9.883-33.034-27.151L.35,107.643a27.977,27.977,0,0,1,10.912-27.02,27.184,27.184,0,0,1,16.03-5.177H73.438V41.685C73.438,28.45,77.245,18.949,84.774,13.393ZM161.076,196h36.418V95.046H161.076ZM27.293,83.126a19.452,19.452,0,0,0-11.549,3.733,20.28,20.28,0,0,0-7.782,19.6l11.294,72.236v.127c2.073,16.882,14.973,20.445,25.462,20.445h88.737a19.957,19.957,0,0,0,19.922-19.979V98.611l-3.51-1.188A71.822,71.822,0,0,1,129.647,87.37c-13.574-9.671-20.768-22.609-20.768-37.412V16.616c-4.4-.848-13.239-1.7-19.625,3.008-5.414,3.986-8.163,11.41-8.163,22.057V79.305a3.868,3.868,0,0,1-3.849,3.86H27.29Z" transform="translate(0 -8.237)"/>
  </g>
</svg>
