<svg xmlns="http://www.w3.org/2000/svg" viewBox="0 0 28 28">
  <defs>
    <style>
      .cls-1 {
        fill: #475993;
      }
    </style>
  </defs>
  <path id="facebook" class="cls-1" d="M24.229,0H3.775A3.773,3.773,0,0,0,0,3.773V24.227A3.773,3.773,0,0,0,3.775,28H13.863l.017-10.006h-2.6a.613.613,0,0,1-.613-.611l-.012-3.225a.613.613,0,0,1,.613-.616h2.595V10.426c0-3.617,2.209-5.586,5.435-5.586h2.647a.613.613,0,0,1,.613.613v2.72a.613.613,0,0,1-.613.613H20.321c-1.755,0-2.094.834-2.094,2.057v2.7h3.855a.613.613,0,0,1,.609.686l-.382,3.225a.613.613,0,0,1-.609.541H18.244L18.227,28h6A3.773,3.773,0,0,0,28,24.227V3.773A3.773,3.773,0,0,0,24.229,0Z" transform="translate(-0.002)"/>
</svg>
