<svg xmlns="http://www.w3.org/2000/svg" viewBox="0 0 28 28">
  <defs>
    <style>
      .cls-1 {
        fill: #76a9ea;
      }
    </style>
  </defs>
  <path id="twitter" class="cls-1" d="M27.555,37.748a9.865,9.865,0,0,1-1.931.783,7.565,7.565,0,0,0,1.589-3.042h0c.088-.332-.212-.62-.462-.442h0A10.2,10.2,0,0,1,23.8,36.513a.633.633,0,0,1-.184.028A.713.713,0,0,1,23.1,36.3a5.314,5.314,0,0,0-5.907-1.457,6.66,6.66,0,0,0-3.941,5.066,9.268,9.268,0,0,0-.143,2.672.293.293,0,0,1-.054.2.21.21,0,0,1-.167.091h-.021A15.268,15.268,0,0,1,1.986,35.89h0a.288.288,0,0,0-.517.049h0a8.4,8.4,0,0,0-.817,3.648,8.041,8.041,0,0,0,1.8,5.173,4.9,4.9,0,0,1-1.377-.641h0c-.209-.14-.466.04-.469.327h0A7.486,7.486,0,0,0,4.131,51.14l-.129,0a4.55,4.55,0,0,1-1.017-.117h0c-.235-.054-.433.214-.36.488h0A6.525,6.525,0,0,0,7.4,56.461a9.864,9.864,0,0,1-6.239,2.278h-.7a.486.486,0,0,0-.452.419.626.626,0,0,0,.229.635,14.484,14.484,0,0,0,15.44.884,16.334,16.334,0,0,0,5.206-4.69,21.737,21.737,0,0,0,3.188-6.418,23.947,23.947,0,0,0,1.083-7.024v-.11a1.342,1.342,0,0,1,.384-.961,13.751,13.751,0,0,0,2.4-3.167h0c.176-.316-.1-.712-.39-.558Z" transform="translate(0 -34.491)"/>
</svg>
